<?xml version="1.0" encoding="UTF-8"?>
<svg xmlns="http://www.w3.org/2000/svg" viewBox="0 0 382 700" preserveAspectRatio="xMidYMid meet">
  
  <style>
    :root {
      --fg: #111;
      --muted: #555;
      --frame: #111;
      --fill: #ddd;
      --peak: #c00;
      --trough: #2a7a2a;
      --accent-1: #7a4500;
      --accent-2: #c00;
      --accent-3: #3a3a9a;
    }
    @media (prefers-color-scheme: dark) {
      :root {
        --fg: #e8e6e3;
        --muted: #9aa0a6;
        --frame: #8a8a8a;
        --fill: #2b2b2b;
        --peak: #ff6b6b;
        --trough: #6bd16b;
        --accent-1: #ffb870;
        --accent-2: #ff6b6b;
        --accent-3: #8aa8ff;
      }
    }
    .mg-bg { fill: none; }
    .mg-fg { fill: var(--fg); }
    .mg-muted { fill: var(--muted); }
    .mg-frame { fill: none; stroke: var(--frame); stroke-width: 0.5; }
    .mg-track { fill: none; stroke: var(--fg); stroke-width: 1.4; stroke-linejoin: round; stroke-linecap: round; }
    .mg-dot { fill: var(--fg); }
    .mg-area { fill: var(--fill); stroke: none; }
    .mg-line { fill: none; stroke: var(--fg); stroke-width: 1.2; }
    .mg-axis { stroke: var(--frame); stroke-width: 0.5; fill: none; }
    .mg-label { fill: var(--fg); font-family: Helvetica, Arial, sans-serif; }
    .mg-muted-label { fill: var(--muted); font-family: Helvetica, Arial, sans-serif; }
    .mg-peak { fill: var(--peak); }
    .mg-trough { fill: var(--trough); }
    .mg-peak-label { fill: var(--peak); font-family: Helvetica, Arial, sans-serif; font-weight: bold; }
    .mg-acc-1 { stroke: var(--accent-1); fill: none; }
    .mg-acc-1-label { fill: var(--accent-1); font-family: Helvetica, Arial, sans-serif; font-weight: bold; }
    .mg-acc-2 { stroke: var(--accent-2); fill: none; }
    .mg-acc-2-label { fill: var(--accent-2); font-family: Helvetica, Arial, sans-serif; font-weight: bold; }
    .mg-acc-3 { stroke: var(--accent-3); fill: none; }
    .mg-acc-3-label { fill: var(--accent-3); font-family: Helvetica, Arial, sans-serif; font-weight: bold; }
    .mg-start { fill: var(--trough); stroke: var(--frame); stroke-width: 0.5; }
    .mg-end { fill: var(--peak); stroke: var(--frame); stroke-width: 0.5; }
  </style>
  
    <text class="mg-label" x="30" y="28" font-size="16" font-weight="bold">Hudson Valley Loop · Sept 2021</text>
    <text class="mg-muted-label" x="30" y="46" font-size="11">91.3 km · 56.7 mi · 1h54 moving</text>
  <rect class="mg-frame" x="30" y="60" width="322.3" height="590.0"/>
  <path class="mg-track" d="M46.994,60.369L47.528,60.896L46.865,61.606L46.76,62.002L57.999,70.429L58.713,71.03L58.825,71.359L59.43,71.729L59.784,71.592L60.458,72.308L62.096,73.468L62.638,73.992L60.824,77.794L59.121,80.142L55.458,85.668L62.9,89.445L75.539,96.351L76.549,97.128L77.255,98.116L77.599,99.217L77.643,100.261L77.336,101.17L76.719,101.982L72.409,106.444L68.572,110.03L67.211,111.676L62.265,121.31L59.774,125.257L55.797,134.074L54.343,136.837L52.529,139.815L51.804,141.429L50.153,146.503L49.291,151.713L47.88,157.047L46.97,159.473L45.13,163.441L44.492,165.401L44.287,167.414L44.341,173.77L43.979,176.185L43.56,177.279L42.794,178.686L38.443,184.516L36.957,187.098L35.498,190.598L33.217,197.524L32.621,200.478L30.131,220.778L30,222.075L30.066,223.531L30.739,225.82L35.118,234.76L38.687,243.993L40.508,246.505L48.583,256.078L49.32,257.193L51.092,260.423L52.096,262.672L53.615,267.608L54.51,269.776L63.036,288.637L65.245,292.424L66.06,293.569L67.313,294.274L70.408,296.691L78.233,302.327L88.603,311.337L89.399,311.543L90.692,310.529L92.691,308.774L95.167,306.852L99.265,302.794L100.022,302.194L107.99,298.284L110.582,296.686L112.854,295.719L113.766,295.12L121.917,288.34L124.611,285.725L125.702,284.469L127.602,281.94L130.426,277.427L131.468,276.083L133.415,274.468L135.894,272.981L138.661,270.504L140.243,269.883L141.92,269.702L149.467,269.985L154.807,270.391L156.342,270.307L157.338,270.086L160.074,268.842L162.695,267.372L163.592,266.612L166.347,263.51L168.233,261.882L169.127,261.471L171.494,261.456L172.649,261.714L173.653,262.332L175.219,263.953L176.116,264.591L177.548,265.02L179.013,264.961L182.112,263.989L186.183,261.656L189.288,260.258L191.449,259.591L192.962,259.522L196.076,259.732L198.994,259.27L201.149,259.233L202.983,259.422L206.6,260.21L207.7,260.266L208.983,260.045L210.263,259.487L212.749,257.752L213.281,257.293L213.636,256.65L214.353,256.315L216.028,254.734L217.155,253.925L218.405,253.373L219.727,253.049L222.545,253.113L227.745,253.698L234.876,255.451L239.584,257.037L240.626,257.555L243.115,259.518L244.306,260.083L245.732,260.472L247.868,260.616L248.968,260.844L251.003,261.572L252.199,262.428L253.754,264.006L256.253,265.08L257.066,265.576L258.944,267.423L259.933,268.112L261.078,268.405L261.861,268.345L262.629,268.1L266.755,266.443L269.344,265.225L270.593,264.366L273.296,262.014L275.062,260.3L276.54,258.565L282.887,249.787L285.146,247.586L288.452,244.963L289.958,244.045L295.032,241.484L301.948,237.565L311.626,233.646L312.936,232.937L313.74,232.302L315.259,230.718L320.972,224.197L322.591,222.918L324.794,221.634L327.136,220.623L329.209,220.084L331.804,219.759L335.017,219.885L336.396,219.812L337.701,219.481L338.893,218.91L344.724,215.033L347.549,212.821L348.799,211.556L350.219,209.781L351.871,207.318L352.301,206.386L351.615,205.727L352.059,205.8L352.238,206.491L349.967,209.963L347.554,212.636L345.214,214.534L339.338,218.487L337.821,219.251L336.164,219.663L331.582,219.732L328.616,220.064L326.477,220.691L324.78,221.456L322.747,222.698L321.307,223.843L316.836,228.647L314.254,231.614L312.774,232.826L310.549,233.888L302.394,237.083L288.043,245.199L284.911,247.513L282.956,249.428L281.788,250.879L276.709,258.127L275.129,260.008L273.397,261.681L270.458,264.245L269.452,264.958L262.635,268.022L261.896,268.252L261.12,268.328L260.002,268.049L259.058,267.373L256.959,265.373L254.154,264.064L251.688,261.884L249.892,260.896L243.775,259.449L242.495,258.833L240.604,257.475L239.755,257.022L234.017,255.013L228.156,253.643L224.242,252.985L223.179,253.028L219.792,252.783L218.672,253.018L217.174,253.618L215.779,254.544L213.129,257.085L211.549,258.382L209.987,259.444L208.634,260.043L207.736,260.158L206.788,260.096L203.487,259.412L200.68,259.178L198.811,259.184L196.002,259.49L193.208,259.356L191.43,259.462L189.117,260.147L185.881,261.556L182.083,263.748L179.982,264.491L178.692,264.808L177.386,264.859L176.188,264.496L175.161,263.755L173.338,261.962L172.351,261.472L170.743,261.289L169.159,261.525L168.215,261.913L166.977,262.841L163.505,266.494L162.465,267.367L158.654,269.364L156.989,270.019L156.109,270.204L154.755,270.279L148.561,269.768L141.685,269.478L139.967,269.721L138.364,270.436L135.35,273.021L132.283,275.172L131.242,276.073L130.351,277.132L127.566,281.584L125.168,284.862L123.471,286.731L121.17,288.81L112.992,295.365L110.274,296.649L107.178,298.489L99.663,302.213L95.025,306.69L90.601,310.294L90.01,310.909L89.368,312.172L96.246,317.712L97.722,318.531L99.195,318.769L100.773,318.584L101.896,318.141L104.704,316.396L105.755,315.91L108.03,315.495L110.354,315.359L111.779,315.682L116.884,317.629L119.528,318.77L121.17,319.857L122.643,321.664L123.448,323.398L124.314,326.513L124.931,329.982L125.658,332.721L126.111,333.938L127.28,335.715L129.743,338.2L131.002,339.81L131.458,340.753L132.732,344.193L133.414,345.61L140.401,357.983L140.716,358.9L140.862,359.858L140.803,360.824L140.523,361.764L139.765,363.059L136.808,367.007L136.122,368.428L135.678,369.944L135.51,371.508L135.223,379.371L134.118,383.912L133.912,385.48L133.744,389.596L133.471,391.874L133.02,394.412L131.99,398.752L131.953,400.265L132.406,405.195L132.2,407.673L131.583,410.086L130.906,411.884L127.208,419.078L127.864,419.121L127.715,418.955L127.227,418.929L126.697,419.822L124.083,422.378L122.882,423.165L120.624,424.252L119.514,425.158L118.203,426.742L113.497,433.414L112.491,436.035L111.985,439.684L111.464,441.489L109.26,445.425L107.134,447.992L106.162,449.738L103.369,458.944L101.645,463.094L95.622,479.293L95.183,480.886L94.368,485.239L93.43,488.946L93.089,490.833L92.853,494.112L92.749,498.717L91.859,504.436L91.26,513.698L90.411,516.875L89.304,522.79L88.546,525.732L87.905,527.604L86.647,530.074L84.67,532.725L83.548,534.514L82.278,537.427L81.768,538.904L81.606,540.598L81.587,546.043L81.388,548.229L80.086,556.526L79.83,557.646L79.088,559.51L77.968,561.164L77.154,561.955L76.224,562.636L70.466,565.422L67.673,567.04L66.433,567.963L65.044,569.367L62.6,572.348L58.806,576.171L54.724,579.285L50.993,582.666L48.769,584.343L42.908,589.762L40.304,593.003L37.914,595.176L36.699,596.055L36.23,597.128L36.739,597.768L38.81,601.738L43.765,608.565L44.754,610.204L46.403,611.471L48.289,612.353L48.873,612.806L50.072,614.632L52.366,617.605L53.715,618.984L54.692,619.363L55.041,619.623L55.343,619.649L55.64,619.489L55.869,619.183L55.915,618.719L57.043,616.669L57.699,616.043L58.3,615.898L59.25,616.135L61.628,617.46L62.97,618.061L63.82,618.087L65.576,617.408L66.186,617.508L66.726,617.889L67.127,618.725L66.961,619.63L66.283,620.584L62.806,624.592L62.18,625.789L61.857,627.095L61.984,628.399L63.118,630.907L63.891,633.334L64.613,634.435L65.231,635.048L66.329,635.574L68.824,635.677L69.48,635.853L69.977,636.312L71.004,638.344L72.495,640.114L73.026,640.506L74.491,641.051L75.92,642.112L76.59,642.388L77.83,642.52L79.618,642.274L81.617,642.443L83.073,642.297L85.881,641.596L86.518,641.329L87.758,640.52L88.574,640.318L89.103,640.341L89.581,640.568L90.81,641.644L91.245,641.877L91.869,642.037L93.517,642.178L94.019,642.515L94.438,643.425L95.177,647.935L95.642,648.85L96.447,649.956L96.271,649.45L95.57,648.32L95.242,647.408L94.517,643.224L94,642.36L93.471,642.037L91.282,641.734L89.543,640.388L88.508,640.132L87.802,640.293L85.927,641.375L82.562,642.313L81.557,642.362L80.17,642.107L77.757,642.442L76.798,642.324L75.933,641.946L74.613,640.949L72.882,640.205L71.094,638.146L70.699,637.552L70.114,636.234L69.653,635.805L68.783,635.549L66.359,635.46L65.408,634.997L64.597,634.132L64.067,633.27L63.397,631.064L62.263,628.712L62.017,627.865L61.971,627.167L62.224,625.97L62.825,624.852L65.519,621.793L66.914,619.942L67.217,619.028L67.032,618.083L66.461,617.495L65.698,617.291L63.67,617.935L62.973,617.865L58.972,615.777L58.341,615.645L57.722,615.785L56.947,616.459L55.925,618.421L54.915,619.33L55.253,619.173L56.055,618.447L57.221,616.594L57.65,616.237L58.34,616.017L59.617,616.353L62.418,617.792L63.224,618.085L64.004,618.062L65.107,617.58L65.812,617.424L66.5,617.646L66.993,618.227L67.148,618.966L66.914,619.71L65.551,621.487L62.96,624.378L62.271,625.508L61.817,626.916L61.825,628.081L62.013,628.659L63.046,630.804L63.965,633.503L64.928,634.814L65.408,635.21L66.15,635.561L67.286,635.696L68.843,635.686L69.715,635.969L69.978,636.247L70.653,637.874L71.535,639.049L72.553,640.11L73.227,640.578L74.561,641.093L76.092,642.204L76.931,642.478L78.167,642.57L80.138,642.332L81.634,642.51L82.568,642.452L85.914,641.55L87.853,640.478L88.766,640.315L89.711,640.622L91.227,641.893L91.926,642.032L92.985,642.024L93.604,642.178L94.127,642.599L94.503,643.358L94.843,644.969L95.179,647.616L95.844,649.066L96.458,650L96.707,649.881L95.757,648.608L95.259,647.519L94.994,645.158L94.567,642.796L94.186,642.158L93.864,641.95L93.457,641.828L91.579,641.732L90.879,641.332L89.61,640.266L88.748,640.04L87.645,640.332L85.908,641.323L82.809,642.135L81.63,642.267L79.749,642.104L78.02,642.388L77.065,642.323L76.134,641.997L74.655,640.945L72.765,640.045L71.164,638.302L70.754,637.651L70.131,636.196L69.64,635.741L68.862,635.55L66.531,635.525L65.898,635.33L65.316,634.954L64.566,634.126L63.976,633.207L63.302,630.999L62.07,628.327L61.959,627.131L62.254,625.957L63.155,624.294L66.095,621.047L67.029,619.779L67.286,619.074L67.284,618.701L67.001,617.959L66.4,617.405L66.021,617.271L65.174,617.366L63.908,617.834L63.037,617.789L59.145,615.9L58.378,615.703L57.658,615.897L57.336,616.172L55.897,618.501L55.537,618.863L55.04,619.134L54.903,619.357L55.861,619.22L55.336,618.972L54.436,619.071L53.568,618.643L50.435,614.768L49.036,612.624L48.499,612.19L46.472,611.295L44.915,609.918L44.143,608.663L39.187,601.902L37.303,598.488L36.59,596.596L36.776,596.259L38.051,595.331L39.467,594.014L43.712,589.255L48.555,584.783L50.866,583.044L54.487,579.661L58.491,576.881L60.058,575.536L63.31,572.132L65.308,569.424L66.603,568.044L68.087,566.885L71.111,564.939L73.515,563.777L74.922,563.372L76.413,562.598L78.182,561.136L78.884,560.223L79.426,559.234L80.085,557.021L81.503,548.26L81.71,545.314L81.725,540.303L81.929,538.769L83.679,534.541L84.599,533.08L86.999,529.864L87.939,527.904L88.616,525.819L89.81,520.991L90.523,517.143L91.446,513.934L91.589,512.365L91.698,506.503L92.002,503.835L92.791,498.887L93.105,490.878L93.342,489.462L94.304,485.901L95.669,479.535L101.078,464.83L103.315,459.516L105.557,451.919L106.334,449.647L107.306,447.991L109.467,445.338L111.04,442.514L111.76,440.928L112.14,439.663L112.564,436.348L113.375,434.024L114.379,432.388L119.52,425.317L120.953,424.185L123.252,422.991L124.303,422.288L126.526,420.189L127.087,419.52L128.891,416.355L131.408,410.967L132.167,408.382L132.521,405.725L132.455,404.087L132.013,400.492L132.008,398.751L133.394,393.045L133.965,388.554L134.181,384.199L135.353,379.22L135.547,376.758L135.654,372.063L135.923,369.671L136.308,368.354L137.106,366.8L138.249,365.129L139.66,363.498L140.439,362.322L140.861,361.056L140.906,359.71L140.651,358.375L140.084,357.113L139.185,355.378L135.717,349.445L133.09,344.541L132.309,342.909L131.048,339.685L130.185,338.54L127.368,335.424L126.287,333.78L125.685,332.256L124.039,324.925L123.522,323.134L122.79,321.576L121.435,319.935L120.236,318.994L119.013,318.334L112.036,315.512L110.347,315.141L108.909,315.176L106.16,315.525L105.507,315.448L105.015,316.049L101.787,318.022L100.505,318.514L99.457,318.626L98.556,318.572L97.089,318.064L95.747,317.208L90.351,312.709L83.269,306.354L78.274,302.047L68.275,294.918L66.602,293.551L65.756,292.7L64.617,291.039L62.728,287.616L56.733,274.65L53.838,268.041L52.596,263.436L50.865,259.395L49.244,256.634L48.535,255.658L38.704,244.084L37.495,240.245L35.634,235.297L30.568,224.726L30.254,223.396L30.183,222.284L30.526,218.099L31.116,213.083L33.164,198.849L35.238,191.868L36.374,188.917L38.445,185.192L43.034,178.664L44.026,176.596L44.316,175.525L44.497,174.055L44.455,167.328L44.703,165.214L45.248,163.59L47.042,159.932L48.018,157.331L49.74,150.793L50.008,148.184L50.28,146.806L52.12,141.032L52.764,139.708L55.177,135.593L60.269,124.94L63.397,119.615L67.15,111.932L68.356,110.35L70.392,108.641L72.891,106.308L76.807,102.2L77.651,101.076L77.9,100.311L77.826,99.217L77.496,98.113L76.824,97.12L76.044,96.478L66.418,91.054L62.047,88.722L55.646,85.553L53.079,84.855L51.739,83.535L50.673,82.819L49.143,82.271L42.828,81.22L41.866,81.27L40.635,81.729L39.55,81.976L38.322,81.933L37.484,81.629L36.651,81.109L34.268,79.157L33.389,78.265L32.858,77.425L32.474,76.4L32.364,74.655L33.133,70.168L33.44,69.293L33.932,68.462L39.358,62.322L39.969,61.483L40.635,60.218L41.783,60L43.945,60.204L44.673,60.527L46.495,61.771L47.154,61.607L47.294,61.436L46.962,60.467L47.172,60.516L46.908,60.937L46.751,60.791L46.792,60.582L47.074,60.688L47.154,60.612L47.229,60.731L47.262,60.456L47.009,60.409L46.815,60.652"/>
  <polygon class="mg-start" points="47.0,55.4 42.5,63.4 51.5,63.4"/>
  <circle class="mg-dot" cx="57.6" cy="69.9" r="2"/><text class="mg-label" x="62.6" y="65.9" font-size="10">Beacon</text>
  <circle class="mg-dot" cx="37.9" cy="156.4" r="2"/><text class="mg-label" x="42.9" y="152.4" font-size="10">Dutchess Junction</text>
  <circle class="mg-dot" cx="89.5" cy="311.5" r="2"/><text class="mg-label" x="94.5" y="307.5" font-size="10">Cold Spring</text>
  <circle class="mg-dot" cx="274.1" cy="293.3" r="2"/><text class="mg-label" x="279.1" y="289.3" font-size="10">Dennytown</text>
  <circle class="mg-dot" cx="64.6" cy="456.3" r="2"/><text class="mg-label" x="69.6" y="452.3" font-size="10">Highland Falls</text>
  <circle class="mg-dot" cx="69.9" cy="559.1" r="2"/><text class="mg-label" x="74.9" y="555.1" font-size="10">Manitou</text>
  <circle class="mg-dot" cx="142.9" cy="459.5" r="2"/><text class="mg-label" x="147.9" y="455.5" font-size="10">Forsonville</text>
  <circle class="mg-dot" cx="108.5" cy="414.4" r="2"/><text class="mg-label" x="113.5" y="410.4" font-size="10">Garrison</text>
  <circle class="mg-dot" cx="179.7" cy="421.5" r="2"/><text class="mg-label" x="184.7" y="417.5" font-size="10">South Highland</text>
  <circle class="mg-dot" cx="179.1" cy="332.9" r="2"/><text class="mg-label" x="184.1" y="328.9" font-size="10">Nelson Corners</text>
  <circle class="mg-acc-1" cx="311.5" cy="233.5" r="3.5" stroke-width="1.5"/><text class="mg-acc-1-label" x="303.5" y="225.5" text-anchor="end" font-size="10">peak 353m</text>
  <circle class="mg-acc-2" cx="299.3" cy="238.8" r="3.5" stroke-width="1.5"/><text class="mg-acc-2-label" x="291.3" y="252.8" text-anchor="end" font-size="10">top speed 90 mph</text>
  <circle class="mg-acc-3" cx="55.7" cy="85.8" r="3.5" stroke-width="1.5"/><text class="mg-acc-3-label" x="63.7" y="77.8" text-anchor="start" font-size="10">0.92G @ 32.2mph</text>
  
    <line class="mg-axis" x1="30.0" y1="675" x2="81.2" y2="675" stroke-width="1.5"/>
    <line class="mg-axis" x1="30.0" y1="671" x2="30.0" y2="679" stroke-width="1.5"/>
    <line class="mg-axis" x1="81.2" y1="671" x2="81.2" y2="679" stroke-width="1.5"/>
    <text class="mg-label" x="55.6" y="668" text-anchor="middle" font-size="10">2 km</text>
  <text class="mg-muted-label" x="352.30143851652974" y="682" text-anchor="end" font-size="9">moto-gpx · mercator</text>
</svg>