<?xml version="1.0" encoding="UTF-8"?>
<svg xmlns="http://www.w3.org/2000/svg" viewBox="0 0 900 220" preserveAspectRatio="xMidYMid meet">
  
  <style>
    :root {
      --fg: #111;
      --muted: #555;
      --frame: #111;
      --fill: #ddd;
      --peak: #c00;
      --trough: #2a7a2a;
      --accent-1: #7a4500;
      --accent-2: #c00;
      --accent-3: #3a3a9a;
    }
    @media (prefers-color-scheme: dark) {
      :root {
        --fg: #e8e6e3;
        --muted: #9aa0a6;
        --frame: #8a8a8a;
        --fill: #2b2b2b;
        --peak: #ff6b6b;
        --trough: #6bd16b;
        --accent-1: #ffb870;
        --accent-2: #ff6b6b;
        --accent-3: #8aa8ff;
      }
    }
    .mg-bg { fill: none; }
    .mg-fg { fill: var(--fg); }
    .mg-muted { fill: var(--muted); }
    .mg-frame { fill: none; stroke: var(--frame); stroke-width: 0.5; }
    .mg-track { fill: none; stroke: var(--fg); stroke-width: 1.4; stroke-linejoin: round; stroke-linecap: round; }
    .mg-dot { fill: var(--fg); }
    .mg-area { fill: var(--fill); stroke: none; }
    .mg-line { fill: none; stroke: var(--fg); stroke-width: 1.2; }
    .mg-axis { stroke: var(--frame); stroke-width: 0.5; fill: none; }
    .mg-label { fill: var(--fg); font-family: Helvetica, Arial, sans-serif; }
    .mg-muted-label { fill: var(--muted); font-family: Helvetica, Arial, sans-serif; }
    .mg-peak { fill: var(--peak); }
    .mg-trough { fill: var(--trough); }
    .mg-peak-label { fill: var(--peak); font-family: Helvetica, Arial, sans-serif; font-weight: bold; }
    .mg-acc-1 { stroke: var(--accent-1); fill: none; }
    .mg-acc-1-label { fill: var(--accent-1); font-family: Helvetica, Arial, sans-serif; font-weight: bold; }
    .mg-acc-2 { stroke: var(--accent-2); fill: none; }
    .mg-acc-2-label { fill: var(--accent-2); font-family: Helvetica, Arial, sans-serif; font-weight: bold; }
    .mg-acc-3 { stroke: var(--accent-3); fill: none; }
    .mg-acc-3-label { fill: var(--accent-3); font-family: Helvetica, Arial, sans-serif; font-weight: bold; }
    .mg-start { fill: var(--trough); stroke: var(--frame); stroke-width: 0.5; }
    .mg-end { fill: var(--peak); stroke: var(--frame); stroke-width: 0.5; }
  </style>
  <text class="mg-label" x="55" y="20" font-size="13" font-weight="bold">speed profile</text>
  <path class="mg-area" d="M55,178.471L55.084,177.965L55.41,172.275L55.776,158.795L56.149,158.617L56.431,161.892L56.712,163.165L56.983,162.018L57.273,164.489L57.564,157.828L57.856,149.141L58.342,151.343L58.791,152.145L59.235,146.573L59.676,162.63L59.93,170.971L60.16,155.543L60.544,152.558L60.906,164.223L61.321,177.7L61.357,178.544L61.632,166.265L61.836,178.416L62.164,158.964L62.441,167.644L62.771,163.893L63.114,138.565L63.784,124.227L64.519,141.217L65.277,134.778L65.983,150.195L66.546,156.244L67.005,166.707L67.668,131.196L68.311,134.159L69.031,143.42L69.584,170.758L70.49,134.611L71.219,121.694L72.151,127.068L73.144,113.457L74.02,123.814L74.908,134.912L75.799,136.574L76.641,125.394L77.361,144.436L78.078,130.795L78.859,127.462L79.695,123.686L80.589,110.409L81.506,122.031L82.416,125.137L83.288,135.233L84.161,113.733L85.033,127.541L86.026,121.919L86.939,127.627L87.732,160.102L88.37,170.985L88.933,150.979L89.531,128.972L90.356,118.739L91.322,115.267L92.409,124.795L93.623,121.692L94.543,121.081L95.477,121.499L96.4,110.21L97.319,121.387L98.249,118.456L99.223,120.373L100.16,132.89L101.05,123.467L101.95,114.068L103,113.211L104.053,107.907L105.176,107.624L106.345,102.009L107.558,116.435L108.555,115.691L109.576,114.087L110.616,114.501L111.646,118.364L112.628,115.196L113.645,117.406L114.639,113.054L115.696,114.582L116.726,116.826L117.716,126.855L118.551,125.98L119.407,124.699L120.285,122.833L121.187,122.322L122.1,121.906L123.021,121.484L123.93,135.004L124.684,138.742L125.319,150.505L125.78,152.273L126.219,150.922L126.681,145.336L127.239,140.998L127.852,143.53L128.423,146.925L128.945,145.47L129.493,142.543L130.087,141.39L130.699,141.679L131.302,142.331L131.916,119.762L132.862,131.447L133.631,126.403L135.985,123.762L136.877,121.393L137.804,122.423L138.712,122.419L139.781,123.556L141.003,111.988L142.149,105.239L143.343,104.556L144.524,117.796L145.861,112.82L146.92,114.823L147.947,116.467L148.95,118.173L149.924,120.046L150.858,134.827L151.545,153.19L151.943,174.915L152.683,147.241L153.211,134.331L153.937,133.426L154.674,137.783L155.477,123.947L156.215,143.012L156.938,135.536L157.7,135.06L158.409,135.492L159.115,134.406L159.833,135.43L160.534,137.649L161.203,145.547L161.727,175.344L162.331,155.652L162.819,143.313L163.302,153.073L163.833,149.073L164.326,141.051L164.951,139.185L165.595,138.027L166.263,135.606L166.961,131.391L167.723,135.351L168.54,137.108L169.219,135.444L170.045,135.85L170.744,134.773L171.46,133.349L172.2,131.425L172.97,135.973L173.804,132.051L174.562,131.761L175.333,108.59L176.455,117.464L177.432,124.584L178.305,127.118L179.134,128.644L179.952,125.214L180.821,123.676L181.711,124.15L182.594,125.628L183.454,125.057L184.318,124.694L185.196,124.033L186.08,123.636L186.969,122.09L187.883,117.164L188.89,109.506L190.01,109.825L191.112,112.5L192.177,123.627L193.239,111.833L194.305,118.467L195.27,128.695L196.066,142.618L196.631,169.206L197.334,127.96L198.16,137.592L198.831,132.852L199.584,130.73L200.361,132.609L201.115,109.872L202.468,120.115L203.395,130.275L204.314,130.323L205.102,130.053L205.894,128.571L206.71,125.94L207.571,122.265L208.481,120.033L209.44,118.45L210.406,116.199L211.399,126.738L213.041,173.312L213.719,137.713L214.521,133.914L215.247,135.209L216.073,134.235L216.805,130.665L217.718,130.016L218.508,131.432L219.279,118.124L220.094,128.361L220.912,138.561L221.727,119.684L222.521,129.524L223.321,127.759L224.146,125.88L225.021,128.052L226.009,129.543L226.923,132.194L227.671,148.211L228.365,138.249L228.915,136.035L229.834,120.308L230.769,136.944L231.613,127.414L232.446,129.019L233.251,123.95L234.258,134.912L235.114,128.795L235.926,126.731L236.77,125.672L237.635,118.255L238.618,128.128L239.636,105.474L240.617,130.452L241.588,109.888L242.511,131.331L243.481,117.849L244.462,122.093L245.377,129.895L246.168,126.994L247.034,100.146L248.333,76.702L249.985,83.395L251.453,111.539L252.355,137.886L253.147,126.558L253.851,140.012L254.678,144.011L255.369,147.127L255.845,173.942L256.657,131.266L257.439,116.006L258.282,136.532L259.15,123.816L260.037,123.669L260.928,112.016L261.824,121.504L262.752,118.89L263.717,119.985L264.661,121.773L265.575,125.766L266.431,127.379L267.265,126.785L268.103,123.152L269.001,121.831L269.914,130.807L270.862,134.65L271.459,178.485L271.804,179.376L271.816,179.495L271.826,179.462L271.833,179.204L271.85,179.863L271.9,179.285L272.224,175.401L272.73,135.638L273.443,123.845L274.347,132.522L275.349,128.864L276.325,121.202L277.257,120.779L278.188,112.294L279.08,123.523L279.971,124.913L280.84,136.148L281.711,122.686L282.621,120.195L283.572,104.343L284.568,119.161L285.531,129.593L286.518,118.203L287.495,101.541L288.528,128.863L289.532,114.727L290.574,96.225L291.677,108.107L292.823,79.834L294.142,96.63L295.836,81.957L297.923,84.137L299.601,108.576L300.726,107.13L301.962,112.786L303.014,133.538L303.901,127.723L304.739,127.455L305.742,102.896L306.757,130.589L307.713,115.271L308.566,135.146L309.455,112.564L310.343,126.65L311.18,128.693L311.992,128.843L312.805,113.773L313.677,120.781L314.609,124.76L315.48,125.779L316.338,114.036L317.207,122.142L318.307,116.318L319.309,118.418L320.285,114.64L321.312,119.891L322.261,121.686L323.178,124.15L324.063,104.224L325.248,129.557L325.99,174.489L326.62,133.528L327.356,129.965L328.146,115.074L329.001,114.447L330.058,123.969L331.146,113.183L332.171,119.505L333.137,116.072L334.142,117.793L335.124,117.969L336.106,118.097L337.084,118.611L338.049,127.56L339.044,121.625L339.967,122.733L340.872,121.308L341.8,121.113L342.731,133.054L343.651,124.349L344.531,123.01L345.423,133.142L346.152,137.691L346.821,144.367L347.547,110.099L348.467,131.099L349.428,119.875L350.379,114.139L351.403,120.757L352.339,120.141L353.367,113.032L354.409,112.768L355.455,118.42L356.429,131.149L357.38,122.466L358.291,110.415L359.208,121.469L360.136,130.771L361.115,118.804L362.242,106.214L363.214,115.649L364.232,129.806L365.202,112.408L366.092,136.455L366.94,129.344L367.74,122.878L368.492,144.28L369.199,134.785L369.914,127.133L370.725,139.477L371.507,137.834L372.307,144.133L373.005,137.699L373.674,129.086L374.345,145.403L375.041,143.411L375.765,143.077L376.485,134.112L377.211,126.934L377.909,144.945L378.61,133.438L379.346,126.979L380.045,141.739L380.637,158.465L381.513,143.034L382.106,142.054L382.701,144.551L383.168,153.924L383.71,139.429L384.358,126.72L385.06,141.455L385.84,126.913L386.679,125.235L387.546,117.761L388.366,139.056L389.177,128.56L389.986,132.661L390.735,118.68L391.543,124.929L392.424,115.631L393.439,116.032L394.443,117.039L395.441,108.031L396.567,117.393L397.519,156.61L398.149,143.064L398.934,111.699L399.833,135.225L400.721,116.137L401.73,96.419L402.831,111.308L403.918,124.464L404.99,114.195L406.03,128.249L407.049,116.915L408.043,115.96L409.057,115.86L410.071,114.243L411.113,118.552L412.285,110.058L413.39,110.4L414.49,109.994L415.598,110.252L416.696,112.327L417.769,110.89L418.863,110.562L419.958,112.968L421.017,117.27L422.186,100.533L423.233,125.472L424.272,114.225L425.311,101.231L426.348,127.306L427.39,127.536L428.414,127.951L429.395,117.062L430.403,127.313L431.196,176.834L431.51,179.621L432.081,140.842L432.729,129.196L433.528,132.013L434.295,121.463L435.233,112.584L436.311,108.504L437.426,127.256L438.463,132.812L439.197,133.977L439.949,119.007L440.914,118.477L441.89,113.471L442.943,114.778L443.967,116.992L444.969,110.925L446.067,108.613L447.194,108.934L448.314,109.268L449.443,104.523L450.62,110.13L451.721,111.719L452.801,107.85L453.943,107.734L455.089,105.043L456.273,106.146L457.442,107.726L458.584,107.528L459.727,106.628L461.327,101.654L462.558,98.322L463.93,102.036L465.168,100.535L466.419,103.767L467.621,105.797L468.789,107.73L469.927,107.762L471.07,105.637L472.257,92.97L473.609,107.248L474.761,107.73L475.897,110.189L477.003,110.616L478.109,104.694L479.289,109.255L480.411,107.408L481.56,105.636L482.733,105.595L483.908,111.739L485.208,111.988L486.503,104.518L487.7,101.328L488.938,108.604L490.064,112.591L491.123,115.562L492.138,115.551L493.167,108.197L494.314,101.141L495.55,107.926L496.688,110.998L497.757,120.267L498.707,112.324L499.797,111.413L500.861,127.176L501.691,132.536L502.419,145.109L502.974,140.959L503.594,140.662L504.212,146.342L504.728,172.299L505.453,144.929L506.024,131.467L506.794,128.848L507.619,125.182L508.47,132.183L509.228,131.353L509.999,129.283L510.8,124.731L511.68,126.413L512.514,131.355L513.277,133.418L514.017,136.669L514.827,139.793L515.44,179.231L515.761,179.804L515.797,179.878L515.994,167.375L516.191,177.697L516.699,138.157L517.46,146.418L518.144,126.656L518.972,133.426L519.684,147.204L520.338,137.773L521.007,138.999L521.671,133.346L522.624,115.004L523.647,107.946L524.596,133.215L525.525,118.828L526.483,135.96L527.368,123.557L528.256,123.755L529.129,123.875L529.869,139.525L530.673,121.723L531.441,147.234L532.109,142.016L532.863,122.658L533.776,124.838L534.632,130.206L535.439,116.468L536.276,140.2L537.028,133.323L538.025,131.637L538.781,144.695L539.45,130.645L540.239,128.812L541.042,141.559L541.758,167.604L542.15,178.457L542.942,103.948L544.138,135.086L544.958,139.194L545.604,143.693L546.367,124.364L547.225,124.945L548.11,122.613L548.987,136.159L549.682,131.229L550.491,113.623L551.531,123.685L552.39,138.781L553.022,155.76L553.399,154.573L553.809,147.443L554.469,136.497L555.319,135.135L556.24,136.33L557.168,140.192L558.138,132.664L559.195,142.89L559.992,130.677L561.048,127.874L561.999,132.526L562.882,121.896L563.787,123.383L564.659,135.831L565.351,137.519L566.023,137.686L566.692,147.832L567.166,162.369L567.552,150.678L568.143,171.185L568.553,176.667L569.562,125.394L570.434,120.133L571.707,125.717L572.565,131.075L573.477,126.804L574.368,100.899L575.928,127.725L576.869,128.914L578.319,114.797L579.828,128.174L580.811,120.087L581.922,123.152L583.422,129.183L584.2,130.76L584.968,133.619L585.887,127.328L586.963,134.869L587.812,137.736L588.644,144.127L589.315,138.981L589.971,127.299L590.791,132.943L591.524,131.172L592.345,104.581L593.515,125.552L594.345,158.461L594.77,177.535L595.817,141.72L596.424,138.615L597.098,129.603L597.91,119.519L598.851,127.404L599.647,142.056L600.255,135.057L600.973,126.387L601.823,127.483L602.646,127.618L603.493,116.328L604.501,125.308L605.338,130.392L606.135,129.87L606.938,130.926L607.716,124.786L608.563,135.169L609.281,131.024L610.047,137.81L610.936,117.437L611.903,137.591L612.823,124.356L613.699,127.021L614.532,128.718L615.347,128.975L616.164,123.625L617.067,117.298L618.1,108.99L619.18,125.801L620.076,126.669L620.86,161.469L621.222,177.004L621.925,141.503L622.726,127.911L623.685,128.786L624.619,133.635L625.353,130.468L626.132,134.338L626.859,129.643L627.665,125.286L628.511,134.392L629.22,146.318L629.731,155.8L630.115,171.092L631.325,164.154L631.576,159.781L631.842,161.96L632.197,160.245L632.559,100.5L634.391,98.938L635.982,133.616L636.778,142.557L637.368,142.977L638.041,143.441L638.626,140.711L639.255,140.294L639.89,137.66L640.58,120.895L641.528,113.885L642.574,111.43L643.66,110.015L644.759,113.419L646.396,101.481L647.627,99.704L649.829,104.923L651.316,104.207L652.509,101.046L653.759,102.007L654.993,102.464L656.218,101.751L657.448,105.32L658.621,110.455L659.714,112.766L660.776,106.964L661.956,104.522L663.137,107.826L664.279,106.822L665.628,106.955L666.786,105.932L667.955,106.303L669.252,80.779L670.558,121.056L671.713,123.511L672.83,125.655L673.884,119.961L674.831,120.855L675.766,132.815L676.692,118.517L677.678,110.13L678.788,121.822L679.932,108.795L681.058,107.623L682.39,107.936L683.538,105.477L684.716,103.515L686.023,111.372L687.345,103.703L688.713,97.171L689.983,121.218L691.103,101.887L692.303,117.512L693.358,131.483L694.33,119.694L695.43,109.954L696.352,129.494L697.359,114.716L698.39,117.948L699.363,108.147L700.31,118.07L701.29,128.973L702.257,120.453L703.188,124.43L704.071,110.484L704.986,133.408L705.918,106.052L706.892,114.814L707.925,126.197L709,108.199L710.135,108.167L711.268,98.343L712.344,120.617L713.565,112.418L714.638,99.815L715.694,126.528L716.755,102.237L717.779,131.187L718.755,114.133L719.883,114.64L720.885,126.495L721.738,128.651L722.72,128.074L723.699,123.196L724.596,128.471L725.399,133.385L726.136,126.546L726.84,143.855L727.553,134.492L728.285,117.922L729.103,138.683L729.924,130.264L730.707,125.678L731.552,127.228L732.372,130.267L733.166,132.136L734.128,125.13L735.005,116.548L735.998,126.39L736.838,139.334L737.656,134.825L738.509,128.449L739.314,134.648L740.024,135.448L740.729,121.758L741.496,122.815L742.401,126.692L743.243,133.466L743.977,136.594L744.657,146.629L745.314,145.532L746.006,126.202L746.715,142.491L747.46,129.118L748.242,148.279L748.781,178.584L749.379,150.682L749.847,146.935L750.371,143.533L750.948,148.287L751.427,156.796L751.733,164.991L752.027,156.79L752.408,152.497L752.836,169.422L753.382,162.462L753.659,170.706L754.779,160.759L755.081,177.336L756.063,148.303L756.678,136.632L757.249,138.412L757.915,134.423L758.634,135.078L759.346,142.183L760.114,114.11L760.982,125.513L761.847,123.627L762.742,111.118L763.65,136.613L764.508,121.046L765.434,126.191L766.28,115.178L767.134,127.84L768.207,94.875L769.899,51.604L771.91,73.143L773.853,99.987L775.244,124.342L776.118,126.814L776.955,139.063L777.766,116.001L778.609,135.572L779.449,127.066L780.286,126.53L781.132,114.632L781.993,135.816L782.86,118.94L783.809,128.309L786.302,128.555L787.254,117.999L788.071,138.46L788.959,129.859L789.75,130.811L790.529,134.253L791.4,118L792.217,138.392L793.043,98.039L794.122,85.259L795.651,67.811L797.435,85.513L799.699,121.344L800.615,131.486L801.371,130.44L802.023,136.142L802.714,144.308L803.426,127.079L804.399,128.708L805.21,114.952L806.067,123.739L806.958,134.313L807.859,134.502L808.751,117.747L809.725,120.019L810.676,127.085L811.74,116.715L812.728,133.323L813.64,133.189L814.528,112.21L815.421,120.927L816.357,130.954L817.329,109.857L818.253,143.116L818.901,168.546L819.528,150.608L820.084,149.842L820.564,148.134L821.076,132.055L821.853,106.996L822.814,114.694L823.846,102.32L824.869,119.719L826.035,113.98L827.272,110.077L828.553,114.318L829.599,98.755L830.669,112.111L831.743,105.617L832.946,84.07L834.21,113.556L835.256,125.926L836.267,125.336L837.124,121.527L837.894,143.546L838.608,135.589L839.31,137.588L839.97,143.214L840.547,136.271L841.123,141.519L841.736,135.198L842.461,121.719L843.387,128.309L844.194,131.762L845.081,136.205L845.758,143.345L846.346,140.844L846.95,150.881L847.403,152.497L847.852,137.548L848.552,140.741L849.282,140.187L849.916,130.373L850.57,145.394L851.104,154.663L851.632,139.223L852.285,136.943L852.967,127.582L853.657,139.024L854.305,138.148L854.968,137.765L855.627,167.295L856.345,146.227L856.893,137.03L857.572,147.603L858.204,130.744L858.853,142.2L859.58,119.586L860.566,121.724L861.45,147.091L862.099,136.282L862.8,130.627L863.581,129.629L864.381,120.65L865.162,134.708L865.86,153.835L866.266,157.61L866.736,141.315L867.245,153.424L867.668,148.467L868.3,168.446L869.049,178.753L869.07,179.692L869.329,177.428L869.636,179.466L869.843,179.484L869.862,177.15L869.911,175.815L869.966,178.016L869.998,179.463L870,179.513L870,180L869.998,180L869.966,180L869.911,180L869.862,180L869.843,180L869.636,180L869.329,180L869.07,180L869.049,180L868.3,180L867.668,180L867.245,180L866.736,180L866.266,180L865.86,180L865.162,180L864.381,180L863.581,180L862.8,180L862.099,180L861.45,180L860.566,180L859.58,180L858.853,180L858.204,180L857.572,180L856.893,180L856.345,180L855.627,180L854.968,180L854.305,180L853.657,180L852.967,180L852.285,180L851.632,180L851.104,180L850.57,180L849.916,180L849.282,180L848.552,180L847.852,180L847.403,180L846.95,180L846.346,180L845.758,180L845.081,180L844.194,180L843.387,180L842.461,180L841.736,180L841.123,180L840.547,180L839.97,180L839.31,180L838.608,180L837.894,180L837.124,180L836.267,180L835.256,180L834.21,180L832.946,180L831.743,180L830.669,180L829.599,180L828.553,180L827.272,180L826.035,180L824.869,180L823.846,180L822.814,180L821.853,180L821.076,180L820.564,180L820.084,180L819.528,180L818.901,180L818.253,180L817.329,180L816.357,180L815.421,180L814.528,180L813.64,180L812.728,180L811.74,180L810.676,180L809.725,180L808.751,180L807.859,180L806.958,180L806.067,180L805.21,180L804.399,180L803.426,180L802.714,180L802.023,180L801.371,180L800.615,180L799.699,180L797.435,180L795.651,180L794.122,180L793.043,180L792.217,180L791.4,180L790.529,180L789.75,180L788.959,180L788.071,180L787.254,180L786.302,180L783.809,180L782.86,180L781.993,180L781.132,180L780.286,180L779.449,180L778.609,180L777.766,180L776.955,180L776.118,180L775.244,180L773.853,180L771.91,180L769.899,180L768.207,180L767.134,180L766.28,180L765.434,180L764.508,180L763.65,180L762.742,180L761.847,180L760.982,180L760.114,180L759.346,180L758.634,180L757.915,180L757.249,180L756.678,180L756.063,180L755.081,180L754.779,180L753.659,180L753.382,180L752.836,180L752.408,180L752.027,180L751.733,180L751.427,180L750.948,180L750.371,180L749.847,180L749.379,180L748.781,180L748.242,180L747.46,180L746.715,180L746.006,180L745.314,180L744.657,180L743.977,180L743.243,180L742.401,180L741.496,180L740.729,180L740.024,180L739.314,180L738.509,180L737.656,180L736.838,180L735.998,180L735.005,180L734.128,180L733.166,180L732.372,180L731.552,180L730.707,180L729.924,180L729.103,180L728.285,180L727.553,180L726.84,180L726.136,180L725.399,180L724.596,180L723.699,180L722.72,180L721.738,180L720.885,180L719.883,180L718.755,180L717.779,180L716.755,180L715.694,180L714.638,180L713.565,180L712.344,180L711.268,180L710.135,180L709,180L707.925,180L706.892,180L705.918,180L704.986,180L704.071,180L703.188,180L702.257,180L701.29,180L700.31,180L699.363,180L698.39,180L697.359,180L696.352,180L695.43,180L694.33,180L693.358,180L692.303,180L691.103,180L689.983,180L688.713,180L687.345,180L686.023,180L684.716,180L683.538,180L682.39,180L681.058,180L679.932,180L678.788,180L677.678,180L676.692,180L675.766,180L674.831,180L673.884,180L672.83,180L671.713,180L670.558,180L669.252,180L667.955,180L666.786,180L665.628,180L664.279,180L663.137,180L661.956,180L660.776,180L659.714,180L658.621,180L657.448,180L656.218,180L654.993,180L653.759,180L652.509,180L651.316,180L649.829,180L647.627,180L646.396,180L644.759,180L643.66,180L642.574,180L641.528,180L640.58,180L639.89,180L639.255,180L638.626,180L638.041,180L637.368,180L636.778,180L635.982,180L634.391,180L632.559,180L632.197,180L631.842,180L631.576,180L631.325,180L630.115,180L629.731,180L629.22,180L628.511,180L627.665,180L626.859,180L626.132,180L625.353,180L624.619,180L623.685,180L622.726,180L621.925,180L621.222,180L620.86,180L620.076,180L619.18,180L618.1,180L617.067,180L616.164,180L615.347,180L614.532,180L613.699,180L612.823,180L611.903,180L610.936,180L610.047,180L609.281,180L608.563,180L607.716,180L606.938,180L606.135,180L605.338,180L604.501,180L603.493,180L602.646,180L601.823,180L600.973,180L600.255,180L599.647,180L598.851,180L597.91,180L597.098,180L596.424,180L595.817,180L594.77,180L594.345,180L593.515,180L592.345,180L591.524,180L590.791,180L589.971,180L589.315,180L588.644,180L587.812,180L586.963,180L585.887,180L584.968,180L584.2,180L583.422,180L581.922,180L580.811,180L579.828,180L578.319,180L576.869,180L575.928,180L574.368,180L573.477,180L572.565,180L571.707,180L570.434,180L569.562,180L568.553,180L568.143,180L567.552,180L567.166,180L566.692,180L566.023,180L565.351,180L564.659,180L563.787,180L562.882,180L561.999,180L561.048,180L559.992,180L559.195,180L558.138,180L557.168,180L556.24,180L555.319,180L554.469,180L553.809,180L553.399,180L553.022,180L552.39,180L551.531,180L550.491,180L549.682,180L548.987,180L548.11,180L547.225,180L546.367,180L545.604,180L544.958,180L544.138,180L542.942,180L542.15,180L541.758,180L541.042,180L540.239,180L539.45,180L538.781,180L538.025,180L537.028,180L536.276,180L535.439,180L534.632,180L533.776,180L532.863,180L532.109,180L531.441,180L530.673,180L529.869,180L529.129,180L528.256,180L527.368,180L526.483,180L525.525,180L524.596,180L523.647,180L522.624,180L521.671,180L521.007,180L520.338,180L519.684,180L518.972,180L518.144,180L517.46,180L516.699,180L516.191,180L515.994,180L515.797,180L515.761,180L515.44,180L514.827,180L514.017,180L513.277,180L512.514,180L511.68,180L510.8,180L509.999,180L509.228,180L508.47,180L507.619,180L506.794,180L506.024,180L505.453,180L504.728,180L504.212,180L503.594,180L502.974,180L502.419,180L501.691,180L500.861,180L499.797,180L498.707,180L497.757,180L496.688,180L495.55,180L494.314,180L493.167,180L492.138,180L491.123,180L490.064,180L488.938,180L487.7,180L486.503,180L485.208,180L483.908,180L482.733,180L481.56,180L480.411,180L479.289,180L478.109,180L477.003,180L475.897,180L474.761,180L473.609,180L472.257,180L471.07,180L469.927,180L468.789,180L467.621,180L466.419,180L465.168,180L463.93,180L462.558,180L461.327,180L459.727,180L458.584,180L457.442,180L456.273,180L455.089,180L453.943,180L452.801,180L451.721,180L450.62,180L449.443,180L448.314,180L447.194,180L446.067,180L444.969,180L443.967,180L442.943,180L441.89,180L440.914,180L439.949,180L439.197,180L438.463,180L437.426,180L436.311,180L435.233,180L434.295,180L433.528,180L432.729,180L432.081,180L431.51,180L431.196,180L430.403,180L429.395,180L428.414,180L427.39,180L426.348,180L425.311,180L424.272,180L423.233,180L422.186,180L421.017,180L419.958,180L418.863,180L417.769,180L416.696,180L415.598,180L414.49,180L413.39,180L412.285,180L411.113,180L410.071,180L409.057,180L408.043,180L407.049,180L406.03,180L404.99,180L403.918,180L402.831,180L401.73,180L400.721,180L399.833,180L398.934,180L398.149,180L397.519,180L396.567,180L395.441,180L394.443,180L393.439,180L392.424,180L391.543,180L390.735,180L389.986,180L389.177,180L388.366,180L387.546,180L386.679,180L385.84,180L385.06,180L384.358,180L383.71,180L383.168,180L382.701,180L382.106,180L381.513,180L380.637,180L380.045,180L379.346,180L378.61,180L377.909,180L377.211,180L376.485,180L375.765,180L375.041,180L374.345,180L373.674,180L373.005,180L372.307,180L371.507,180L370.725,180L369.914,180L369.199,180L368.492,180L367.74,180L366.94,180L366.092,180L365.202,180L364.232,180L363.214,180L362.242,180L361.115,180L360.136,180L359.208,180L358.291,180L357.38,180L356.429,180L355.455,180L354.409,180L353.367,180L352.339,180L351.403,180L350.379,180L349.428,180L348.467,180L347.547,180L346.821,180L346.152,180L345.423,180L344.531,180L343.651,180L342.731,180L341.8,180L340.872,180L339.967,180L339.044,180L338.049,180L337.084,180L336.106,180L335.124,180L334.142,180L333.137,180L332.171,180L331.146,180L330.058,180L329.001,180L328.146,180L327.356,180L326.62,180L325.99,180L325.248,180L324.063,180L323.178,180L322.261,180L321.312,180L320.285,180L319.309,180L318.307,180L317.207,180L316.338,180L315.48,180L314.609,180L313.677,180L312.805,180L311.992,180L311.18,180L310.343,180L309.455,180L308.566,180L307.713,180L306.757,180L305.742,180L304.739,180L303.901,180L303.014,180L301.962,180L300.726,180L299.601,180L297.923,180L295.836,180L294.142,180L292.823,180L291.677,180L290.574,180L289.532,180L288.528,180L287.495,180L286.518,180L285.531,180L284.568,180L283.572,180L282.621,180L281.711,180L280.84,180L279.971,180L279.08,180L278.188,180L277.257,180L276.325,180L275.349,180L274.347,180L273.443,180L272.73,180L272.224,180L271.9,180L271.85,180L271.833,180L271.826,180L271.816,180L271.804,180L271.459,180L270.862,180L269.914,180L269.001,180L268.103,180L267.265,180L266.431,180L265.575,180L264.661,180L263.717,180L262.752,180L261.824,180L260.928,180L260.037,180L259.15,180L258.282,180L257.439,180L256.657,180L255.845,180L255.369,180L254.678,180L253.851,180L253.147,180L252.355,180L251.453,180L249.985,180L248.333,180L247.034,180L246.168,180L245.377,180L244.462,180L243.481,180L242.511,180L241.588,180L240.617,180L239.636,180L238.618,180L237.635,180L236.77,180L235.926,180L235.114,180L234.258,180L233.251,180L232.446,180L231.613,180L230.769,180L229.834,180L228.915,180L228.365,180L227.671,180L226.923,180L226.009,180L225.021,180L224.146,180L223.321,180L222.521,180L221.727,180L220.912,180L220.094,180L219.279,180L218.508,180L217.718,180L216.805,180L216.073,180L215.247,180L214.521,180L213.719,180L213.041,180L211.399,180L210.406,180L209.44,180L208.481,180L207.571,180L206.71,180L205.894,180L205.102,180L204.314,180L203.395,180L202.468,180L201.115,180L200.361,180L199.584,180L198.831,180L198.16,180L197.334,180L196.631,180L196.066,180L195.27,180L194.305,180L193.239,180L192.177,180L191.112,180L190.01,180L188.89,180L187.883,180L186.969,180L186.08,180L185.196,180L184.318,180L183.454,180L182.594,180L181.711,180L180.821,180L179.952,180L179.134,180L178.305,180L177.432,180L176.455,180L175.333,180L174.562,180L173.804,180L172.97,180L172.2,180L171.46,180L170.744,180L170.045,180L169.219,180L168.54,180L167.723,180L166.961,180L166.263,180L165.595,180L164.951,180L164.326,180L163.833,180L163.302,180L162.819,180L162.331,180L161.727,180L161.203,180L160.534,180L159.833,180L159.115,180L158.409,180L157.7,180L156.938,180L156.215,180L155.477,180L154.674,180L153.937,180L153.211,180L152.683,180L151.943,180L151.545,180L150.858,180L149.924,180L148.95,180L147.947,180L146.92,180L145.861,180L144.524,180L143.343,180L142.149,180L141.003,180L139.781,180L138.712,180L137.804,180L136.877,180L135.985,180L133.631,180L132.862,180L131.916,180L131.302,180L130.699,180L130.087,180L129.493,180L128.945,180L128.423,180L127.852,180L127.239,180L126.681,180L126.219,180L125.78,180L125.319,180L124.684,180L123.93,180L123.021,180L122.1,180L121.187,180L120.285,180L119.407,180L118.551,180L117.716,180L116.726,180L115.696,180L114.639,180L113.645,180L112.628,180L111.646,180L110.616,180L109.576,180L108.555,180L107.558,180L106.345,180L105.176,180L104.053,180L103,180L101.95,180L101.05,180L100.16,180L99.223,180L98.249,180L97.319,180L96.4,180L95.477,180L94.543,180L93.623,180L92.409,180L91.322,180L90.356,180L89.531,180L88.933,180L88.37,180L87.732,180L86.939,180L86.026,180L85.033,180L84.161,180L83.288,180L82.416,180L81.506,180L80.589,180L79.695,180L78.859,180L78.078,180L77.361,180L76.641,180L75.799,180L74.908,180L74.02,180L73.144,180L72.151,180L71.219,180L70.49,180L69.584,180L69.031,180L68.311,180L67.668,180L67.005,180L66.546,180L65.983,180L65.277,180L64.519,180L63.784,180L63.114,180L62.771,180L62.441,180L62.164,180L61.836,180L61.632,180L61.357,180L61.321,180L60.906,180L60.544,180L60.16,180L59.93,180L59.676,180L59.235,180L58.791,180L58.342,180L57.856,180L57.564,180L57.273,180L56.983,180L56.712,180L56.431,180L56.149,180L55.776,180L55.41,180L55.084,180L55,180Z"/>
  <path class="mg-line" d="M55,178.471L55.084,177.965L55.41,172.275L55.776,158.795L56.149,158.617L56.431,161.892L56.712,163.165L56.983,162.018L57.273,164.489L57.564,157.828L57.856,149.141L58.342,151.343L58.791,152.145L59.235,146.573L59.676,162.63L59.93,170.971L60.16,155.543L60.544,152.558L60.906,164.223L61.321,177.7L61.357,178.544L61.632,166.265L61.836,178.416L62.164,158.964L62.441,167.644L62.771,163.893L63.114,138.565L63.784,124.227L64.519,141.217L65.277,134.778L65.983,150.195L66.546,156.244L67.005,166.707L67.668,131.196L68.311,134.159L69.031,143.42L69.584,170.758L70.49,134.611L71.219,121.694L72.151,127.068L73.144,113.457L74.02,123.814L74.908,134.912L75.799,136.574L76.641,125.394L77.361,144.436L78.078,130.795L78.859,127.462L79.695,123.686L80.589,110.409L81.506,122.031L82.416,125.137L83.288,135.233L84.161,113.733L85.033,127.541L86.026,121.919L86.939,127.627L87.732,160.102L88.37,170.985L88.933,150.979L89.531,128.972L90.356,118.739L91.322,115.267L92.409,124.795L93.623,121.692L94.543,121.081L95.477,121.499L96.4,110.21L97.319,121.387L98.249,118.456L99.223,120.373L100.16,132.89L101.05,123.467L101.95,114.068L103,113.211L104.053,107.907L105.176,107.624L106.345,102.009L107.558,116.435L108.555,115.691L109.576,114.087L110.616,114.501L111.646,118.364L112.628,115.196L113.645,117.406L114.639,113.054L115.696,114.582L116.726,116.826L117.716,126.855L118.551,125.98L119.407,124.699L120.285,122.833L121.187,122.322L122.1,121.906L123.021,121.484L123.93,135.004L124.684,138.742L125.319,150.505L125.78,152.273L126.219,150.922L126.681,145.336L127.239,140.998L127.852,143.53L128.423,146.925L128.945,145.47L129.493,142.543L130.087,141.39L130.699,141.679L131.302,142.331L131.916,119.762L132.862,131.447L133.631,126.403L135.985,123.762L136.877,121.393L137.804,122.423L138.712,122.419L139.781,123.556L141.003,111.988L142.149,105.239L143.343,104.556L144.524,117.796L145.861,112.82L146.92,114.823L147.947,116.467L148.95,118.173L149.924,120.046L150.858,134.827L151.545,153.19L151.943,174.915L152.683,147.241L153.211,134.331L153.937,133.426L154.674,137.783L155.477,123.947L156.215,143.012L156.938,135.536L157.7,135.06L158.409,135.492L159.115,134.406L159.833,135.43L160.534,137.649L161.203,145.547L161.727,175.344L162.331,155.652L162.819,143.313L163.302,153.073L163.833,149.073L164.326,141.051L164.951,139.185L165.595,138.027L166.263,135.606L166.961,131.391L167.723,135.351L168.54,137.108L169.219,135.444L170.045,135.85L170.744,134.773L171.46,133.349L172.2,131.425L172.97,135.973L173.804,132.051L174.562,131.761L175.333,108.59L176.455,117.464L177.432,124.584L178.305,127.118L179.134,128.644L179.952,125.214L180.821,123.676L181.711,124.15L182.594,125.628L183.454,125.057L184.318,124.694L185.196,124.033L186.08,123.636L186.969,122.09L187.883,117.164L188.89,109.506L190.01,109.825L191.112,112.5L192.177,123.627L193.239,111.833L194.305,118.467L195.27,128.695L196.066,142.618L196.631,169.206L197.334,127.96L198.16,137.592L198.831,132.852L199.584,130.73L200.361,132.609L201.115,109.872L202.468,120.115L203.395,130.275L204.314,130.323L205.102,130.053L205.894,128.571L206.71,125.94L207.571,122.265L208.481,120.033L209.44,118.45L210.406,116.199L211.399,126.738L213.041,173.312L213.719,137.713L214.521,133.914L215.247,135.209L216.073,134.235L216.805,130.665L217.718,130.016L218.508,131.432L219.279,118.124L220.094,128.361L220.912,138.561L221.727,119.684L222.521,129.524L223.321,127.759L224.146,125.88L225.021,128.052L226.009,129.543L226.923,132.194L227.671,148.211L228.365,138.249L228.915,136.035L229.834,120.308L230.769,136.944L231.613,127.414L232.446,129.019L233.251,123.95L234.258,134.912L235.114,128.795L235.926,126.731L236.77,125.672L237.635,118.255L238.618,128.128L239.636,105.474L240.617,130.452L241.588,109.888L242.511,131.331L243.481,117.849L244.462,122.093L245.377,129.895L246.168,126.994L247.034,100.146L248.333,76.702L249.985,83.395L251.453,111.539L252.355,137.886L253.147,126.558L253.851,140.012L254.678,144.011L255.369,147.127L255.845,173.942L256.657,131.266L257.439,116.006L258.282,136.532L259.15,123.816L260.037,123.669L260.928,112.016L261.824,121.504L262.752,118.89L263.717,119.985L264.661,121.773L265.575,125.766L266.431,127.379L267.265,126.785L268.103,123.152L269.001,121.831L269.914,130.807L270.862,134.65L271.459,178.485L271.804,179.376L271.816,179.495L271.826,179.462L271.833,179.204L271.85,179.863L271.9,179.285L272.224,175.401L272.73,135.638L273.443,123.845L274.347,132.522L275.349,128.864L276.325,121.202L277.257,120.779L278.188,112.294L279.08,123.523L279.971,124.913L280.84,136.148L281.711,122.686L282.621,120.195L283.572,104.343L284.568,119.161L285.531,129.593L286.518,118.203L287.495,101.541L288.528,128.863L289.532,114.727L290.574,96.225L291.677,108.107L292.823,79.834L294.142,96.63L295.836,81.957L297.923,84.137L299.601,108.576L300.726,107.13L301.962,112.786L303.014,133.538L303.901,127.723L304.739,127.455L305.742,102.896L306.757,130.589L307.713,115.271L308.566,135.146L309.455,112.564L310.343,126.65L311.18,128.693L311.992,128.843L312.805,113.773L313.677,120.781L314.609,124.76L315.48,125.779L316.338,114.036L317.207,122.142L318.307,116.318L319.309,118.418L320.285,114.64L321.312,119.891L322.261,121.686L323.178,124.15L324.063,104.224L325.248,129.557L325.99,174.489L326.62,133.528L327.356,129.965L328.146,115.074L329.001,114.447L330.058,123.969L331.146,113.183L332.171,119.505L333.137,116.072L334.142,117.793L335.124,117.969L336.106,118.097L337.084,118.611L338.049,127.56L339.044,121.625L339.967,122.733L340.872,121.308L341.8,121.113L342.731,133.054L343.651,124.349L344.531,123.01L345.423,133.142L346.152,137.691L346.821,144.367L347.547,110.099L348.467,131.099L349.428,119.875L350.379,114.139L351.403,120.757L352.339,120.141L353.367,113.032L354.409,112.768L355.455,118.42L356.429,131.149L357.38,122.466L358.291,110.415L359.208,121.469L360.136,130.771L361.115,118.804L362.242,106.214L363.214,115.649L364.232,129.806L365.202,112.408L366.092,136.455L366.94,129.344L367.74,122.878L368.492,144.28L369.199,134.785L369.914,127.133L370.725,139.477L371.507,137.834L372.307,144.133L373.005,137.699L373.674,129.086L374.345,145.403L375.041,143.411L375.765,143.077L376.485,134.112L377.211,126.934L377.909,144.945L378.61,133.438L379.346,126.979L380.045,141.739L380.637,158.465L381.513,143.034L382.106,142.054L382.701,144.551L383.168,153.924L383.71,139.429L384.358,126.72L385.06,141.455L385.84,126.913L386.679,125.235L387.546,117.761L388.366,139.056L389.177,128.56L389.986,132.661L390.735,118.68L391.543,124.929L392.424,115.631L393.439,116.032L394.443,117.039L395.441,108.031L396.567,117.393L397.519,156.61L398.149,143.064L398.934,111.699L399.833,135.225L400.721,116.137L401.73,96.419L402.831,111.308L403.918,124.464L404.99,114.195L406.03,128.249L407.049,116.915L408.043,115.96L409.057,115.86L410.071,114.243L411.113,118.552L412.285,110.058L413.39,110.4L414.49,109.994L415.598,110.252L416.696,112.327L417.769,110.89L418.863,110.562L419.958,112.968L421.017,117.27L422.186,100.533L423.233,125.472L424.272,114.225L425.311,101.231L426.348,127.306L427.39,127.536L428.414,127.951L429.395,117.062L430.403,127.313L431.196,176.834L431.51,179.621L432.081,140.842L432.729,129.196L433.528,132.013L434.295,121.463L435.233,112.584L436.311,108.504L437.426,127.256L438.463,132.812L439.197,133.977L439.949,119.007L440.914,118.477L441.89,113.471L442.943,114.778L443.967,116.992L444.969,110.925L446.067,108.613L447.194,108.934L448.314,109.268L449.443,104.523L450.62,110.13L451.721,111.719L452.801,107.85L453.943,107.734L455.089,105.043L456.273,106.146L457.442,107.726L458.584,107.528L459.727,106.628L461.327,101.654L462.558,98.322L463.93,102.036L465.168,100.535L466.419,103.767L467.621,105.797L468.789,107.73L469.927,107.762L471.07,105.637L472.257,92.97L473.609,107.248L474.761,107.73L475.897,110.189L477.003,110.616L478.109,104.694L479.289,109.255L480.411,107.408L481.56,105.636L482.733,105.595L483.908,111.739L485.208,111.988L486.503,104.518L487.7,101.328L488.938,108.604L490.064,112.591L491.123,115.562L492.138,115.551L493.167,108.197L494.314,101.141L495.55,107.926L496.688,110.998L497.757,120.267L498.707,112.324L499.797,111.413L500.861,127.176L501.691,132.536L502.419,145.109L502.974,140.959L503.594,140.662L504.212,146.342L504.728,172.299L505.453,144.929L506.024,131.467L506.794,128.848L507.619,125.182L508.47,132.183L509.228,131.353L509.999,129.283L510.8,124.731L511.68,126.413L512.514,131.355L513.277,133.418L514.017,136.669L514.827,139.793L515.44,179.231L515.761,179.804L515.797,179.878L515.994,167.375L516.191,177.697L516.699,138.157L517.46,146.418L518.144,126.656L518.972,133.426L519.684,147.204L520.338,137.773L521.007,138.999L521.671,133.346L522.624,115.004L523.647,107.946L524.596,133.215L525.525,118.828L526.483,135.96L527.368,123.557L528.256,123.755L529.129,123.875L529.869,139.525L530.673,121.723L531.441,147.234L532.109,142.016L532.863,122.658L533.776,124.838L534.632,130.206L535.439,116.468L536.276,140.2L537.028,133.323L538.025,131.637L538.781,144.695L539.45,130.645L540.239,128.812L541.042,141.559L541.758,167.604L542.15,178.457L542.942,103.948L544.138,135.086L544.958,139.194L545.604,143.693L546.367,124.364L547.225,124.945L548.11,122.613L548.987,136.159L549.682,131.229L550.491,113.623L551.531,123.685L552.39,138.781L553.022,155.76L553.399,154.573L553.809,147.443L554.469,136.497L555.319,135.135L556.24,136.33L557.168,140.192L558.138,132.664L559.195,142.89L559.992,130.677L561.048,127.874L561.999,132.526L562.882,121.896L563.787,123.383L564.659,135.831L565.351,137.519L566.023,137.686L566.692,147.832L567.166,162.369L567.552,150.678L568.143,171.185L568.553,176.667L569.562,125.394L570.434,120.133L571.707,125.717L572.565,131.075L573.477,126.804L574.368,100.899L575.928,127.725L576.869,128.914L578.319,114.797L579.828,128.174L580.811,120.087L581.922,123.152L583.422,129.183L584.2,130.76L584.968,133.619L585.887,127.328L586.963,134.869L587.812,137.736L588.644,144.127L589.315,138.981L589.971,127.299L590.791,132.943L591.524,131.172L592.345,104.581L593.515,125.552L594.345,158.461L594.77,177.535L595.817,141.72L596.424,138.615L597.098,129.603L597.91,119.519L598.851,127.404L599.647,142.056L600.255,135.057L600.973,126.387L601.823,127.483L602.646,127.618L603.493,116.328L604.501,125.308L605.338,130.392L606.135,129.87L606.938,130.926L607.716,124.786L608.563,135.169L609.281,131.024L610.047,137.81L610.936,117.437L611.903,137.591L612.823,124.356L613.699,127.021L614.532,128.718L615.347,128.975L616.164,123.625L617.067,117.298L618.1,108.99L619.18,125.801L620.076,126.669L620.86,161.469L621.222,177.004L621.925,141.503L622.726,127.911L623.685,128.786L624.619,133.635L625.353,130.468L626.132,134.338L626.859,129.643L627.665,125.286L628.511,134.392L629.22,146.318L629.731,155.8L630.115,171.092L631.325,164.154L631.576,159.781L631.842,161.96L632.197,160.245L632.559,100.5L634.391,98.938L635.982,133.616L636.778,142.557L637.368,142.977L638.041,143.441L638.626,140.711L639.255,140.294L639.89,137.66L640.58,120.895L641.528,113.885L642.574,111.43L643.66,110.015L644.759,113.419L646.396,101.481L647.627,99.704L649.829,104.923L651.316,104.207L652.509,101.046L653.759,102.007L654.993,102.464L656.218,101.751L657.448,105.32L658.621,110.455L659.714,112.766L660.776,106.964L661.956,104.522L663.137,107.826L664.279,106.822L665.628,106.955L666.786,105.932L667.955,106.303L669.252,80.779L670.558,121.056L671.713,123.511L672.83,125.655L673.884,119.961L674.831,120.855L675.766,132.815L676.692,118.517L677.678,110.13L678.788,121.822L679.932,108.795L681.058,107.623L682.39,107.936L683.538,105.477L684.716,103.515L686.023,111.372L687.345,103.703L688.713,97.171L689.983,121.218L691.103,101.887L692.303,117.512L693.358,131.483L694.33,119.694L695.43,109.954L696.352,129.494L697.359,114.716L698.39,117.948L699.363,108.147L700.31,118.07L701.29,128.973L702.257,120.453L703.188,124.43L704.071,110.484L704.986,133.408L705.918,106.052L706.892,114.814L707.925,126.197L709,108.199L710.135,108.167L711.268,98.343L712.344,120.617L713.565,112.418L714.638,99.815L715.694,126.528L716.755,102.237L717.779,131.187L718.755,114.133L719.883,114.64L720.885,126.495L721.738,128.651L722.72,128.074L723.699,123.196L724.596,128.471L725.399,133.385L726.136,126.546L726.84,143.855L727.553,134.492L728.285,117.922L729.103,138.683L729.924,130.264L730.707,125.678L731.552,127.228L732.372,130.267L733.166,132.136L734.128,125.13L735.005,116.548L735.998,126.39L736.838,139.334L737.656,134.825L738.509,128.449L739.314,134.648L740.024,135.448L740.729,121.758L741.496,122.815L742.401,126.692L743.243,133.466L743.977,136.594L744.657,146.629L745.314,145.532L746.006,126.202L746.715,142.491L747.46,129.118L748.242,148.279L748.781,178.584L749.379,150.682L749.847,146.935L750.371,143.533L750.948,148.287L751.427,156.796L751.733,164.991L752.027,156.79L752.408,152.497L752.836,169.422L753.382,162.462L753.659,170.706L754.779,160.759L755.081,177.336L756.063,148.303L756.678,136.632L757.249,138.412L757.915,134.423L758.634,135.078L759.346,142.183L760.114,114.11L760.982,125.513L761.847,123.627L762.742,111.118L763.65,136.613L764.508,121.046L765.434,126.191L766.28,115.178L767.134,127.84L768.207,94.875L769.899,51.604L771.91,73.143L773.853,99.987L775.244,124.342L776.118,126.814L776.955,139.063L777.766,116.001L778.609,135.572L779.449,127.066L780.286,126.53L781.132,114.632L781.993,135.816L782.86,118.94L783.809,128.309L786.302,128.555L787.254,117.999L788.071,138.46L788.959,129.859L789.75,130.811L790.529,134.253L791.4,118L792.217,138.392L793.043,98.039L794.122,85.259L795.651,67.811L797.435,85.513L799.699,121.344L800.615,131.486L801.371,130.44L802.023,136.142L802.714,144.308L803.426,127.079L804.399,128.708L805.21,114.952L806.067,123.739L806.958,134.313L807.859,134.502L808.751,117.747L809.725,120.019L810.676,127.085L811.74,116.715L812.728,133.323L813.64,133.189L814.528,112.21L815.421,120.927L816.357,130.954L817.329,109.857L818.253,143.116L818.901,168.546L819.528,150.608L820.084,149.842L820.564,148.134L821.076,132.055L821.853,106.996L822.814,114.694L823.846,102.32L824.869,119.719L826.035,113.98L827.272,110.077L828.553,114.318L829.599,98.755L830.669,112.111L831.743,105.617L832.946,84.07L834.21,113.556L835.256,125.926L836.267,125.336L837.124,121.527L837.894,143.546L838.608,135.589L839.31,137.588L839.97,143.214L840.547,136.271L841.123,141.519L841.736,135.198L842.461,121.719L843.387,128.309L844.194,131.762L845.081,136.205L845.758,143.345L846.346,140.844L846.95,150.881L847.403,152.497L847.852,137.548L848.552,140.741L849.282,140.187L849.916,130.373L850.57,145.394L851.104,154.663L851.632,139.223L852.285,136.943L852.967,127.582L853.657,139.024L854.305,138.148L854.968,137.765L855.627,167.295L856.345,146.227L856.893,137.03L857.572,147.603L858.204,130.744L858.853,142.2L859.58,119.586L860.566,121.724L861.45,147.091L862.099,136.282L862.8,130.627L863.581,129.629L864.381,120.65L865.162,134.708L865.86,153.835L866.266,157.61L866.736,141.315L867.245,153.424L867.668,148.467L868.3,168.446L869.049,178.753L869.07,179.692L869.329,177.428L869.636,179.466L869.843,179.484L869.862,177.15L869.911,175.815L869.966,178.016L869.998,179.463L870,179.513"/>
  <line class="mg-axis" x1="55" y1="180" x2="870" y2="180"/>
  <line class="mg-axis" x1="55.0" y1="180" x2="55.0" y2="184"/><text class="mg-label" x="55.0" y="196" text-anchor="middle" font-size="10">0</text>
  <line class="mg-axis" x1="233.5" y1="180" x2="233.5" y2="184"/><text class="mg-label" x="233.5" y="196" text-anchor="middle" font-size="10">20</text>
  <line class="mg-axis" x1="412.0" y1="180" x2="412.0" y2="184"/><text class="mg-label" x="412.0" y="196" text-anchor="middle" font-size="10">40</text>
  <line class="mg-axis" x1="590.5" y1="180" x2="590.5" y2="184"/><text class="mg-label" x="590.5" y="196" text-anchor="middle" font-size="10">60</text>
  <line class="mg-axis" x1="769.0" y1="180" x2="769.0" y2="184"/><text class="mg-label" x="769.0" y="196" text-anchor="middle" font-size="10">80</text>
  
    <text class="mg-label" x="47" y="47.6" text-anchor="end" font-size="10">90 mph</text>
    <text class="mg-label" x="47" y="184.0" text-anchor="end" font-size="10">0 mph</text>
  <circle class="mg-peak" cx="294.7" cy="43.6" r="3"/><text class="mg-peak-label" x="299.7" y="38.6" font-size="10">90 mph top</text>
  
  <text class="mg-muted-label" x="462.5" y="214" text-anchor="middle" font-size="10">kilometers</text>
</svg>