<?xml version="1.0" encoding="UTF-8"?>
<svg xmlns="http://www.w3.org/2000/svg" viewBox="0 0 404 700" preserveAspectRatio="xMidYMid meet">
  
  <style>
    :root {
      --fg: #111;
      --muted: #555;
      --frame: #111;
      --fill: #ddd;
      --peak: #c00;
      --trough: #2a7a2a;
      --accent-1: #7a4500;
      --accent-2: #c00;
      --accent-3: #3a3a9a;
    }
    .mg-bg { fill: none; }
    .mg-fg { fill: var(--fg); }
    .mg-muted { fill: var(--muted); }
    .mg-frame { fill: none; stroke: var(--frame); stroke-width: 0.5; }
    .mg-track { fill: none; stroke: var(--fg); stroke-width: 1.4; stroke-linejoin: round; stroke-linecap: round; }
    .mg-dot { fill: var(--fg); }
    .mg-area { fill: var(--fill); stroke: none; }
    .mg-line { fill: none; stroke: var(--fg); stroke-width: 1.2; }
    .mg-axis { stroke: var(--frame); stroke-width: 0.5; fill: none; }
    .mg-label { fill: var(--fg); font-family: Helvetica, Arial, sans-serif; }
    .mg-muted-label { fill: var(--muted); font-family: Helvetica, Arial, sans-serif; }
    .mg-peak { fill: var(--peak); }
    .mg-trough { fill: var(--trough); }
    .mg-peak-label { fill: var(--peak); font-family: Helvetica, Arial, sans-serif; font-weight: bold; }
    .mg-acc-1 { stroke: var(--accent-1); fill: none; }
    .mg-acc-1-label { fill: var(--accent-1); font-family: Helvetica, Arial, sans-serif; font-weight: bold; }
    .mg-acc-2 { stroke: var(--accent-2); fill: none; }
    .mg-acc-2-label { fill: var(--accent-2); font-family: Helvetica, Arial, sans-serif; font-weight: bold; }
    .mg-acc-3 { stroke: var(--accent-3); fill: none; }
    .mg-acc-3-label { fill: var(--accent-3); font-family: Helvetica, Arial, sans-serif; font-weight: bold; }
    .mg-start { fill: var(--trough); stroke: var(--frame); stroke-width: 0.5; }
    .mg-end { fill: var(--peak); stroke: var(--frame); stroke-width: 0.5; }
  </style>
  
    <text class="mg-label" x="30" y="28" font-size="16" font-weight="bold">Hudson Valley Loop · Sept 2021</text>
    <text class="mg-muted-label" x="30" y="46" font-size="11">91.3 km · 56.7 mi · 1h54 moving</text>
  <rect class="mg-frame" x="30" y="60" width="295.8" height="542.0"/>
  <path class="mg-track" d="M69.715,84.342L70.204,84.826L69.596,85.477L69.499,85.84L79.801,93.577L80.455,94.128L80.558,94.43L81.113,94.769L81.438,94.645L82.055,95.301L83.557,96.366L84.054,96.847L82.388,100.334L80.824,102.486L77.46,107.552L84.284,111.022L95.873,117.364L96.799,118.077L97.446,118.984L97.762,119.994L97.801,120.952L97.519,121.785L96.953,122.53L92.996,126.62L89.475,129.908L88.224,131.417L83.681,140.253L81.394,143.872L77.739,151.959L76.403,154.493L74.736,157.224L74.07,158.704L72.552,163.359L71.757,168.138L70.459,173.032L69.622,175.257L67.931,178.897L67.344,180.696L67.154,182.543L67.199,188.375L66.866,190.592L66.48,191.595L65.776,192.885L61.778,198.233L60.413,200.601L59.071,203.812L56.972,210.167L56.423,212.878L54.121,231.508L54,232.699L54.06,234.035L54.675,236.137L58.688,244.347L61.958,252.826L63.627,255.133L71.034,263.928L71.71,264.952L73.334,267.919L74.255,269.985L75.645,274.518L76.466,276.509L84.282,293.833L86.308,297.311L87.056,298.364L88.206,299.012L91.047,301.234L98.229,306.413L107.748,314.693L108.479,314.883L109.667,313.952L111.503,312.341L113.778,310.578L117.543,306.853L118.239,306.302L125.558,302.715L127.939,301.249L130.025,300.361L130.864,299.812L138.35,293.589L140.825,291.189L141.828,290.036L143.573,287.714L146.168,283.571L147.124,282.337L148.913,280.855L151.189,279.491L153.73,277.217L155.183,276.647L156.723,276.481L163.652,276.742L168.555,277.117L169.964,277.04L170.88,276.837L173.392,275.695L175.798,274.346L176.622,273.648L179.151,270.8L180.883,269.306L181.704,268.929L183.878,268.915L184.938,269.152L185.86,269.72L187.297,271.208L188.12,271.794L189.435,272.188L190.78,272.134L193.626,271.241L197.364,269.099L200.215,267.816L202.199,267.204L203.587,267.14L206.447,267.333L209.126,266.909L211.105,266.875L212.788,267.048L216.109,267.771L217.119,267.823L218.297,267.62L219.472,267.107L221.754,265.515L222.243,265.092L222.568,264.503L223.227,264.195L224.764,262.743L225.799,262L226.947,261.494L228.16,261.196L230.748,261.254L235.522,261.79L242.069,263.398L246.392,264.853L247.348,265.329L249.634,267.13L250.728,267.649L252.037,268.005L253.998,268.137L255.008,268.346L256.877,269.014L257.975,269.799L259.403,271.248L261.698,272.233L262.444,272.688L264.17,274.384L265.077,275.015L266.129,275.285L266.848,275.228L267.553,275.004L271.341,273.481L273.717,272.361L274.864,271.572L277.344,269.412L278.965,267.837L280.321,266.243L286.145,258.182L288.218,256.16L291.252,253.751L292.633,252.907L297.29,250.554L303.637,246.952L312.52,243.349L313.721,242.697L314.459,242.114L315.853,240.659L321.093,234.67L322.578,233.494L324.599,232.314L326.749,231.385L328.651,230.889L331.033,230.589L333.982,230.701L335.248,230.634L336.446,230.329L337.539,229.804L342.888,226.241L345.48,224.209L346.626,223.047L347.929,221.416L349.442,219.154L349.837,218.298L349.206,217.694L349.614,217.76L349.779,218.394L347.697,221.584L345.484,224.039L343.338,225.782L337.947,229.416L336.556,230.118L335.035,230.497L330.829,230.564L328.107,230.871L326.143,231.448L324.586,232.151L322.721,233.293L321.4,234.345L317.299,238.757L314.931,241.483L313.573,242.595L311.53,243.572L304.046,246.51L290.876,253.967L288.002,256.093L286.208,257.852L285.136,259.185L280.477,265.842L279.027,267.57L277.437,269.106L274.739,271.461L273.816,272.116L267.558,274.932L266.88,275.144L266.168,275.214L265.141,274.958L264.274,274.337L262.346,272.501L259.77,271.301L257.506,269.3L255.856,268.394L250.24,267.066L249.065,266.502L247.328,265.255L246.548,264.839L241.28,262.996L235.899,261.74L232.305,261.136L231.33,261.176L228.22,260.951L227.192,261.168L225.816,261.718L224.536,262.569L222.103,264.902L220.653,266.093L219.219,267.068L217.976,267.618L217.152,267.723L216.282,267.667L213.251,267.039L210.674,266.824L208.958,266.83L206.379,267.111L203.814,266.988L202.181,267.086L200.057,267.714L197.087,269.008L193.6,271.02L191.67,271.702L190.486,271.993L189.287,272.04L188.187,271.707L187.244,271.027L185.571,269.38L184.664,268.93L183.188,268.761L181.734,268.978L180.867,269.335L179.731,270.186L176.542,273.54L175.587,274.341L172.087,276.174L170.558,276.775L169.751,276.945L168.507,277.014L162.821,276.543L156.507,276.275L154.93,276.498L153.457,277.154L150.69,279.526L147.873,281.501L146.917,282.328L146.098,283.3L143.54,287.387L141.337,290.396L139.778,292.112L137.664,294.02L130.152,300.037L127.656,301.214L124.812,302.903L117.909,306.319L113.648,310.429L109.583,313.736L109.04,314.301L108.45,315.46L114.764,320.552L116.119,321.304L117.472,321.524L118.921,321.355L119.953,320.948L122.532,319.347L123.498,318.901L125.587,318.521L127.722,318.397L129.03,318.694L133.718,320.484L136.146,321.533L137.653,322.532L139.006,324.192L139.744,325.785L140.539,328.646L141.104,331.832L141.771,334.348L142.187,335.466L143.26,337.099L145.521,339.382L146.678,340.861L147.096,341.728L148.265,344.887L148.891,346.189L155.306,357.557L155.595,358.399L155.729,359.279L155.675,360.167L155.417,361.03L154.72,362.22L152.003,365.845L151.372,367.15L150.964,368.543L150.809,369.98L150.543,377.204L149.527,381.375L149.338,382.816L149.182,386.597L148.93,388.69L148.515,391.021L147.568,395.009L147.534,396.399L147.948,400.929L147.758,403.206L147.19,405.423L146.568,407.075L143.167,413.684L143.771,413.723L143.633,413.571L143.185,413.547L142.697,414.368L140.295,416.715L139.191,417.438L137.115,418.437L136.095,419.268L134.89,420.724L130.563,426.853L129.637,429.262L129.171,432.615L128.692,434.274L126.664,437.89L124.709,440.248L123.815,441.852L121.244,450.312L119.658,454.125L114.115,469.012L113.71,470.476L112.959,474.477L112.094,477.885L111.78,479.619L111.562,482.634L111.464,486.867L110.643,492.124L110.087,500.639L109.305,503.559L108.285,508.997L107.586,511.701L106.996,513.422L105.838,515.692L104.019,518.129L102.986,519.774L101.817,522.451L101.347,523.809L101.197,525.367L101.177,530.373L100.992,532.383L99.791,540.012L99.555,541.042L98.872,542.756L97.841,544.277L97.092,545.003L96.236,545.629L90.94,548.188L88.37,549.674L87.229,550.522L85.951,551.812L83.701,554.552L80.209,558.065L76.453,560.927L73.019,564.034L70.973,565.575L65.578,570.555L63.181,573.533L60.981,575.531L59.863,576.338L59.43,577.325L59.898,577.914L61.8,581.567L66.353,587.85L67.261,589.358L68.777,590.525L70.511,591.338L71.048,591.755L72.15,593.435L74.258,596.172L75.497,597.441L76.396,597.79L76.717,598.03L76.995,598.054L77.268,597.907L77.48,597.626L77.522,597.199L78.561,595.314L79.165,594.739L79.717,594.606L80.591,594.824L82.778,596.045L84.012,596.599L84.794,596.623L86.41,595.999L86.97,596.092L87.468,596.442L87.835,597.211L87.682,598.045L87.058,598.921L83.857,602.606L83.281,603.707L82.982,604.908L83.099,606.108L84.14,608.416L84.849,610.649L85.514,611.662L86.082,612.227L87.091,612.711L89.386,612.807L89.99,612.97L90.447,613.393L91.39,615.263L92.761,616.892L93.249,617.253L94.597,617.755L95.91,618.732L96.527,618.987L97.668,619.108L99.313,618.883L101.152,619.039L102.491,618.906L105.075,618.263L105.662,618.017L106.803,617.274L107.554,617.089L108.04,617.11L108.48,617.319L109.61,618.31L110.011,618.524L110.584,618.672L112.101,618.802L112.562,619.113L112.947,619.949L113.625,624.099L114.053,624.942L114.792,625.96L114.631,625.494L113.986,624.454L113.685,623.614L113.02,619.765L112.544,618.97L112.058,618.673L110.045,618.392L108.445,617.154L107.493,616.918L106.844,617.065L105.118,618.059L102.021,618.921L101.096,618.965L99.821,618.73L97.601,619.037L96.718,618.927L95.923,618.579L94.709,617.661L93.117,616.976L91.474,615.081L91.11,614.534L90.573,613.321L90.149,612.926L89.349,612.69L87.118,612.607L86.244,612.18L85.499,611.384L85.012,610.59L84.397,608.56L83.354,606.396L83.129,605.617L83.087,604.975L83.321,603.874L83.874,602.846L86.354,600.033L87.639,598.331L87.918,597.49L87.748,596.622L87.224,596.08L86.522,595.892L84.656,596.483L84.015,596.418L80.336,594.495L79.756,594.373L79.186,594.501L78.472,595.121L77.531,596.925L76.601,597.761L76.912,597.616L77.65,596.949L78.724,595.245L79.119,594.917L79.754,594.715L80.929,595.025L83.504,596.35L84.245,596.621L84.963,596.6L85.978,596.158L86.627,596.014L87.26,596.219L87.712,596.754L87.855,597.434L87.639,598.117L86.384,599.752L83.999,602.409L83.365,603.449L82.945,604.743L82.952,605.816L83.125,606.347L84.074,608.321L84.917,610.804L85.803,612.011L86.244,612.376L86.926,612.7L87.972,612.824L89.404,612.816L90.206,613.077L90.448,613.332L91.068,614.83L91.879,615.911L92.814,616.889L93.434,617.319L94.661,617.794L96.069,618.817L96.841,619.07L97.978,619.154L99.791,618.937L101.167,619.101L102.027,619.049L105.106,618.22L106.891,617.236L107.731,617.086L108.6,617.369L109.993,618.539L110.636,618.667L111.611,618.66L112.18,618.802L112.662,619.19L113.007,619.888L113.319,621.37L113.627,623.806L114.238,625.14L114.802,626L115.032,625.891L114.158,624.719L113.701,623.716L113.458,621.544L113.066,619.371L112.716,618.784L112.42,618.592L112.045,618.48L110.318,618.391L109.674,618.023L108.507,617.041L107.714,616.833L106.699,617.1L105.101,618.012L102.249,618.757L101.164,618.877L99.434,618.727L97.843,618.988L96.964,618.927L96.108,618.627L94.748,617.658L93.01,616.829L91.538,615.224L91.16,614.625L90.589,613.286L90.137,612.867L89.422,612.691L87.277,612.667L86.695,612.487L86.16,612.141L85.47,611.378L84.928,610.532L84.309,608.5L83.178,606.042L83.076,604.941L83.349,603.861L84.178,602.332L86.885,599.347L87.745,598.181L87.981,597.533L87.98,597.19L87.721,596.507L87.168,595.997L86.819,595.874L86.04,595.961L84.875,596.39L84.073,596.348L80.495,594.608L79.79,594.426L79.127,594.604L78.83,594.857L77.506,596.998L77.174,597.332L76.717,597.58L76.591,597.785L77.472,597.66L76.989,597.432L76.161,597.522L75.363,597.127L72.483,593.561L71.198,591.588L70.705,591.188L68.84,590.363L67.409,589.095L66.7,587.941L62.147,581.718L60.417,578.576L59.761,576.835L59.933,576.526L61.107,575.673L62.41,574.463L66.317,570.089L70.775,565.979L72.902,564.382L76.235,561.272L79.919,558.718L81.361,557.482L84.354,554.354L86.193,551.865L87.385,550.597L88.75,549.531L91.532,547.744L93.744,546.677L95.039,546.305L96.41,545.594L98.038,544.251L98.683,543.411L99.183,542.502L99.79,540.467L101.098,532.412L101.29,529.703L101.307,525.096L101.495,523.685L103.107,519.798L103.954,518.455L106.162,515.5L107.027,513.698L107.65,511.781L108.751,507.343L109.409,503.806L110.258,500.856L110.391,499.413L110.494,494.024L110.775,491.571L111.502,487.023L111.795,479.661L112.014,478.359L112.9,475.086L114.157,469.235L119.136,455.721L121.195,450.838L123.259,443.856L123.973,441.769L124.868,440.247L126.855,437.81L128.301,435.215L128.964,433.758L129.313,432.595L129.704,429.549L130.45,427.413L131.374,425.911L136.101,419.415L137.418,418.375L139.531,417.278L140.497,416.633L142.541,414.705L143.057,414.09L144.715,411.182L147.029,406.233L147.727,403.858L148.053,401.416L147.993,399.911L147.588,396.608L147.584,395.008L148.859,389.766L149.385,385.64L149.585,381.639L150.663,377.064L150.842,374.803L150.942,370.49L151.19,368.292L151.544,367.083L152.277,365.655L153.327,364.12L154.623,362.622L155.34,361.543L155.728,360.38L155.769,359.143L155.536,357.917L155.015,356.757L154.189,355.163L151.006,349.712L148.594,345.207L147.877,343.708L146.72,340.746L145.927,339.694L143.341,336.831L142.349,335.321L141.796,333.921L140.286,327.187L139.813,325.542L139.14,324.111L137.897,322.603L136.796,321.739L135.673,321.132L129.266,318.538L127.715,318.196L126.394,318.228L123.87,318.547L123.27,318.477L122.819,319.028L119.853,320.839L118.675,321.291L117.712,321.393L116.885,321.342L115.538,320.876L114.306,320.088L109.353,315.954L102.852,310.114L98.267,306.156L89.09,299.604L87.554,298.347L86.777,297.565L85.732,296.04L84,292.895L78.504,280.986L75.851,274.916L74.713,270.686L73.126,266.975L71.64,264.439L70.99,263.543L61.973,252.91L60.866,249.384L59.161,244.841L54.519,235.133L54.232,233.911L54.168,232.891L54.486,229.05L55.031,224.446L56.923,211.383L58.831,204.978L59.876,202.27L61.78,198.853L65.996,192.866L66.908,190.969L67.175,189.986L67.342,188.637L67.308,182.463L67.537,180.523L68.039,179.034L69.688,175.678L70.585,173.293L72.17,167.294L72.417,164.901L72.668,163.637L74.36,158.34L74.952,157.126L77.169,153.351L81.848,143.582L84.721,138.698L88.168,131.652L89.276,130.201L91.145,128.634L93.439,126.497L97.034,122.73L97.808,121.699L98.037,120.998L97.969,119.994L97.668,118.982L97.052,118.07L96.336,117.481L87.51,112.499L83.502,110.357L77.633,107.447L75.278,106.804L74.051,105.593L73.073,104.936L71.671,104.432L65.878,103.463L64.996,103.508L63.866,103.928L62.871,104.154L61.745,104.114L60.976,103.835L60.213,103.357L58.029,101.565L57.223,100.746L56.737,99.975L56.385,99.034L56.286,97.434L56.994,93.319L57.277,92.516L57.729,91.755L62.71,86.128L63.271,85.359L63.883,84.199L64.936,84L66.918,84.189L67.586,84.485L69.256,85.628L69.86,85.477L69.989,85.321L69.685,84.432L69.878,84.477L69.636,84.863L69.492,84.729L69.529,84.537L69.788,84.635L69.861,84.565L69.93,84.674L69.96,84.422L69.729,84.379L69.55,84.601"/>
  <polygon class="mg-start" points="69.7,79.3 65.2,87.3 74.2,87.3"/>
  <circle class="mg-dot" cx="79.4" cy="93.1" r="2"/><text class="mg-label" x="84.4" y="89.1" font-size="10">Beacon</text>
  <circle class="mg-dot" cx="61.3" cy="172.4" r="2"/><text class="mg-label" x="66.3" y="168.4" font-size="10">Dutchess Junction</text>
  <circle class="mg-dot" cx="108.6" cy="314.9" r="2"/><text class="mg-label" x="113.6" y="310.9" font-size="10">Cold Spring</text>
  <circle class="mg-dot" cx="278.1" cy="298.2" r="2"/><text class="mg-label" x="283.1" y="294.2" font-size="10">Dennytown</text>
  <circle class="mg-dot" cx="85.6" cy="447.9" r="2"/><text class="mg-label" x="90.6" y="443.9" font-size="10">Highland Falls</text>
  <circle class="mg-dot" cx="90.4" cy="542.4" r="2"/><text class="mg-label" x="95.4" y="538.4" font-size="10">Manitou</text>
  <circle class="mg-dot" cx="157.6" cy="450.8" r="2"/><text class="mg-label" x="162.6" y="446.8" font-size="10">Forsonville</text>
  <circle class="mg-dot" cx="126.0" cy="409.4" r="2"/><text class="mg-label" x="131.0" y="405.4" font-size="10">Garrison</text>
  <circle class="mg-dot" cx="191.4" cy="415.9" r="2"/><text class="mg-label" x="196.4" y="411.9" font-size="10">South Highland</text>
  <circle class="mg-dot" cx="190.9" cy="334.5" r="2"/><text class="mg-label" x="195.9" y="330.5" font-size="10">Nelson Corners</text>
  <circle class="mg-acc-1" cx="312.4" cy="243.2" r="3.5" stroke-width="1.5"/><text class="mg-acc-1-label" x="304.4" y="235.2" text-anchor="end" font-size="10">peak 353m</text>
  <circle class="mg-acc-2" cx="301.2" cy="248.1" r="3.5" stroke-width="1.5"/><text class="mg-acc-2-label" x="293.2" y="262.1" text-anchor="end" font-size="10">top speed 90 mph</text>
  <circle class="mg-acc-3" cx="77.7" cy="107.6" r="3.5" stroke-width="1.5"/><text class="mg-acc-3-label" x="85.7" y="99.6" text-anchor="start" font-size="10">0.92G @ 32.2mph</text>
  
    <line class="mg-axis" x1="30.0" y1="675" x2="77.0" y2="675" stroke-width="1.5"/>
    <line class="mg-axis" x1="30.0" y1="671" x2="30.0" y2="679" stroke-width="1.5"/>
    <line class="mg-axis" x1="77.0" y1="671" x2="77.0" y2="679" stroke-width="1.5"/>
    <text class="mg-label" x="53.5" y="668" text-anchor="middle" font-size="10">2 km</text>
  <text class="mg-muted-label" x="373.8370249622148" y="682" text-anchor="end" font-size="9">moto-gpx · lambert conformal conic · parallels 41.3°/41.5°</text>
</svg>