<?xml version="1.0" encoding="UTF-8"?>
<svg xmlns="http://www.w3.org/2000/svg" viewBox="0 0 900 220" preserveAspectRatio="xMidYMid meet">
  
  <style>
    :root {
      --fg: #e8e6e3;
      --muted: #9aa0a6;
      --frame: #8a8a8a;
      --fill: #2b2b2b;
      --peak: #ff6b6b;
      --trough: #6bd16b;
      --accent-1: #ffb870;
      --accent-2: #ff6b6b;
      --accent-3: #8aa8ff;
    }
    .mg-bg { fill: none; }
    .mg-fg { fill: var(--fg); }
    .mg-muted { fill: var(--muted); }
    .mg-frame { fill: none; stroke: var(--frame); stroke-width: 0.5; }
    .mg-track { fill: none; stroke: var(--fg); stroke-width: 1.4; stroke-linejoin: round; stroke-linecap: round; }
    .mg-dot { fill: var(--fg); }
    .mg-area { fill: var(--fill); stroke: none; }
    .mg-line { fill: none; stroke: var(--fg); stroke-width: 1.2; }
    .mg-axis { stroke: var(--frame); stroke-width: 0.5; fill: none; }
    .mg-label { fill: var(--fg); font-family: Helvetica, Arial, sans-serif; }
    .mg-muted-label { fill: var(--muted); font-family: Helvetica, Arial, sans-serif; }
    .mg-peak { fill: var(--peak); }
    .mg-trough { fill: var(--trough); }
    .mg-peak-label { fill: var(--peak); font-family: Helvetica, Arial, sans-serif; font-weight: bold; }
    .mg-acc-1 { stroke: var(--accent-1); fill: none; }
    .mg-acc-1-label { fill: var(--accent-1); font-family: Helvetica, Arial, sans-serif; font-weight: bold; }
    .mg-acc-2 { stroke: var(--accent-2); fill: none; }
    .mg-acc-2-label { fill: var(--accent-2); font-family: Helvetica, Arial, sans-serif; font-weight: bold; }
    .mg-acc-3 { stroke: var(--accent-3); fill: none; }
    .mg-acc-3-label { fill: var(--accent-3); font-family: Helvetica, Arial, sans-serif; font-weight: bold; }
    .mg-start { fill: var(--trough); stroke: var(--frame); stroke-width: 0.5; }
    .mg-end { fill: var(--peak); stroke: var(--frame); stroke-width: 0.5; }
  </style>
  <text class="mg-label" x="55" y="20" font-size="13" font-weight="bold">elevation profile</text>
  <path class="mg-area" d="M55,160.748L55.084,160.709L55.41,160.208L55.776,161.152L56.149,161.188L56.431,161.28L56.712,161.722L56.983,161.748L57.273,161.495L57.564,161.812L57.856,161.562L58.342,162.207L58.791,162.389L59.235,162.459L59.676,162.686L59.93,162.619L60.16,162.518L60.544,162.566L60.906,161.846L61.32,162.462L61.357,162.493L61.632,162.644L61.836,162.62L62.164,162.243L62.441,162.452L62.771,162.194L63.114,161.99L63.784,162.656L64.519,162.799L65.277,162.005L65.983,161.682L66.546,161.274L67.005,160.711L67.668,159.921L68.311,160.199L69.031,161.472L69.583,162.878L70.49,166.246L71.219,166.732L72.151,165.089L73.144,164.64L74.02,164.436L74.908,163.118L75.798,160.521L76.641,157.623L77.36,156.625L78.078,156.918L78.859,156.813L79.695,157.262L80.589,158.082L81.506,158.879L82.416,159.38L83.287,159.09L84.16,158.01L85.033,157.906L86.025,158.374L86.939,158.436L87.732,158.147L88.369,157.178L88.932,156.72L89.53,156.082L90.356,156.247L91.322,157.311L92.409,158.132L93.623,159.103L94.542,159.611L95.477,159.162L96.4,159.377L97.319,159.716L98.248,159.993L99.223,159.727L100.16,158.386L101.049,157.726L101.95,157.339L102.999,156.289L104.053,155.479L105.176,155.157L106.345,156.437L107.558,156.877L108.554,157.193L109.575,157.287L110.615,157.26L111.646,156.96L112.627,157.292L113.645,158.163L114.639,159.412L115.696,160.559L116.726,161.565L117.716,162.99L118.55,165.341L119.406,167.309L120.285,170.065L121.186,172.802L122.099,175.245L123.021,176.443L123.929,176.916L124.683,178.678L125.319,179.812L125.779,180.232L126.219,180.213L126.68,180.18L127.239,179.696L127.851,179.714L128.422,179.839L128.944,179.9L129.493,179.684L130.087,179.403L130.698,178.84L131.302,178.3L131.915,177.157L132.862,175.88L133.631,176.547L135.985,178.045L136.876,179.254L137.804,179.749L138.712,179.532L139.781,179.353L141.002,179.029L142.148,178.278L143.342,178.658L144.523,179.801L145.861,180.225L146.92,180.598L147.946,180.719L148.949,180.409L149.924,180.086L150.857,179.461L151.544,179.307L151.942,178.834L152.682,178.417L153.21,178.697L153.937,177.913L154.673,175.869L155.476,173.48L156.214,171.26L156.937,168.965L157.699,167.272L158.408,167.097L159.115,167.114L159.832,167.459L160.533,167.329L161.202,167.162L161.726,167.877L162.33,167.732L162.818,165.993L163.301,164.241L163.833,162.502L164.325,161.088L164.95,159.199L165.594,157.153L166.262,154.985L166.96,154.838L167.722,156.33L168.539,156.656L169.218,157.309L170.044,157.876L170.743,157.498L171.459,158.644L172.199,159.122L172.969,159.404L173.803,159.578L174.561,159.898L175.333,160.451L176.454,158.509L177.431,156.019L178.304,153.667L179.133,152.546L179.951,149.821L180.82,146.895L181.71,143.624L182.593,141.02L183.453,138.693L184.317,136.79L185.195,134.044L186.079,132.39L186.968,131.857L187.882,131.453L188.888,130.86L190.009,130.476L191.111,129.464L192.175,129.583L193.238,128.903L194.303,127.316L195.269,127.499L196.065,128.308L196.63,128.781L197.333,127.821L198.159,129.282L198.83,129.159L199.583,127.811L200.36,126.92L201.114,126.463L202.467,124.948L203.394,125.294L204.313,123.783L205.101,122.635L205.892,121.935L206.709,121.497L207.57,120.003L208.48,119.244L209.439,118.831L210.405,118.09L211.398,116.962L213.039,115.792L213.718,115.91L214.52,114.431L215.246,112.566L216.071,109.979L216.804,108.459L217.716,108.209L218.506,107.846L219.278,106.098L220.093,102.849L220.911,100.201L221.726,98.785L222.52,97.652L223.32,97.548L224.144,96.868L225.02,94.132L226.008,91.699L226.922,92.948L227.669,93.027L228.364,93.286L228.914,92.983L229.832,90.64L230.768,86.581L231.611,83.503L232.445,80.611L233.25,77.818L234.256,73.779L235.113,71.186L235.925,69.967L236.769,68.78L237.633,68.456L238.616,67.448L239.634,66.598L240.616,64.999L241.586,63.85L242.509,63.078L243.48,61.498L244.46,59.641L245.375,59.296L246.166,57.954L247.032,55.91L248.331,52.196L249.983,49.564L251.452,46.755L252.353,45.361L253.146,44.196L253.85,44.436L254.676,45.264L255.368,46.663L255.843,47.737L256.655,48.214L257.438,50.673L258.28,53.749L259.148,56.972L260.035,59.671L260.927,60.821L261.822,61.133L262.75,62.076L263.715,64.485L264.659,67.737L265.574,70.807L266.429,72.191L267.263,72.89L268.101,73.097L268.999,73.047L269.912,72.77L270.86,72.533L271.458,72.885L271.802,72.252L271.814,72.429L271.824,72.173L271.832,72.649L271.848,72.769L271.899,72.521L272.222,73.011L272.729,72.785L273.441,73.114L274.345,73.021L275.347,73.204L276.323,73.533L277.255,73.043L278.187,71.249L279.078,68.441L279.969,65.527L280.838,63.054L281.71,61.859L282.619,61.765L283.57,60.758L284.567,57.726L285.529,54.318L286.517,51.124L287.493,48.32L288.526,45.93L289.531,44.019L290.572,43.894L291.675,45.524L292.821,48.642L294.14,51.052L295.834,52.551L297.921,57.13L299.599,60.532L300.724,63.311L301.96,64.105L303.012,66L303.899,67.755L304.737,68.371L305.74,68.663L306.755,69.376L307.711,70.277L308.564,71.621L309.453,74.016L310.341,77.084L311.178,80.213L311.99,83.483L312.803,87.271L313.675,91.253L314.607,92.876L315.478,93.167L316.336,93.289L317.205,92.318L318.305,93.964L319.307,97.026L320.283,97.445L321.31,98.686L322.259,100.807L323.176,102.893L324.061,106.126L325.246,109.113L325.988,111.217L326.618,107.929L327.354,108.677L328.144,111.178L328.999,112.756L330.056,113.861L331.144,115.2L332.169,116.794L333.134,118.159L334.14,119.365L335.121,120.357L336.104,121.652L337.082,122.585L338.047,122.616L339.042,123.803L339.965,124.758L340.87,125.537L341.798,125.942L342.729,126.303L343.648,127.106L344.529,128.552L345.421,129.888L346.15,129.48L346.819,128.854L347.544,128.032L348.465,127.411L349.426,127.773L350.376,129.295L351.401,130.292L352.337,130.362L353.364,131.217L354.407,131.798L355.452,132.374L356.427,132.641L357.377,132.973L358.289,134.495L359.205,137.385L360.133,139.509L361.112,141.644L362.24,145.079L363.211,148.431L364.23,151.564L365.199,153.27L366.089,155.63L366.938,158.666L367.737,160.617L368.49,160.534L369.197,160.229L369.911,160.306L370.723,160.279L371.504,160.168L372.304,159.255L373.002,158.314L373.672,158.647L374.342,157.915L375.038,157.136L375.763,157.025L376.482,155.38L377.208,155.653L377.907,157.792L378.608,159.95L379.344,161.661L380.042,163.514L380.634,165.893L381.51,168.527L382.104,167.452L382.698,167.485L383.165,167.645L383.708,167.592L384.356,167.638L385.058,167.791L385.837,167.362L386.677,166.341L387.543,165.235L388.363,164.422L389.174,162.516L389.984,160.374L390.733,159.694L391.54,159.411L392.421,159.34L393.436,159.25L394.44,159.595L395.438,160.012L396.564,160.613L397.516,161.799L398.146,161.75L398.931,160.423L399.83,159.235L400.718,159.298L401.728,158.623L402.828,155.503L403.915,154.065L404.987,153.904L406.028,151.702L407.046,150.267L408.04,150.384L409.054,150.721L410.068,150.965L411.11,151.461L412.283,154.429L413.387,156.386L414.487,156.107L415.595,157.165L416.693,157.552L417.766,156.92L418.86,155.636L419.955,155.497L421.014,156.765L422.184,159.132L423.23,160.085L424.269,160.477L425.308,158.394L426.345,158.157L427.387,159.058L428.412,158.761L429.392,157.838L430.4,158.788L431.193,160.031L431.507,159.127L432.078,157.992L432.726,157.669L433.525,158.698L434.292,160.989L435.23,161.949L436.308,162.054L437.423,162.241L438.46,162.175L439.194,162.884L439.946,163.112L440.911,163.31L441.887,163.642L442.94,164.287L443.964,164.696L444.966,165.014L446.063,164.929L447.191,165.219L448.311,165.347L449.44,166.97L450.617,166.022L451.718,164.193L452.798,163.924L453.94,163.653L455.086,163.311L456.27,163.145L457.439,163.372L458.581,162.854L459.724,162.522L461.324,163.145L462.555,163.831L463.926,163.812L465.165,164.754L466.416,164.46L467.618,163.778L468.786,163.241L469.924,161.763L471.067,161.152L472.254,162.467L473.605,162.783L474.757,162.812L475.894,164.647L476.999,164.617L478.105,164.944L479.286,163.508L480.407,161.206L481.556,160.941L482.73,161.694L483.905,162.517L485.205,161.114L486.5,160.206L487.696,160.009L488.935,159.158L490.061,156.128L491.119,153.551L492.135,151.564L493.164,151.072L494.31,151.502L495.546,152.845L496.685,154.133L497.754,155.774L498.703,156.168L499.793,156.333L500.858,157.644L501.687,157.91L502.416,158.597L502.97,160.103L503.59,160.884L504.209,161.148L504.724,160.989L505.449,161.156L506.021,160.123L506.79,158.981L507.616,156.42L508.466,153.619L509.224,150.994L509.996,148.475L510.796,145.859L511.676,143.324L512.511,140.894L513.274,137.981L514.014,135.536L514.823,133.079L515.436,131.516L515.757,133.244L515.793,132.699L515.99,132.693L516.187,133.402L516.695,135.577L517.456,136.911L518.14,136.007L518.968,138.1L519.68,139.085L520.335,140.537L521.004,141.537L521.667,141.709L522.62,142.145L523.643,142.32L524.592,142.804L525.521,143.39L526.48,144.284L527.364,145.589L528.253,146.594L529.126,148.995L529.865,150.439L530.669,149.43L531.437,148.681L532.106,147.883L532.859,148.966L533.772,150.481L534.628,150.383L535.435,150.602L536.272,151.592L537.024,153.543L538.021,155.663L538.777,157.63L539.446,159.658L540.235,161.002L541.038,160.974L541.755,161.758L542.146,162.186L542.938,160.573L544.134,159.576L544.955,160.251L545.601,158.461L546.363,156.319L547.221,154.02L548.106,150.962L548.983,150.492L549.678,150.186L550.487,150.272L551.527,149.313L552.386,149.418L553.018,150.3L553.395,150.207L553.805,150.196L554.465,150.041L555.315,147.338L556.236,146.51L557.164,145.309L558.134,143.392L559.191,142.985L559.988,142.478L561.044,142.087L561.995,141.433L562.878,140.775L563.783,140.374L564.655,139.385L565.347,138.472L566.019,136.467L566.688,136.29L567.162,136.173L567.548,135.454L568.139,133.896L568.549,133.742L569.558,135.432L570.43,135.12L571.703,137.046L572.561,138.826L573.473,140.862L574.364,140.827L575.924,141.932L576.865,142.979L578.315,144.405L579.824,146.414L580.807,147.764L581.918,150.948L583.418,149.866L584.196,149.725L584.964,149.91L585.883,152.02L586.959,151.435L587.808,151.942L588.639,152.295L589.311,153.928L589.967,155.136L590.787,156.975L591.52,159.301L592.341,160.506L593.51,161.064L594.34,162.302L594.766,162.481L595.812,161.1L596.42,161.653L597.094,161.357L597.906,159.216L598.847,156.561L599.643,154.592L600.25,153.489L600.969,151.979L601.819,151.234L602.642,150.589L603.489,150.566L604.497,148.842L605.333,149.709L606.131,150.052L606.934,150.628L607.711,149.178L608.559,146.953L609.276,146.131L610.042,144.641L610.932,142.341L611.898,141.344L612.818,140.921L613.694,140.96L614.528,140.808L615.343,140.141L616.159,140.51L617.063,138.178L618.096,136.426L619.175,134.448L620.071,133.436L620.855,132.709L621.217,133.676L621.92,133.774L622.721,135.152L623.681,137.43L624.614,140.111L625.349,142.095L626.128,144.848L626.854,147.638L627.66,149.693L628.506,152.396L629.215,154.481L629.727,155.941L630.11,156.684L631.32,157.301L631.571,157.249L631.837,157.508L632.192,158.28L632.555,159.479L634.386,156.343L635.977,157.79L636.774,157.498L637.363,156.939L638.036,156.214L638.621,155.732L639.25,155.155L639.886,154.042L640.575,153.011L641.524,151.779L642.57,150.52L643.656,148.951L644.755,148.331L646.392,150.375L647.623,153.889L649.825,156.62L651.312,157.526L652.504,158.805L653.755,160.376L654.988,159.533L656.213,158.857L657.443,160.12L658.617,163.077L659.709,163.274L660.771,162.947L661.951,162.007L663.132,160.127L664.274,161.119L665.623,159.825L666.781,159.449L667.95,160.93L669.247,162.418L670.554,162.543L671.708,163.874L672.825,163.091L673.879,162.617L674.826,162.887L675.761,162.511L676.687,162.003L677.673,161.447L678.783,161.448L679.927,161.55L681.053,161.662L682.385,161.273L683.533,161.756L684.711,162.657L686.018,163.547L687.34,166.28L688.708,164.687L689.978,164.145L691.098,163.846L692.298,164.041L693.353,164.18L694.325,164.061L695.425,163.752L696.347,163.098L697.354,163.024L698.385,161.529L699.358,161.282L700.305,161.433L701.285,161.017L702.252,161.368L703.183,159.93L704.065,158.575L704.981,158.265L705.912,158.56L706.886,157.826L707.92,157.69L708.995,158.242L710.13,157.201L711.263,156.772L712.339,159.194L713.56,159.273L714.633,157.995L715.689,156.787L716.75,155.432L717.774,156.065L718.749,156.705L719.878,156.845L720.879,156.95L721.733,156.074L722.715,155.68L723.693,155.548L724.591,153.992L725.394,151.883L726.131,150.205L726.835,149.658L727.548,149.145L728.28,148.794L729.097,148.578L729.919,148.55L730.702,149.527L731.546,152.1L732.367,153.752L733.161,153.572L734.122,154.788L735,158.587L735.993,160.229L736.832,160.522L737.65,161.358L738.504,161.32L739.309,161.245L740.019,160.999L740.723,159.911L741.49,159.027L742.396,158.419L743.238,158.987L743.972,159.384L744.651,159.659L745.308,159.738L746.001,159.532L746.709,160.408L747.454,161.833L748.237,163.826L748.776,164.596L749.373,165.274L749.841,165.859L750.366,166.705L750.943,167.438L751.422,168.132L751.727,168.104L752.021,167.943L752.402,167.892L752.83,168.134L753.376,167.805L753.653,167.625L754.773,166.715L755.075,167.256L756.057,167.402L756.672,166.946L757.243,167.619L757.909,167.365L758.629,166.602L759.341,166.489L760.109,167.083L760.976,169.171L761.842,171.733L762.737,174.796L763.644,177.522L764.503,179.14L765.429,178.408L766.275,178.619L767.128,179.277L768.202,178.841L769.893,178.156L771.904,177.32L773.848,177.654L775.238,178.456L776.113,179.385L776.95,180.729L777.76,180.778L778.603,180.841L779.444,180.552L780.281,179.635L781.127,178.9L781.987,178.461L782.855,177.818L783.803,177.483L786.296,177.27L787.248,179.933L788.065,180.527L788.954,180.217L789.744,179.87L790.523,179.812L791.394,179.712L792.211,179.485L793.037,178.314L794.116,175.769L795.645,173.409L797.429,168.269L799.694,164.128L800.609,163.104L801.365,162.544L802.018,161.553L802.709,160.559L803.42,159.116L804.393,157.427L805.204,157.132L806.061,157.056L806.952,157.477L807.854,157.591L808.745,157.32L809.719,157.385L810.67,157.428L811.734,157.46L812.722,156.272L813.634,156.467L814.522,157.595L815.415,158.753L816.351,158.422L817.323,158.473L818.247,159.529L818.895,160.68L819.522,159.779L820.078,159.747L820.558,159.591L821.07,159.291L821.847,158.759L822.808,158.435L823.84,158.929L824.863,158.46L826.029,157.531L827.266,156.73L828.547,156.259L829.593,156.642L830.663,157.873L831.737,158.04L832.94,157.7L834.203,159.367L835.25,160.46L836.26,159.469L837.117,158.919L837.888,158.456L838.602,157.99L839.304,157.841L839.963,157.344L840.541,157.053L841.117,157.963L841.729,159.596L842.454,162.579L843.38,164.12L844.188,164.324L845.075,164.659L845.752,165.358L846.34,166.258L846.944,166.49L847.397,166.086L847.846,165.037L848.546,163.748L849.275,162.746L849.91,161.46L850.563,160.883L851.098,161.152L851.626,161.832L852.278,161.351L852.96,160.99L853.651,161.131L854.298,161.21L854.962,162.582L855.621,164.318L856.339,166.396L856.887,168.172L857.565,169.589L858.198,170.052L858.847,170.401L859.574,169.09L860.56,167.053L861.443,167.431L862.093,167.08L862.793,165.199L863.575,163.659L864.374,163.751L865.156,164.589L865.854,163.846L866.26,163.695L866.729,162.887L867.239,162.534L867.661,162.272L868.294,162.133L869.042,160.614L869.064,160.964L869.323,163.739L869.629,162.231L869.836,161.193L869.855,160.874L869.904,160.931L869.959,160.709L869.992,160.402L870,160.583L870,180L869.992,180L869.959,180L869.904,180L869.855,180L869.836,180L869.629,180L869.323,180L869.064,180L869.042,180L868.294,180L867.661,180L867.239,180L866.729,180L866.26,180L865.854,180L865.156,180L864.374,180L863.575,180L862.793,180L862.093,180L861.443,180L860.56,180L859.574,180L858.847,180L858.198,180L857.565,180L856.887,180L856.339,180L855.621,180L854.962,180L854.298,180L853.651,180L852.96,180L852.278,180L851.626,180L851.098,180L850.563,180L849.91,180L849.275,180L848.546,180L847.846,180L847.397,180L846.944,180L846.34,180L845.752,180L845.075,180L844.188,180L843.38,180L842.454,180L841.729,180L841.117,180L840.541,180L839.963,180L839.304,180L838.602,180L837.888,180L837.117,180L836.26,180L835.25,180L834.203,180L832.94,180L831.737,180L830.663,180L829.593,180L828.547,180L827.266,180L826.029,180L824.863,180L823.84,180L822.808,180L821.847,180L821.07,180L820.558,180L820.078,180L819.522,180L818.895,180L818.247,180L817.323,180L816.351,180L815.415,180L814.522,180L813.634,180L812.722,180L811.734,180L810.67,180L809.719,180L808.745,180L807.854,180L806.952,180L806.061,180L805.204,180L804.393,180L803.42,180L802.709,180L802.018,180L801.365,180L800.609,180L799.694,180L797.429,180L795.645,180L794.116,180L793.037,180L792.211,180L791.394,180L790.523,180L789.744,180L788.954,180L788.065,180L787.248,180L786.296,180L783.803,180L782.855,180L781.987,180L781.127,180L780.281,180L779.444,180L778.603,180L777.76,180L776.95,180L776.113,180L775.238,180L773.848,180L771.904,180L769.893,180L768.202,180L767.128,180L766.275,180L765.429,180L764.503,180L763.644,180L762.737,180L761.842,180L760.976,180L760.109,180L759.341,180L758.629,180L757.909,180L757.243,180L756.672,180L756.057,180L755.075,180L754.773,180L753.653,180L753.376,180L752.83,180L752.402,180L752.021,180L751.727,180L751.422,180L750.943,180L750.366,180L749.841,180L749.373,180L748.776,180L748.237,180L747.454,180L746.709,180L746.001,180L745.308,180L744.651,180L743.972,180L743.238,180L742.396,180L741.49,180L740.723,180L740.019,180L739.309,180L738.504,180L737.65,180L736.832,180L735.993,180L735,180L734.122,180L733.161,180L732.367,180L731.546,180L730.702,180L729.919,180L729.097,180L728.28,180L727.548,180L726.835,180L726.131,180L725.394,180L724.591,180L723.693,180L722.715,180L721.733,180L720.879,180L719.878,180L718.749,180L717.774,180L716.75,180L715.689,180L714.633,180L713.56,180L712.339,180L711.263,180L710.13,180L708.995,180L707.92,180L706.886,180L705.912,180L704.981,180L704.065,180L703.183,180L702.252,180L701.285,180L700.305,180L699.358,180L698.385,180L697.354,180L696.347,180L695.425,180L694.325,180L693.353,180L692.298,180L691.098,180L689.978,180L688.708,180L687.34,180L686.018,180L684.711,180L683.533,180L682.385,180L681.053,180L679.927,180L678.783,180L677.673,180L676.687,180L675.761,180L674.826,180L673.879,180L672.825,180L671.708,180L670.554,180L669.247,180L667.95,180L666.781,180L665.623,180L664.274,180L663.132,180L661.951,180L660.771,180L659.709,180L658.617,180L657.443,180L656.213,180L654.988,180L653.755,180L652.504,180L651.312,180L649.825,180L647.623,180L646.392,180L644.755,180L643.656,180L642.57,180L641.524,180L640.575,180L639.886,180L639.25,180L638.621,180L638.036,180L637.363,180L636.774,180L635.977,180L634.386,180L632.555,180L632.192,180L631.837,180L631.571,180L631.32,180L630.11,180L629.727,180L629.215,180L628.506,180L627.66,180L626.854,180L626.128,180L625.349,180L624.614,180L623.681,180L622.721,180L621.92,180L621.217,180L620.855,180L620.071,180L619.175,180L618.096,180L617.063,180L616.159,180L615.343,180L614.528,180L613.694,180L612.818,180L611.898,180L610.932,180L610.042,180L609.276,180L608.559,180L607.711,180L606.934,180L606.131,180L605.333,180L604.497,180L603.489,180L602.642,180L601.819,180L600.969,180L600.25,180L599.643,180L598.847,180L597.906,180L597.094,180L596.42,180L595.812,180L594.766,180L594.34,180L593.51,180L592.341,180L591.52,180L590.787,180L589.967,180L589.311,180L588.639,180L587.808,180L586.959,180L585.883,180L584.964,180L584.196,180L583.418,180L581.918,180L580.807,180L579.824,180L578.315,180L576.865,180L575.924,180L574.364,180L573.473,180L572.561,180L571.703,180L570.43,180L569.558,180L568.549,180L568.139,180L567.548,180L567.162,180L566.688,180L566.019,180L565.347,180L564.655,180L563.783,180L562.878,180L561.995,180L561.044,180L559.988,180L559.191,180L558.134,180L557.164,180L556.236,180L555.315,180L554.465,180L553.805,180L553.395,180L553.018,180L552.386,180L551.527,180L550.487,180L549.678,180L548.983,180L548.106,180L547.221,180L546.363,180L545.601,180L544.955,180L544.134,180L542.938,180L542.146,180L541.755,180L541.038,180L540.235,180L539.446,180L538.777,180L538.021,180L537.024,180L536.272,180L535.435,180L534.628,180L533.772,180L532.859,180L532.106,180L531.437,180L530.669,180L529.865,180L529.126,180L528.253,180L527.364,180L526.48,180L525.521,180L524.592,180L523.643,180L522.62,180L521.667,180L521.004,180L520.335,180L519.68,180L518.968,180L518.14,180L517.456,180L516.695,180L516.187,180L515.99,180L515.793,180L515.757,180L515.436,180L514.823,180L514.014,180L513.274,180L512.511,180L511.676,180L510.796,180L509.996,180L509.224,180L508.466,180L507.616,180L506.79,180L506.021,180L505.449,180L504.724,180L504.209,180L503.59,180L502.97,180L502.416,180L501.687,180L500.858,180L499.793,180L498.703,180L497.754,180L496.685,180L495.546,180L494.31,180L493.164,180L492.135,180L491.119,180L490.061,180L488.935,180L487.696,180L486.5,180L485.205,180L483.905,180L482.73,180L481.556,180L480.407,180L479.286,180L478.105,180L476.999,180L475.894,180L474.757,180L473.605,180L472.254,180L471.067,180L469.924,180L468.786,180L467.618,180L466.416,180L465.165,180L463.926,180L462.555,180L461.324,180L459.724,180L458.581,180L457.439,180L456.27,180L455.086,180L453.94,180L452.798,180L451.718,180L450.617,180L449.44,180L448.311,180L447.191,180L446.063,180L444.966,180L443.964,180L442.94,180L441.887,180L440.911,180L439.946,180L439.194,180L438.46,180L437.423,180L436.308,180L435.23,180L434.292,180L433.525,180L432.726,180L432.078,180L431.507,180L431.193,180L430.4,180L429.392,180L428.412,180L427.387,180L426.345,180L425.308,180L424.269,180L423.23,180L422.184,180L421.014,180L419.955,180L418.86,180L417.766,180L416.693,180L415.595,180L414.487,180L413.387,180L412.283,180L411.11,180L410.068,180L409.054,180L408.04,180L407.046,180L406.028,180L404.987,180L403.915,180L402.828,180L401.728,180L400.718,180L399.83,180L398.931,180L398.146,180L397.516,180L396.564,180L395.438,180L394.44,180L393.436,180L392.421,180L391.54,180L390.733,180L389.984,180L389.174,180L388.363,180L387.543,180L386.677,180L385.837,180L385.058,180L384.356,180L383.708,180L383.165,180L382.698,180L382.104,180L381.51,180L380.634,180L380.042,180L379.344,180L378.608,180L377.907,180L377.208,180L376.482,180L375.763,180L375.038,180L374.342,180L373.672,180L373.002,180L372.304,180L371.504,180L370.723,180L369.911,180L369.197,180L368.49,180L367.737,180L366.938,180L366.089,180L365.199,180L364.23,180L363.211,180L362.24,180L361.112,180L360.133,180L359.205,180L358.289,180L357.377,180L356.427,180L355.452,180L354.407,180L353.364,180L352.337,180L351.401,180L350.376,180L349.426,180L348.465,180L347.544,180L346.819,180L346.15,180L345.421,180L344.529,180L343.648,180L342.729,180L341.798,180L340.87,180L339.965,180L339.042,180L338.047,180L337.082,180L336.104,180L335.121,180L334.14,180L333.134,180L332.169,180L331.144,180L330.056,180L328.999,180L328.144,180L327.354,180L326.618,180L325.988,180L325.246,180L324.061,180L323.176,180L322.259,180L321.31,180L320.283,180L319.307,180L318.305,180L317.205,180L316.336,180L315.478,180L314.607,180L313.675,180L312.803,180L311.99,180L311.178,180L310.341,180L309.453,180L308.564,180L307.711,180L306.755,180L305.74,180L304.737,180L303.899,180L303.012,180L301.96,180L300.724,180L299.599,180L297.921,180L295.834,180L294.14,180L292.821,180L291.675,180L290.572,180L289.531,180L288.526,180L287.493,180L286.517,180L285.529,180L284.567,180L283.57,180L282.619,180L281.71,180L280.838,180L279.969,180L279.078,180L278.187,180L277.255,180L276.323,180L275.347,180L274.345,180L273.441,180L272.729,180L272.222,180L271.899,180L271.848,180L271.832,180L271.824,180L271.814,180L271.802,180L271.458,180L270.86,180L269.912,180L268.999,180L268.101,180L267.263,180L266.429,180L265.574,180L264.659,180L263.715,180L262.75,180L261.822,180L260.927,180L260.035,180L259.148,180L258.28,180L257.438,180L256.655,180L255.843,180L255.368,180L254.676,180L253.85,180L253.146,180L252.353,180L251.452,180L249.983,180L248.331,180L247.032,180L246.166,180L245.375,180L244.46,180L243.48,180L242.509,180L241.586,180L240.616,180L239.634,180L238.616,180L237.633,180L236.769,180L235.925,180L235.113,180L234.256,180L233.25,180L232.445,180L231.611,180L230.768,180L229.832,180L228.914,180L228.364,180L227.669,180L226.922,180L226.008,180L225.02,180L224.144,180L223.32,180L222.52,180L221.726,180L220.911,180L220.093,180L219.278,180L218.506,180L217.716,180L216.804,180L216.071,180L215.246,180L214.52,180L213.718,180L213.039,180L211.398,180L210.405,180L209.439,180L208.48,180L207.57,180L206.709,180L205.892,180L205.101,180L204.313,180L203.394,180L202.467,180L201.114,180L200.36,180L199.583,180L198.83,180L198.159,180L197.333,180L196.63,180L196.065,180L195.269,180L194.303,180L193.238,180L192.175,180L191.111,180L190.009,180L188.888,180L187.882,180L186.968,180L186.079,180L185.195,180L184.317,180L183.453,180L182.593,180L181.71,180L180.82,180L179.951,180L179.133,180L178.304,180L177.431,180L176.454,180L175.333,180L174.561,180L173.803,180L172.969,180L172.199,180L171.459,180L170.743,180L170.044,180L169.218,180L168.539,180L167.722,180L166.96,180L166.262,180L165.594,180L164.95,180L164.325,180L163.833,180L163.301,180L162.818,180L162.33,180L161.726,180L161.202,180L160.533,180L159.832,180L159.115,180L158.408,180L157.699,180L156.937,180L156.214,180L155.476,180L154.673,180L153.937,180L153.21,180L152.682,180L151.942,180L151.544,180L150.857,180L149.924,180L148.949,180L147.946,180L146.92,180L145.861,180L144.523,180L143.342,180L142.148,180L141.002,180L139.781,180L138.712,180L137.804,180L136.876,180L135.985,180L133.631,180L132.862,180L131.915,180L131.302,180L130.698,180L130.087,180L129.493,180L128.944,180L128.422,180L127.851,180L127.239,180L126.68,180L126.219,180L125.779,180L125.319,180L124.683,180L123.929,180L123.021,180L122.099,180L121.186,180L120.285,180L119.406,180L118.55,180L117.716,180L116.726,180L115.696,180L114.639,180L113.645,180L112.627,180L111.646,180L110.615,180L109.575,180L108.554,180L107.558,180L106.345,180L105.176,180L104.053,180L102.999,180L101.95,180L101.049,180L100.16,180L99.223,180L98.248,180L97.319,180L96.4,180L95.477,180L94.542,180L93.623,180L92.409,180L91.322,180L90.356,180L89.53,180L88.932,180L88.369,180L87.732,180L86.939,180L86.025,180L85.033,180L84.16,180L83.287,180L82.416,180L81.506,180L80.589,180L79.695,180L78.859,180L78.078,180L77.36,180L76.641,180L75.798,180L74.908,180L74.02,180L73.144,180L72.151,180L71.219,180L70.49,180L69.583,180L69.031,180L68.311,180L67.668,180L67.005,180L66.546,180L65.983,180L65.277,180L64.519,180L63.784,180L63.114,180L62.771,180L62.441,180L62.164,180L61.836,180L61.632,180L61.357,180L61.32,180L60.906,180L60.544,180L60.16,180L59.93,180L59.676,180L59.235,180L58.791,180L58.342,180L57.856,180L57.564,180L57.273,180L56.983,180L56.712,180L56.431,180L56.149,180L55.776,180L55.41,180L55.084,180L55,180Z"/>
  <path class="mg-line" d="M55,160.748L55.084,160.709L55.41,160.208L55.776,161.152L56.149,161.188L56.431,161.28L56.712,161.722L56.983,161.748L57.273,161.495L57.564,161.812L57.856,161.562L58.342,162.207L58.791,162.389L59.235,162.459L59.676,162.686L59.93,162.619L60.16,162.518L60.544,162.566L60.906,161.846L61.32,162.462L61.357,162.493L61.632,162.644L61.836,162.62L62.164,162.243L62.441,162.452L62.771,162.194L63.114,161.99L63.784,162.656L64.519,162.799L65.277,162.005L65.983,161.682L66.546,161.274L67.005,160.711L67.668,159.921L68.311,160.199L69.031,161.472L69.583,162.878L70.49,166.246L71.219,166.732L72.151,165.089L73.144,164.64L74.02,164.436L74.908,163.118L75.798,160.521L76.641,157.623L77.36,156.625L78.078,156.918L78.859,156.813L79.695,157.262L80.589,158.082L81.506,158.879L82.416,159.38L83.287,159.09L84.16,158.01L85.033,157.906L86.025,158.374L86.939,158.436L87.732,158.147L88.369,157.178L88.932,156.72L89.53,156.082L90.356,156.247L91.322,157.311L92.409,158.132L93.623,159.103L94.542,159.611L95.477,159.162L96.4,159.377L97.319,159.716L98.248,159.993L99.223,159.727L100.16,158.386L101.049,157.726L101.95,157.339L102.999,156.289L104.053,155.479L105.176,155.157L106.345,156.437L107.558,156.877L108.554,157.193L109.575,157.287L110.615,157.26L111.646,156.96L112.627,157.292L113.645,158.163L114.639,159.412L115.696,160.559L116.726,161.565L117.716,162.99L118.55,165.341L119.406,167.309L120.285,170.065L121.186,172.802L122.099,175.245L123.021,176.443L123.929,176.916L124.683,178.678L125.319,179.812L125.779,180.232L126.219,180.213L126.68,180.18L127.239,179.696L127.851,179.714L128.422,179.839L128.944,179.9L129.493,179.684L130.087,179.403L130.698,178.84L131.302,178.3L131.915,177.157L132.862,175.88L133.631,176.547L135.985,178.045L136.876,179.254L137.804,179.749L138.712,179.532L139.781,179.353L141.002,179.029L142.148,178.278L143.342,178.658L144.523,179.801L145.861,180.225L146.92,180.598L147.946,180.719L148.949,180.409L149.924,180.086L150.857,179.461L151.544,179.307L151.942,178.834L152.682,178.417L153.21,178.697L153.937,177.913L154.673,175.869L155.476,173.48L156.214,171.26L156.937,168.965L157.699,167.272L158.408,167.097L159.115,167.114L159.832,167.459L160.533,167.329L161.202,167.162L161.726,167.877L162.33,167.732L162.818,165.993L163.301,164.241L163.833,162.502L164.325,161.088L164.95,159.199L165.594,157.153L166.262,154.985L166.96,154.838L167.722,156.33L168.539,156.656L169.218,157.309L170.044,157.876L170.743,157.498L171.459,158.644L172.199,159.122L172.969,159.404L173.803,159.578L174.561,159.898L175.333,160.451L176.454,158.509L177.431,156.019L178.304,153.667L179.133,152.546L179.951,149.821L180.82,146.895L181.71,143.624L182.593,141.02L183.453,138.693L184.317,136.79L185.195,134.044L186.079,132.39L186.968,131.857L187.882,131.453L188.888,130.86L190.009,130.476L191.111,129.464L192.175,129.583L193.238,128.903L194.303,127.316L195.269,127.499L196.065,128.308L196.63,128.781L197.333,127.821L198.159,129.282L198.83,129.159L199.583,127.811L200.36,126.92L201.114,126.463L202.467,124.948L203.394,125.294L204.313,123.783L205.101,122.635L205.892,121.935L206.709,121.497L207.57,120.003L208.48,119.244L209.439,118.831L210.405,118.09L211.398,116.962L213.039,115.792L213.718,115.91L214.52,114.431L215.246,112.566L216.071,109.979L216.804,108.459L217.716,108.209L218.506,107.846L219.278,106.098L220.093,102.849L220.911,100.201L221.726,98.785L222.52,97.652L223.32,97.548L224.144,96.868L225.02,94.132L226.008,91.699L226.922,92.948L227.669,93.027L228.364,93.286L228.914,92.983L229.832,90.64L230.768,86.581L231.611,83.503L232.445,80.611L233.25,77.818L234.256,73.779L235.113,71.186L235.925,69.967L236.769,68.78L237.633,68.456L238.616,67.448L239.634,66.598L240.616,64.999L241.586,63.85L242.509,63.078L243.48,61.498L244.46,59.641L245.375,59.296L246.166,57.954L247.032,55.91L248.331,52.196L249.983,49.564L251.452,46.755L252.353,45.361L253.146,44.196L253.85,44.436L254.676,45.264L255.368,46.663L255.843,47.737L256.655,48.214L257.438,50.673L258.28,53.749L259.148,56.972L260.035,59.671L260.927,60.821L261.822,61.133L262.75,62.076L263.715,64.485L264.659,67.737L265.574,70.807L266.429,72.191L267.263,72.89L268.101,73.097L268.999,73.047L269.912,72.77L270.86,72.533L271.458,72.885L271.802,72.252L271.814,72.429L271.824,72.173L271.832,72.649L271.848,72.769L271.899,72.521L272.222,73.011L272.729,72.785L273.441,73.114L274.345,73.021L275.347,73.204L276.323,73.533L277.255,73.043L278.187,71.249L279.078,68.441L279.969,65.527L280.838,63.054L281.71,61.859L282.619,61.765L283.57,60.758L284.567,57.726L285.529,54.318L286.517,51.124L287.493,48.32L288.526,45.93L289.531,44.019L290.572,43.894L291.675,45.524L292.821,48.642L294.14,51.052L295.834,52.551L297.921,57.13L299.599,60.532L300.724,63.311L301.96,64.105L303.012,66L303.899,67.755L304.737,68.371L305.74,68.663L306.755,69.376L307.711,70.277L308.564,71.621L309.453,74.016L310.341,77.084L311.178,80.213L311.99,83.483L312.803,87.271L313.675,91.253L314.607,92.876L315.478,93.167L316.336,93.289L317.205,92.318L318.305,93.964L319.307,97.026L320.283,97.445L321.31,98.686L322.259,100.807L323.176,102.893L324.061,106.126L325.246,109.113L325.988,111.217L326.618,107.929L327.354,108.677L328.144,111.178L328.999,112.756L330.056,113.861L331.144,115.2L332.169,116.794L333.134,118.159L334.14,119.365L335.121,120.357L336.104,121.652L337.082,122.585L338.047,122.616L339.042,123.803L339.965,124.758L340.87,125.537L341.798,125.942L342.729,126.303L343.648,127.106L344.529,128.552L345.421,129.888L346.15,129.48L346.819,128.854L347.544,128.032L348.465,127.411L349.426,127.773L350.376,129.295L351.401,130.292L352.337,130.362L353.364,131.217L354.407,131.798L355.452,132.374L356.427,132.641L357.377,132.973L358.289,134.495L359.205,137.385L360.133,139.509L361.112,141.644L362.24,145.079L363.211,148.431L364.23,151.564L365.199,153.27L366.089,155.63L366.938,158.666L367.737,160.617L368.49,160.534L369.197,160.229L369.911,160.306L370.723,160.279L371.504,160.168L372.304,159.255L373.002,158.314L373.672,158.647L374.342,157.915L375.038,157.136L375.763,157.025L376.482,155.38L377.208,155.653L377.907,157.792L378.608,159.95L379.344,161.661L380.042,163.514L380.634,165.893L381.51,168.527L382.104,167.452L382.698,167.485L383.165,167.645L383.708,167.592L384.356,167.638L385.058,167.791L385.837,167.362L386.677,166.341L387.543,165.235L388.363,164.422L389.174,162.516L389.984,160.374L390.733,159.694L391.54,159.411L392.421,159.34L393.436,159.25L394.44,159.595L395.438,160.012L396.564,160.613L397.516,161.799L398.146,161.75L398.931,160.423L399.83,159.235L400.718,159.298L401.728,158.623L402.828,155.503L403.915,154.065L404.987,153.904L406.028,151.702L407.046,150.267L408.04,150.384L409.054,150.721L410.068,150.965L411.11,151.461L412.283,154.429L413.387,156.386L414.487,156.107L415.595,157.165L416.693,157.552L417.766,156.92L418.86,155.636L419.955,155.497L421.014,156.765L422.184,159.132L423.23,160.085L424.269,160.477L425.308,158.394L426.345,158.157L427.387,159.058L428.412,158.761L429.392,157.838L430.4,158.788L431.193,160.031L431.507,159.127L432.078,157.992L432.726,157.669L433.525,158.698L434.292,160.989L435.23,161.949L436.308,162.054L437.423,162.241L438.46,162.175L439.194,162.884L439.946,163.112L440.911,163.31L441.887,163.642L442.94,164.287L443.964,164.696L444.966,165.014L446.063,164.929L447.191,165.219L448.311,165.347L449.44,166.97L450.617,166.022L451.718,164.193L452.798,163.924L453.94,163.653L455.086,163.311L456.27,163.145L457.439,163.372L458.581,162.854L459.724,162.522L461.324,163.145L462.555,163.831L463.926,163.812L465.165,164.754L466.416,164.46L467.618,163.778L468.786,163.241L469.924,161.763L471.067,161.152L472.254,162.467L473.605,162.783L474.757,162.812L475.894,164.647L476.999,164.617L478.105,164.944L479.286,163.508L480.407,161.206L481.556,160.941L482.73,161.694L483.905,162.517L485.205,161.114L486.5,160.206L487.696,160.009L488.935,159.158L490.061,156.128L491.119,153.551L492.135,151.564L493.164,151.072L494.31,151.502L495.546,152.845L496.685,154.133L497.754,155.774L498.703,156.168L499.793,156.333L500.858,157.644L501.687,157.91L502.416,158.597L502.97,160.103L503.59,160.884L504.209,161.148L504.724,160.989L505.449,161.156L506.021,160.123L506.79,158.981L507.616,156.42L508.466,153.619L509.224,150.994L509.996,148.475L510.796,145.859L511.676,143.324L512.511,140.894L513.274,137.981L514.014,135.536L514.823,133.079L515.436,131.516L515.757,133.244L515.793,132.699L515.99,132.693L516.187,133.402L516.695,135.577L517.456,136.911L518.14,136.007L518.968,138.1L519.68,139.085L520.335,140.537L521.004,141.537L521.667,141.709L522.62,142.145L523.643,142.32L524.592,142.804L525.521,143.39L526.48,144.284L527.364,145.589L528.253,146.594L529.126,148.995L529.865,150.439L530.669,149.43L531.437,148.681L532.106,147.883L532.859,148.966L533.772,150.481L534.628,150.383L535.435,150.602L536.272,151.592L537.024,153.543L538.021,155.663L538.777,157.63L539.446,159.658L540.235,161.002L541.038,160.974L541.755,161.758L542.146,162.186L542.938,160.573L544.134,159.576L544.955,160.251L545.601,158.461L546.363,156.319L547.221,154.02L548.106,150.962L548.983,150.492L549.678,150.186L550.487,150.272L551.527,149.313L552.386,149.418L553.018,150.3L553.395,150.207L553.805,150.196L554.465,150.041L555.315,147.338L556.236,146.51L557.164,145.309L558.134,143.392L559.191,142.985L559.988,142.478L561.044,142.087L561.995,141.433L562.878,140.775L563.783,140.374L564.655,139.385L565.347,138.472L566.019,136.467L566.688,136.29L567.162,136.173L567.548,135.454L568.139,133.896L568.549,133.742L569.558,135.432L570.43,135.12L571.703,137.046L572.561,138.826L573.473,140.862L574.364,140.827L575.924,141.932L576.865,142.979L578.315,144.405L579.824,146.414L580.807,147.764L581.918,150.948L583.418,149.866L584.196,149.725L584.964,149.91L585.883,152.02L586.959,151.435L587.808,151.942L588.639,152.295L589.311,153.928L589.967,155.136L590.787,156.975L591.52,159.301L592.341,160.506L593.51,161.064L594.34,162.302L594.766,162.481L595.812,161.1L596.42,161.653L597.094,161.357L597.906,159.216L598.847,156.561L599.643,154.592L600.25,153.489L600.969,151.979L601.819,151.234L602.642,150.589L603.489,150.566L604.497,148.842L605.333,149.709L606.131,150.052L606.934,150.628L607.711,149.178L608.559,146.953L609.276,146.131L610.042,144.641L610.932,142.341L611.898,141.344L612.818,140.921L613.694,140.96L614.528,140.808L615.343,140.141L616.159,140.51L617.063,138.178L618.096,136.426L619.175,134.448L620.071,133.436L620.855,132.709L621.217,133.676L621.92,133.774L622.721,135.152L623.681,137.43L624.614,140.111L625.349,142.095L626.128,144.848L626.854,147.638L627.66,149.693L628.506,152.396L629.215,154.481L629.727,155.941L630.11,156.684L631.32,157.301L631.571,157.249L631.837,157.508L632.192,158.28L632.555,159.479L634.386,156.343L635.977,157.79L636.774,157.498L637.363,156.939L638.036,156.214L638.621,155.732L639.25,155.155L639.886,154.042L640.575,153.011L641.524,151.779L642.57,150.52L643.656,148.951L644.755,148.331L646.392,150.375L647.623,153.889L649.825,156.62L651.312,157.526L652.504,158.805L653.755,160.376L654.988,159.533L656.213,158.857L657.443,160.12L658.617,163.077L659.709,163.274L660.771,162.947L661.951,162.007L663.132,160.127L664.274,161.119L665.623,159.825L666.781,159.449L667.95,160.93L669.247,162.418L670.554,162.543L671.708,163.874L672.825,163.091L673.879,162.617L674.826,162.887L675.761,162.511L676.687,162.003L677.673,161.447L678.783,161.448L679.927,161.55L681.053,161.662L682.385,161.273L683.533,161.756L684.711,162.657L686.018,163.547L687.34,166.28L688.708,164.687L689.978,164.145L691.098,163.846L692.298,164.041L693.353,164.18L694.325,164.061L695.425,163.752L696.347,163.098L697.354,163.024L698.385,161.529L699.358,161.282L700.305,161.433L701.285,161.017L702.252,161.368L703.183,159.93L704.065,158.575L704.981,158.265L705.912,158.56L706.886,157.826L707.92,157.69L708.995,158.242L710.13,157.201L711.263,156.772L712.339,159.194L713.56,159.273L714.633,157.995L715.689,156.787L716.75,155.432L717.774,156.065L718.749,156.705L719.878,156.845L720.879,156.95L721.733,156.074L722.715,155.68L723.693,155.548L724.591,153.992L725.394,151.883L726.131,150.205L726.835,149.658L727.548,149.145L728.28,148.794L729.097,148.578L729.919,148.55L730.702,149.527L731.546,152.1L732.367,153.752L733.161,153.572L734.122,154.788L735,158.587L735.993,160.229L736.832,160.522L737.65,161.358L738.504,161.32L739.309,161.245L740.019,160.999L740.723,159.911L741.49,159.027L742.396,158.419L743.238,158.987L743.972,159.384L744.651,159.659L745.308,159.738L746.001,159.532L746.709,160.408L747.454,161.833L748.237,163.826L748.776,164.596L749.373,165.274L749.841,165.859L750.366,166.705L750.943,167.438L751.422,168.132L751.727,168.104L752.021,167.943L752.402,167.892L752.83,168.134L753.376,167.805L753.653,167.625L754.773,166.715L755.075,167.256L756.057,167.402L756.672,166.946L757.243,167.619L757.909,167.365L758.629,166.602L759.341,166.489L760.109,167.083L760.976,169.171L761.842,171.733L762.737,174.796L763.644,177.522L764.503,179.14L765.429,178.408L766.275,178.619L767.128,179.277L768.202,178.841L769.893,178.156L771.904,177.32L773.848,177.654L775.238,178.456L776.113,179.385L776.95,180.729L777.76,180.778L778.603,180.841L779.444,180.552L780.281,179.635L781.127,178.9L781.987,178.461L782.855,177.818L783.803,177.483L786.296,177.27L787.248,179.933L788.065,180.527L788.954,180.217L789.744,179.87L790.523,179.812L791.394,179.712L792.211,179.485L793.037,178.314L794.116,175.769L795.645,173.409L797.429,168.269L799.694,164.128L800.609,163.104L801.365,162.544L802.018,161.553L802.709,160.559L803.42,159.116L804.393,157.427L805.204,157.132L806.061,157.056L806.952,157.477L807.854,157.591L808.745,157.32L809.719,157.385L810.67,157.428L811.734,157.46L812.722,156.272L813.634,156.467L814.522,157.595L815.415,158.753L816.351,158.422L817.323,158.473L818.247,159.529L818.895,160.68L819.522,159.779L820.078,159.747L820.558,159.591L821.07,159.291L821.847,158.759L822.808,158.435L823.84,158.929L824.863,158.46L826.029,157.531L827.266,156.73L828.547,156.259L829.593,156.642L830.663,157.873L831.737,158.04L832.94,157.7L834.203,159.367L835.25,160.46L836.26,159.469L837.117,158.919L837.888,158.456L838.602,157.99L839.304,157.841L839.963,157.344L840.541,157.053L841.117,157.963L841.729,159.596L842.454,162.579L843.38,164.12L844.188,164.324L845.075,164.659L845.752,165.358L846.34,166.258L846.944,166.49L847.397,166.086L847.846,165.037L848.546,163.748L849.275,162.746L849.91,161.46L850.563,160.883L851.098,161.152L851.626,161.832L852.278,161.351L852.96,160.99L853.651,161.131L854.298,161.21L854.962,162.582L855.621,164.318L856.339,166.396L856.887,168.172L857.565,169.589L858.198,170.052L858.847,170.401L859.574,169.09L860.56,167.053L861.443,167.431L862.093,167.08L862.793,165.199L863.575,163.659L864.374,163.751L865.156,164.589L865.854,163.846L866.26,163.695L866.729,162.887L867.239,162.534L867.661,162.272L868.294,162.133L869.042,160.614L869.064,160.964L869.323,163.739L869.629,162.231L869.836,161.193L869.855,160.874L869.904,160.931L869.959,160.709L869.992,160.402L870,160.583"/>
  <line class="mg-axis" x1="55" y1="180" x2="870" y2="180"/>
  <line class="mg-axis" x1="55.0" y1="180" x2="55.0" y2="184"/><text class="mg-label" x="55.0" y="196" text-anchor="middle" font-size="10">0</text>
  <line class="mg-axis" x1="233.5" y1="180" x2="233.5" y2="184"/><text class="mg-label" x="233.5" y="196" text-anchor="middle" font-size="10">20</text>
  <line class="mg-axis" x1="412.0" y1="180" x2="412.0" y2="184"/><text class="mg-label" x="412.0" y="196" text-anchor="middle" font-size="10">40</text>
  <line class="mg-axis" x1="590.5" y1="180" x2="590.5" y2="184"/><text class="mg-label" x="590.5" y="196" text-anchor="middle" font-size="10">60</text>
  <line class="mg-axis" x1="769.0" y1="180" x2="769.0" y2="184"/><text class="mg-label" x="769.0" y="196" text-anchor="middle" font-size="10">80</text>
  
    <text class="mg-label" x="47" y="47.7" text-anchor="end" font-size="10">353m</text>
    <text class="mg-label" x="47" y="184.9" text-anchor="end" font-size="10">-2m</text>
  <circle class="mg-peak" cx="290.0" cy="43.7" r="3"/><text class="mg-peak-label" x="295.0" y="38.7" font-size="10">353m peak</text>
  <circle class="mg-trough" cx="778.9" cy="180.9" r="3"/>
  <text class="mg-muted-label" x="462.5" y="214" text-anchor="middle" font-size="10">kilometers</text>
</svg>