<?xml version="1.0" encoding="UTF-8"?>
<svg xmlns="http://www.w3.org/2000/svg" viewBox="0 0 900 220" preserveAspectRatio="xMidYMid meet">
  <rect x="0" y="0" width="900" height="220" fill="white"/>
  <text x="50" y="20" font-family="Helvetica, Arial, sans-serif" font-size="13" font-weight="bold" fill="#111">elevation profile</text>
  <path d="M50,149.11L50.085,149.075L50.413,148.618L50.781,149.478L51.156,149.511L51.44,149.595L51.723,149.997L51.995,150.021L52.287,149.79L52.58,150.08L52.874,149.851L53.363,150.439L53.814,150.605L54.261,150.668L54.704,150.875L54.96,150.815L55.192,150.722L55.578,150.766L55.942,150.11L56.359,150.672L56.396,150.699L56.673,150.838L56.878,150.816L57.208,150.472L57.487,150.663L57.819,150.428L58.164,150.242L58.838,150.849L59.577,150.979L60.34,150.255L61.051,149.961L61.617,149.589L62.078,149.076L62.746,148.357L63.393,148.61L64.117,149.769L64.673,151.051L65.585,154.119L66.318,154.561L67.256,153.065L68.255,152.656L69.137,152.47L70.03,151.269L70.926,148.904L71.774,146.263L72.498,145.354L73.22,145.621L74.006,145.526L74.847,145.935L75.746,146.682L76.668,147.408L77.584,147.863L78.461,147.6L79.339,146.616L80.217,146.521L81.216,146.948L82.135,147.004L82.933,146.741L83.574,145.858L84.141,145.44L84.742,144.86L85.573,145.01L86.545,145.979L87.638,146.727L88.86,147.612L89.785,148.074L90.725,147.665L91.654,147.861L92.578,148.17L93.514,148.422L94.494,148.18L95.437,146.958L96.332,146.357L97.238,146.005L98.294,145.048L99.354,144.31L100.483,144.016L101.66,145.183L102.88,145.583L103.883,145.871L104.91,145.957L105.956,145.933L106.993,145.659L107.981,145.962L109.004,146.755L110.005,147.893L111.068,148.938L112.104,149.854L113.101,151.152L113.94,153.294L114.801,155.088L115.685,157.598L116.592,160.091L117.511,162.316L118.438,163.408L119.352,163.839L120.111,165.444L120.75,166.478L121.214,166.86L121.656,166.843L122.12,166.812L122.682,166.372L123.298,166.387L123.873,166.502L124.398,166.557L124.95,166.361L125.547,166.105L126.163,165.592L126.77,165.099L127.387,164.058L128.339,162.895L129.113,163.503L131.482,164.867L132.378,165.969L133.312,166.42L134.225,166.222L135.301,166.059L136.529,165.764L137.683,165.08L138.884,165.426L140.073,166.467L141.418,166.853L142.484,167.194L143.517,167.303L144.526,167.021L145.506,166.727L146.445,166.158L147.137,166.017L147.536,165.587L148.281,165.206L148.813,165.461L149.544,164.747L150.285,162.885L151.092,160.709L151.835,158.687L152.562,156.596L153.33,155.053L154.043,154.894L154.753,154.91L155.476,155.223L156.181,155.105L156.853,154.953L157.381,155.604L157.989,155.472L158.48,153.888L158.966,152.292L159.5,150.708L159.996,149.42L160.625,147.699L161.272,145.835L161.945,143.86L162.647,143.726L163.414,145.086L164.236,145.382L164.918,145.977L165.75,146.494L166.453,146.149L167.173,147.193L167.918,147.629L168.693,147.886L169.532,148.045L170.294,148.336L171.071,148.839L172.199,147.07L173.182,144.802L174.06,142.66L174.895,141.638L175.717,139.156L176.592,136.49L177.488,133.511L178.376,131.138L179.241,129.019L180.11,127.285L180.994,124.783L181.883,123.276L182.778,122.79L183.697,122.423L184.71,121.883L185.837,121.533L186.946,120.61L188.017,120.719L189.086,120.099L190.158,118.654L191.129,118.821L191.93,119.558L192.499,119.988L193.206,119.114L194.037,120.445L194.712,120.333L195.47,119.105L196.252,118.293L197.01,117.876L198.372,116.497L199.305,116.812L200.229,115.436L201.022,114.389L201.818,113.752L202.639,113.353L203.506,111.992L204.422,111.3L205.386,110.924L206.359,110.249L207.357,109.221L209.009,108.156L209.692,108.263L210.499,106.916L211.229,105.217L212.059,102.86L212.797,101.475L213.715,101.248L214.51,100.917L215.286,99.325L216.106,96.365L216.928,93.952L217.748,92.663L218.548,91.63L219.352,91.536L220.182,90.916L221.063,88.423L222.057,86.207L222.976,87.345L223.729,87.417L224.428,87.653L224.981,87.377L225.905,85.242L226.846,81.544L227.695,78.741L228.534,76.106L229.343,73.562L230.356,69.883L231.217,67.52L232.035,66.409L232.884,65.329L233.754,65.033L234.743,64.114L235.767,63.34L236.755,61.884L237.731,60.837L238.66,60.134L239.636,58.694L240.622,57.002L241.543,56.688L242.339,55.466L243.21,53.603L244.517,50.221L246.18,47.822L247.657,45.264L248.564,43.994L249.361,42.932L250.07,43.151L250.901,43.905L251.597,45.18L252.076,46.158L252.892,46.592L253.68,48.833L254.527,51.635L255.4,54.571L256.293,57.03L257.19,58.077L258.091,58.362L259.024,59.221L259.996,61.415L260.945,64.378L261.866,67.175L262.726,68.436L263.565,69.073L264.408,69.261L265.312,69.215L266.231,68.963L267.185,68.747L267.786,69.068L268.132,68.491L268.144,68.652L268.154,68.42L268.162,68.853L268.178,68.962L268.229,68.736L268.555,69.182L269.064,68.977L269.781,69.276L270.691,69.192L271.699,69.358L272.681,69.658L273.619,69.212L274.556,67.578L275.453,65.02L276.349,62.365L277.224,60.112L278.1,59.023L279.016,58.938L279.973,58.02L280.975,55.258L281.943,52.153L282.937,49.243L283.919,46.69L284.959,44.512L285.969,42.772L287.017,42.657L288.127,44.142L289.28,46.983L290.607,49.179L292.312,50.544L294.411,54.715L296.1,57.814L297.232,60.346L298.476,61.069L299.534,62.795L300.426,64.394L301.269,64.956L302.278,65.222L303.3,65.871L304.262,66.692L305.119,67.916L306.014,70.098L306.908,72.893L307.75,75.744L308.566,78.723L309.385,82.173L310.262,85.801L311.2,87.279L312.076,87.544L312.939,87.656L313.814,86.771L314.92,88.271L315.928,91.06L316.911,91.442L317.944,92.572L318.898,94.505L319.821,96.405L320.712,99.35L321.904,102.071L322.65,103.988L323.284,100.993L324.024,101.674L324.82,103.952L325.68,105.39L326.744,106.397L327.838,107.616L328.869,109.068L329.841,110.312L330.853,111.411L331.84,112.314L332.829,113.494L333.812,114.344L334.783,114.372L335.784,115.454L336.713,116.324L337.624,117.033L338.557,117.403L339.494,117.731L340.419,118.463L341.305,119.78L342.203,120.997L342.936,120.625L343.609,120.055L344.339,119.306L345.265,118.741L346.232,119.07L347.189,120.457L348.219,121.365L349.161,121.429L350.195,122.208L351.243,122.737L352.296,123.261L353.276,123.505L354.232,123.807L355.149,125.194L356.071,127.827L357.005,129.762L357.99,131.707L359.124,134.836L360.102,137.889L361.127,140.744L362.102,142.298L362.998,144.448L363.852,147.214L364.656,148.991L365.413,148.916L366.125,148.637L366.843,148.708L367.66,148.683L368.446,148.582L369.251,147.75L369.953,146.893L370.627,147.196L371.301,146.53L372.002,145.82L372.731,145.718L373.454,144.22L374.185,144.469L374.888,146.417L375.593,148.383L376.334,149.942L377.036,151.63L377.632,153.797L378.513,156.196L379.11,155.217L379.709,155.248L380.179,155.393L380.724,155.345L381.376,155.387L382.082,155.526L382.867,155.136L383.711,154.205L384.583,153.197L385.408,152.457L386.224,150.721L387.039,148.769L387.792,148.15L388.605,147.892L389.491,147.827L390.512,147.746L391.523,148.06L392.527,148.44L393.66,148.987L394.618,150.068L395.251,150.023L396.041,148.814L396.946,147.732L397.839,147.789L398.855,147.174L399.962,144.332L401.056,143.022L402.134,142.876L403.181,140.87L404.206,139.562L405.206,139.669L406.226,139.976L407.246,140.198L408.294,140.649L409.474,143.353L410.586,145.137L411.693,144.882L412.807,145.846L413.912,146.199L414.991,145.623L416.092,144.453L417.194,144.327L418.26,145.482L419.436,147.638L420.489,148.506L421.535,148.863L422.58,146.966L423.623,146.75L424.671,147.571L425.702,147.3L426.689,146.459L427.703,147.325L428.501,148.456L428.817,147.633L429.392,146.599L430.043,146.305L430.847,147.242L431.619,149.33L432.563,150.205L433.647,150.3L434.769,150.47L435.813,150.41L436.551,151.056L437.307,151.263L438.278,151.444L439.261,151.747L440.32,152.334L441.35,152.707L442.358,152.997L443.463,152.919L444.597,153.183L445.724,153.3L446.859,154.779L448.044,153.915L449.152,152.248L450.239,152.004L451.388,151.757L452.54,151.445L453.732,151.294L454.908,151.501L456.057,151.028L457.207,150.726L458.817,151.294L460.055,151.919L461.435,151.902L462.681,152.759L463.94,152.492L465.15,151.87L466.325,151.381L467.469,150.035L468.62,149.478L469.814,150.676L471.173,150.964L472.333,150.99L473.476,152.662L474.588,152.634L475.701,152.932L476.889,151.624L478.017,149.527L479.173,149.286L480.354,149.972L481.536,150.722L482.844,149.444L484.147,148.616L485.351,148.437L486.597,147.662L487.73,144.902L488.795,142.554L489.816,140.743L490.852,140.295L492.005,140.687L493.249,141.911L494.394,143.083L495.47,144.579L496.425,144.938L497.522,145.088L498.593,146.283L499.428,146.524L500.161,147.15L500.719,148.522L501.342,149.234L501.965,149.474L502.483,149.329L503.213,149.481L503.788,148.541L504.562,147.5L505.392,145.168L506.248,142.615L507.011,140.224L507.787,137.93L508.592,135.547L509.478,133.237L510.318,131.023L511.085,128.369L511.83,126.142L512.644,123.904L513.261,122.48L513.584,124.055L513.62,123.558L513.818,123.553L514.016,124.198L514.527,126.179L515.294,127.395L515.981,126.571L516.815,128.478L517.531,129.375L518.189,130.698L518.862,131.609L519.53,131.766L520.489,132.163L521.518,132.323L522.473,132.763L523.408,133.297L524.372,134.111L525.262,135.301L526.156,136.216L527.034,138.403L527.778,139.718L528.588,138.799L529.36,138.117L530.033,137.39L530.791,138.377L531.709,139.757L532.57,139.668L533.383,139.867L534.225,140.77L534.981,142.546L535.984,144.478L536.745,146.269L537.418,148.117L538.212,149.341L539.02,149.316L539.741,150.03L540.135,150.42L540.931,148.95L542.135,148.043L542.96,148.657L543.61,147.027L544.378,145.076L545.241,142.981L546.131,140.196L547.014,139.767L547.713,139.488L548.526,139.567L549.573,138.693L550.438,138.789L551.073,139.592L551.453,139.507L551.865,139.497L552.53,139.356L553.384,136.894L554.311,136.14L555.245,135.045L556.221,133.299L557.284,132.928L558.086,132.466L559.149,132.11L560.106,131.514L560.994,130.915L561.904,130.549L562.781,129.648L563.478,128.817L564.154,126.991L564.827,126.829L565.304,126.722L565.693,126.068L566.287,124.648L566.699,124.508L567.715,126.047L568.592,125.763L569.873,127.518L570.736,129.139L571.654,130.994L572.55,130.962L574.12,131.969L575.066,132.923L576.525,134.222L578.044,136.052L579.033,137.282L580.15,140.182L581.66,139.196L582.442,139.069L583.215,139.237L584.14,141.159L585.222,140.626L586.076,141.088L586.913,141.409L587.589,142.897L588.249,143.997L589.074,145.673L589.811,147.792L590.637,148.89L591.814,149.398L592.649,150.525L593.077,150.689L594.13,149.431L594.742,149.934L595.42,149.665L596.237,147.714L597.183,145.295L597.984,143.502L598.596,142.497L599.318,141.121L600.173,140.443L601.001,139.855L601.854,139.835L602.868,138.264L603.71,139.054L604.512,139.366L605.32,139.891L606.102,138.57L606.955,136.543L607.677,135.795L608.447,134.437L609.343,132.341L610.315,131.433L611.241,131.048L612.122,131.084L612.96,130.945L613.78,130.338L614.602,130.674L615.511,128.549L616.55,126.953L617.636,125.151L618.538,124.229L619.327,123.567L619.691,124.447L620.399,124.537L621.204,125.792L622.17,127.868L623.109,130.31L623.848,132.118L624.631,134.625L625.363,137.167L626.173,139.039L627.025,141.501L627.738,143.401L628.252,144.731L628.638,145.408L629.856,145.97L630.108,145.922L630.376,146.158L630.733,146.861L631.098,147.954L632.941,145.097L634.541,146.415L635.343,146.15L635.936,145.64L636.613,144.98L637.202,144.54L637.835,144.015L638.474,143.001L639.168,142.061L640.122,140.94L641.174,139.792L642.267,138.364L643.373,137.798L645.02,139.66L646.258,142.862L648.474,145.35L649.97,146.175L651.17,147.34L652.428,148.772L653.669,148.003L654.902,147.388L656.139,148.538L657.32,151.232L658.419,151.412L659.487,151.113L660.675,150.257L661.863,148.544L663.012,149.448L664.369,148.269L665.534,147.927L666.711,149.276L668.015,150.631L669.33,150.745L670.492,151.958L671.616,151.244L672.675,150.813L673.629,151.059L674.57,150.716L675.501,150.253L676.493,149.747L677.61,149.748L678.761,149.841L679.894,149.943L681.234,149.589L682.389,150.029L683.574,150.849L684.889,151.66L686.219,154.149L687.595,152.698L688.873,152.205L690,151.932L691.207,152.11L692.269,152.236L693.247,152.128L694.354,151.847L695.282,151.251L696.295,151.183L697.332,149.821L698.311,149.596L699.264,149.735L700.25,149.355L701.222,149.675L702.16,148.365L703.047,147.131L703.969,146.848L704.906,147.117L705.886,146.448L706.926,146.324L708.007,146.827L709.149,145.879L710.289,145.488L711.371,147.695L712.6,147.767L713.679,146.602L714.742,145.501L715.809,144.268L716.84,144.844L717.821,145.427L718.957,145.554L719.965,145.651L720.823,144.852L721.811,144.493L722.796,144.373L723.699,142.955L724.507,141.034L725.248,139.506L725.957,139.007L726.674,138.54L727.41,138.22L728.233,138.023L729.06,137.998L729.847,138.888L730.697,141.232L731.523,142.737L732.321,142.572L733.289,143.681L734.172,147.142L735.171,148.638L736.015,148.904L736.838,149.666L737.697,149.631L738.507,149.563L739.221,149.339L739.93,148.347L740.702,147.542L741.613,146.988L742.46,147.506L743.199,147.868L743.882,148.118L744.543,148.19L745.24,148.002L745.953,148.8L746.702,150.099L747.49,151.914L748.032,152.615L748.633,153.233L749.104,153.766L749.632,154.537L750.212,155.205L750.694,155.837L751.002,155.811L751.298,155.665L751.681,155.618L752.111,155.838L752.661,155.539L752.94,155.375L754.066,154.546L754.37,155.039L755.358,155.172L755.977,154.757L756.552,155.37L757.222,155.138L757.945,154.443L758.662,154.34L759.434,154.882L760.307,156.784L761.178,159.117L762.079,161.908L762.992,164.391L763.855,165.865L764.787,165.198L765.638,165.39L766.497,165.99L767.577,165.593L769.279,164.969L771.302,164.207L773.258,164.511L774.657,165.242L775.537,166.088L776.379,167.313L777.194,167.357L778.042,167.414L778.888,167.151L779.73,166.316L780.581,165.646L781.447,165.246L782.32,164.661L783.275,164.355L785.782,164.162L786.741,166.587L787.562,167.129L788.456,166.846L789.251,166.53L790.035,166.477L790.912,166.386L791.734,166.179L792.565,165.112L793.651,162.794L795.189,160.644L796.984,155.961L799.262,152.19L800.183,151.257L800.944,150.746L801.6,149.843L802.296,148.938L803.012,147.623L803.99,146.085L804.807,145.816L805.669,145.747L806.565,146.13L807.472,146.234L808.37,145.987L809.349,146.046L810.306,146.086L811.376,146.115L812.37,145.032L813.288,145.21L814.181,146.237L815.08,147.293L816.022,146.992L817,147.037L817.929,148L818.581,149.049L819.212,148.227L819.771,148.198L820.254,148.056L820.77,147.782L821.551,147.298L822.519,147.003L823.557,147.453L824.586,147.026L825.759,146.18L827.004,145.45L828.293,145.02L829.345,145.37L830.421,146.491L831.502,146.643L832.713,146.333L833.984,147.852L835.037,148.848L836.053,147.945L836.916,147.444L837.691,147.022L838.409,146.597L839.116,146.462L839.779,146.009L840.36,145.744L840.94,146.573L841.556,148.06L842.285,150.778L843.217,152.182L844.029,152.368L844.922,152.673L845.603,153.31L846.195,154.129L846.803,154.341L847.258,153.973L847.71,153.017L848.415,151.843L849.148,150.93L849.787,149.759L850.444,149.233L850.982,149.478L851.513,150.098L852.17,149.659L852.856,149.331L853.55,149.459L854.202,149.531L854.869,150.78L855.532,152.363L856.255,154.255L856.807,155.873L857.489,157.164L858.125,157.586L858.778,157.904L859.51,156.71L860.502,154.854L861.391,155.198L862.044,154.879L862.749,153.165L863.536,151.762L864.34,151.845L865.126,152.609L865.829,151.933L866.237,151.794L866.709,151.058L867.222,150.737L867.647,150.498L868.284,150.372L869.036,148.988L869.058,149.306L869.318,151.835L869.627,150.461L869.835,149.516L869.854,149.225L869.904,149.277L869.959,149.075L869.992,148.795L870,148.96L870,180L869.992,180L869.959,180L869.904,180L869.854,180L869.835,180L869.627,180L869.318,180L869.058,180L869.036,180L868.284,180L867.647,180L867.222,180L866.709,180L866.237,180L865.829,180L865.126,180L864.34,180L863.536,180L862.749,180L862.044,180L861.391,180L860.502,180L859.51,180L858.778,180L858.125,180L857.489,180L856.807,180L856.255,180L855.532,180L854.869,180L854.202,180L853.55,180L852.856,180L852.17,180L851.513,180L850.982,180L850.444,180L849.787,180L849.148,180L848.415,180L847.71,180L847.258,180L846.803,180L846.195,180L845.603,180L844.922,180L844.029,180L843.217,180L842.285,180L841.556,180L840.94,180L840.36,180L839.779,180L839.116,180L838.409,180L837.691,180L836.916,180L836.053,180L835.037,180L833.984,180L832.713,180L831.502,180L830.421,180L829.345,180L828.293,180L827.004,180L825.759,180L824.586,180L823.557,180L822.519,180L821.551,180L820.77,180L820.254,180L819.771,180L819.212,180L818.581,180L817.929,180L817,180L816.022,180L815.08,180L814.181,180L813.288,180L812.37,180L811.376,180L810.306,180L809.349,180L808.37,180L807.472,180L806.565,180L805.669,180L804.807,180L803.99,180L803.012,180L802.296,180L801.6,180L800.944,180L800.183,180L799.262,180L796.984,180L795.189,180L793.651,180L792.565,180L791.734,180L790.912,180L790.035,180L789.251,180L788.456,180L787.562,180L786.741,180L785.782,180L783.275,180L782.32,180L781.447,180L780.581,180L779.73,180L778.888,180L778.042,180L777.194,180L776.379,180L775.537,180L774.657,180L773.258,180L771.302,180L769.279,180L767.577,180L766.497,180L765.638,180L764.787,180L763.855,180L762.992,180L762.079,180L761.178,180L760.307,180L759.434,180L758.662,180L757.945,180L757.222,180L756.552,180L755.977,180L755.358,180L754.37,180L754.066,180L752.94,180L752.661,180L752.111,180L751.681,180L751.298,180L751.002,180L750.694,180L750.212,180L749.632,180L749.104,180L748.633,180L748.032,180L747.49,180L746.702,180L745.953,180L745.24,180L744.543,180L743.882,180L743.199,180L742.46,180L741.613,180L740.702,180L739.93,180L739.221,180L738.507,180L737.697,180L736.838,180L736.015,180L735.171,180L734.172,180L733.289,180L732.321,180L731.523,180L730.697,180L729.847,180L729.06,180L728.233,180L727.41,180L726.674,180L725.957,180L725.248,180L724.507,180L723.699,180L722.796,180L721.811,180L720.823,180L719.965,180L718.957,180L717.821,180L716.84,180L715.809,180L714.742,180L713.679,180L712.6,180L711.371,180L710.289,180L709.149,180L708.007,180L706.926,180L705.886,180L704.906,180L703.969,180L703.047,180L702.16,180L701.222,180L700.25,180L699.264,180L698.311,180L697.332,180L696.295,180L695.282,180L694.354,180L693.247,180L692.269,180L691.207,180L690,180L688.873,180L687.595,180L686.219,180L684.889,180L683.574,180L682.389,180L681.234,180L679.894,180L678.761,180L677.61,180L676.493,180L675.501,180L674.57,180L673.629,180L672.675,180L671.616,180L670.492,180L669.33,180L668.015,180L666.711,180L665.534,180L664.369,180L663.012,180L661.863,180L660.675,180L659.487,180L658.419,180L657.32,180L656.139,180L654.902,180L653.669,180L652.428,180L651.17,180L649.97,180L648.474,180L646.258,180L645.02,180L643.373,180L642.267,180L641.174,180L640.122,180L639.168,180L638.474,180L637.835,180L637.202,180L636.613,180L635.936,180L635.343,180L634.541,180L632.941,180L631.098,180L630.733,180L630.376,180L630.108,180L629.856,180L628.638,180L628.252,180L627.738,180L627.025,180L626.173,180L625.363,180L624.631,180L623.848,180L623.109,180L622.17,180L621.204,180L620.399,180L619.691,180L619.327,180L618.538,180L617.636,180L616.55,180L615.511,180L614.602,180L613.78,180L612.96,180L612.122,180L611.241,180L610.315,180L609.343,180L608.447,180L607.677,180L606.955,180L606.102,180L605.32,180L604.512,180L603.71,180L602.868,180L601.854,180L601.001,180L600.173,180L599.318,180L598.596,180L597.984,180L597.183,180L596.237,180L595.42,180L594.742,180L594.13,180L593.077,180L592.649,180L591.814,180L590.637,180L589.811,180L589.074,180L588.249,180L587.589,180L586.913,180L586.076,180L585.222,180L584.14,180L583.215,180L582.442,180L581.66,180L580.15,180L579.033,180L578.044,180L576.525,180L575.066,180L574.12,180L572.55,180L571.654,180L570.736,180L569.873,180L568.592,180L567.715,180L566.699,180L566.287,180L565.693,180L565.304,180L564.827,180L564.154,180L563.478,180L562.781,180L561.904,180L560.994,180L560.106,180L559.149,180L558.086,180L557.284,180L556.221,180L555.245,180L554.311,180L553.384,180L552.53,180L551.865,180L551.453,180L551.073,180L550.438,180L549.573,180L548.526,180L547.713,180L547.014,180L546.131,180L545.241,180L544.378,180L543.61,180L542.96,180L542.135,180L540.931,180L540.135,180L539.741,180L539.02,180L538.212,180L537.418,180L536.745,180L535.984,180L534.981,180L534.225,180L533.383,180L532.57,180L531.709,180L530.791,180L530.033,180L529.36,180L528.588,180L527.778,180L527.034,180L526.156,180L525.262,180L524.372,180L523.408,180L522.473,180L521.518,180L520.489,180L519.53,180L518.862,180L518.189,180L517.531,180L516.815,180L515.981,180L515.294,180L514.527,180L514.016,180L513.818,180L513.62,180L513.584,180L513.261,180L512.644,180L511.83,180L511.085,180L510.318,180L509.478,180L508.592,180L507.787,180L507.011,180L506.248,180L505.392,180L504.562,180L503.788,180L503.213,180L502.483,180L501.965,180L501.342,180L500.719,180L500.161,180L499.428,180L498.593,180L497.522,180L496.425,180L495.47,180L494.394,180L493.249,180L492.005,180L490.852,180L489.816,180L488.795,180L487.73,180L486.597,180L485.351,180L484.147,180L482.844,180L481.536,180L480.354,180L479.173,180L478.017,180L476.889,180L475.701,180L474.588,180L473.476,180L472.333,180L471.173,180L469.814,180L468.62,180L467.469,180L466.325,180L465.15,180L463.94,180L462.681,180L461.435,180L460.055,180L458.817,180L457.207,180L456.057,180L454.908,180L453.732,180L452.54,180L451.388,180L450.239,180L449.152,180L448.044,180L446.859,180L445.724,180L444.597,180L443.463,180L442.358,180L441.35,180L440.32,180L439.261,180L438.278,180L437.307,180L436.551,180L435.813,180L434.769,180L433.647,180L432.563,180L431.619,180L430.847,180L430.043,180L429.392,180L428.817,180L428.501,180L427.703,180L426.689,180L425.702,180L424.671,180L423.623,180L422.58,180L421.535,180L420.489,180L419.436,180L418.26,180L417.194,180L416.092,180L414.991,180L413.912,180L412.807,180L411.693,180L410.586,180L409.474,180L408.294,180L407.246,180L406.226,180L405.206,180L404.206,180L403.181,180L402.134,180L401.056,180L399.962,180L398.855,180L397.839,180L396.946,180L396.041,180L395.251,180L394.618,180L393.66,180L392.527,180L391.523,180L390.512,180L389.491,180L388.605,180L387.792,180L387.039,180L386.224,180L385.408,180L384.583,180L383.711,180L382.867,180L382.082,180L381.376,180L380.724,180L380.179,180L379.709,180L379.11,180L378.513,180L377.632,180L377.036,180L376.334,180L375.593,180L374.888,180L374.185,180L373.454,180L372.731,180L372.002,180L371.301,180L370.627,180L369.953,180L369.251,180L368.446,180L367.66,180L366.843,180L366.125,180L365.413,180L364.656,180L363.852,180L362.998,180L362.102,180L361.127,180L360.102,180L359.124,180L357.99,180L357.005,180L356.071,180L355.149,180L354.232,180L353.276,180L352.296,180L351.243,180L350.195,180L349.161,180L348.219,180L347.189,180L346.232,180L345.265,180L344.339,180L343.609,180L342.936,180L342.203,180L341.305,180L340.419,180L339.494,180L338.557,180L337.624,180L336.713,180L335.784,180L334.783,180L333.812,180L332.829,180L331.84,180L330.853,180L329.841,180L328.869,180L327.838,180L326.744,180L325.68,180L324.82,180L324.024,180L323.284,180L322.65,180L321.904,180L320.712,180L319.821,180L318.898,180L317.944,180L316.911,180L315.928,180L314.92,180L313.814,180L312.939,180L312.076,180L311.2,180L310.262,180L309.385,180L308.566,180L307.75,180L306.908,180L306.014,180L305.119,180L304.262,180L303.3,180L302.278,180L301.269,180L300.426,180L299.534,180L298.476,180L297.232,180L296.1,180L294.411,180L292.312,180L290.607,180L289.28,180L288.127,180L287.017,180L285.969,180L284.959,180L283.919,180L282.937,180L281.943,180L280.975,180L279.973,180L279.016,180L278.1,180L277.224,180L276.349,180L275.453,180L274.556,180L273.619,180L272.681,180L271.699,180L270.691,180L269.781,180L269.064,180L268.555,180L268.229,180L268.178,180L268.162,180L268.154,180L268.144,180L268.132,180L267.786,180L267.185,180L266.231,180L265.312,180L264.408,180L263.565,180L262.726,180L261.866,180L260.945,180L259.996,180L259.024,180L258.091,180L257.19,180L256.293,180L255.4,180L254.527,180L253.68,180L252.892,180L252.076,180L251.597,180L250.901,180L250.07,180L249.361,180L248.564,180L247.657,180L246.18,180L244.517,180L243.21,180L242.339,180L241.543,180L240.622,180L239.636,180L238.66,180L237.731,180L236.755,180L235.767,180L234.743,180L233.754,180L232.884,180L232.035,180L231.217,180L230.356,180L229.343,180L228.534,180L227.695,180L226.846,180L225.905,180L224.981,180L224.428,180L223.729,180L222.976,180L222.057,180L221.063,180L220.182,180L219.352,180L218.548,180L217.748,180L216.928,180L216.106,180L215.286,180L214.51,180L213.715,180L212.797,180L212.059,180L211.229,180L210.499,180L209.692,180L209.009,180L207.357,180L206.359,180L205.386,180L204.422,180L203.506,180L202.639,180L201.818,180L201.022,180L200.229,180L199.305,180L198.372,180L197.01,180L196.252,180L195.47,180L194.712,180L194.037,180L193.206,180L192.499,180L191.93,180L191.129,180L190.158,180L189.086,180L188.017,180L186.946,180L185.837,180L184.71,180L183.697,180L182.778,180L181.883,180L180.994,180L180.11,180L179.241,180L178.376,180L177.488,180L176.592,180L175.717,180L174.895,180L174.06,180L173.182,180L172.199,180L171.071,180L170.294,180L169.532,180L168.693,180L167.918,180L167.173,180L166.453,180L165.75,180L164.918,180L164.236,180L163.414,180L162.647,180L161.945,180L161.272,180L160.625,180L159.996,180L159.5,180L158.966,180L158.48,180L157.989,180L157.381,180L156.853,180L156.181,180L155.476,180L154.753,180L154.043,180L153.33,180L152.562,180L151.835,180L151.092,180L150.285,180L149.544,180L148.813,180L148.281,180L147.536,180L147.137,180L146.445,180L145.506,180L144.526,180L143.517,180L142.484,180L141.418,180L140.073,180L138.884,180L137.683,180L136.529,180L135.301,180L134.225,180L133.312,180L132.378,180L131.482,180L129.113,180L128.339,180L127.387,180L126.77,180L126.163,180L125.547,180L124.95,180L124.398,180L123.873,180L123.298,180L122.682,180L122.12,180L121.656,180L121.214,180L120.75,180L120.111,180L119.352,180L118.438,180L117.511,180L116.592,180L115.685,180L114.801,180L113.94,180L113.101,180L112.104,180L111.068,180L110.005,180L109.004,180L107.981,180L106.993,180L105.956,180L104.91,180L103.883,180L102.88,180L101.66,180L100.483,180L99.354,180L98.294,180L97.238,180L96.332,180L95.437,180L94.494,180L93.514,180L92.578,180L91.654,180L90.725,180L89.785,180L88.86,180L87.638,180L86.545,180L85.573,180L84.742,180L84.141,180L83.574,180L82.933,180L82.135,180L81.216,180L80.217,180L79.339,180L78.461,180L77.584,180L76.668,180L75.746,180L74.847,180L74.006,180L73.22,180L72.498,180L71.774,180L70.926,180L70.03,180L69.137,180L68.255,180L67.256,180L66.318,180L65.585,180L64.673,180L64.117,180L63.393,180L62.746,180L62.078,180L61.617,180L61.051,180L60.34,180L59.577,180L58.838,180L58.164,180L57.819,180L57.487,180L57.208,180L56.878,180L56.673,180L56.396,180L56.359,180L55.942,180L55.578,180L55.192,180L54.96,180L54.704,180L54.261,180L53.814,180L53.363,180L52.874,180L52.58,180L52.287,180L51.995,180L51.723,180L51.44,180L51.156,180L50.781,180L50.413,180L50.085,180L50,180Z" fill="#ddd" stroke="none"/>
  <path d="M50,149.11L50.085,149.075L50.413,148.618L50.781,149.478L51.156,149.511L51.44,149.595L51.723,149.997L51.995,150.021L52.287,149.79L52.58,150.08L52.874,149.851L53.363,150.439L53.814,150.605L54.261,150.668L54.704,150.875L54.96,150.815L55.192,150.722L55.578,150.766L55.942,150.11L56.359,150.672L56.396,150.699L56.673,150.838L56.878,150.816L57.208,150.472L57.487,150.663L57.819,150.428L58.164,150.242L58.838,150.849L59.577,150.979L60.34,150.255L61.051,149.961L61.617,149.589L62.078,149.076L62.746,148.357L63.393,148.61L64.117,149.769L64.673,151.051L65.585,154.119L66.318,154.561L67.256,153.065L68.255,152.656L69.137,152.47L70.03,151.269L70.926,148.904L71.774,146.263L72.498,145.354L73.22,145.621L74.006,145.526L74.847,145.935L75.746,146.682L76.668,147.408L77.584,147.863L78.461,147.6L79.339,146.616L80.217,146.521L81.216,146.948L82.135,147.004L82.933,146.741L83.574,145.858L84.141,145.44L84.742,144.86L85.573,145.01L86.545,145.979L87.638,146.727L88.86,147.612L89.785,148.074L90.725,147.665L91.654,147.861L92.578,148.17L93.514,148.422L94.494,148.18L95.437,146.958L96.332,146.357L97.238,146.005L98.294,145.048L99.354,144.31L100.483,144.016L101.66,145.183L102.88,145.583L103.883,145.871L104.91,145.957L105.956,145.933L106.993,145.659L107.981,145.962L109.004,146.755L110.005,147.893L111.068,148.938L112.104,149.854L113.101,151.152L113.94,153.294L114.801,155.088L115.685,157.598L116.592,160.091L117.511,162.316L118.438,163.408L119.352,163.839L120.111,165.444L120.75,166.478L121.214,166.86L121.656,166.843L122.12,166.812L122.682,166.372L123.298,166.387L123.873,166.502L124.398,166.557L124.95,166.361L125.547,166.105L126.163,165.592L126.77,165.099L127.387,164.058L128.339,162.895L129.113,163.503L131.482,164.867L132.378,165.969L133.312,166.42L134.225,166.222L135.301,166.059L136.529,165.764L137.683,165.08L138.884,165.426L140.073,166.467L141.418,166.853L142.484,167.194L143.517,167.303L144.526,167.021L145.506,166.727L146.445,166.158L147.137,166.017L147.536,165.587L148.281,165.206L148.813,165.461L149.544,164.747L150.285,162.885L151.092,160.709L151.835,158.687L152.562,156.596L153.33,155.053L154.043,154.894L154.753,154.91L155.476,155.223L156.181,155.105L156.853,154.953L157.381,155.604L157.989,155.472L158.48,153.888L158.966,152.292L159.5,150.708L159.996,149.42L160.625,147.699L161.272,145.835L161.945,143.86L162.647,143.726L163.414,145.086L164.236,145.382L164.918,145.977L165.75,146.494L166.453,146.149L167.173,147.193L167.918,147.629L168.693,147.886L169.532,148.045L170.294,148.336L171.071,148.839L172.199,147.07L173.182,144.802L174.06,142.66L174.895,141.638L175.717,139.156L176.592,136.49L177.488,133.511L178.376,131.138L179.241,129.019L180.11,127.285L180.994,124.783L181.883,123.276L182.778,122.79L183.697,122.423L184.71,121.883L185.837,121.533L186.946,120.61L188.017,120.719L189.086,120.099L190.158,118.654L191.129,118.821L191.93,119.558L192.499,119.988L193.206,119.114L194.037,120.445L194.712,120.333L195.47,119.105L196.252,118.293L197.01,117.876L198.372,116.497L199.305,116.812L200.229,115.436L201.022,114.389L201.818,113.752L202.639,113.353L203.506,111.992L204.422,111.3L205.386,110.924L206.359,110.249L207.357,109.221L209.009,108.156L209.692,108.263L210.499,106.916L211.229,105.217L212.059,102.86L212.797,101.475L213.715,101.248L214.51,100.917L215.286,99.325L216.106,96.365L216.928,93.952L217.748,92.663L218.548,91.63L219.352,91.536L220.182,90.916L221.063,88.423L222.057,86.207L222.976,87.345L223.729,87.417L224.428,87.653L224.981,87.377L225.905,85.242L226.846,81.544L227.695,78.741L228.534,76.106L229.343,73.562L230.356,69.883L231.217,67.52L232.035,66.409L232.884,65.329L233.754,65.033L234.743,64.114L235.767,63.34L236.755,61.884L237.731,60.837L238.66,60.134L239.636,58.694L240.622,57.002L241.543,56.688L242.339,55.466L243.21,53.603L244.517,50.221L246.18,47.822L247.657,45.264L248.564,43.994L249.361,42.932L250.07,43.151L250.901,43.905L251.597,45.18L252.076,46.158L252.892,46.592L253.68,48.833L254.527,51.635L255.4,54.571L256.293,57.03L257.19,58.077L258.091,58.362L259.024,59.221L259.996,61.415L260.945,64.378L261.866,67.175L262.726,68.436L263.565,69.073L264.408,69.261L265.312,69.215L266.231,68.963L267.185,68.747L267.786,69.068L268.132,68.491L268.144,68.652L268.154,68.42L268.162,68.853L268.178,68.962L268.229,68.736L268.555,69.182L269.064,68.977L269.781,69.276L270.691,69.192L271.699,69.358L272.681,69.658L273.619,69.212L274.556,67.578L275.453,65.02L276.349,62.365L277.224,60.112L278.1,59.023L279.016,58.938L279.973,58.02L280.975,55.258L281.943,52.153L282.937,49.243L283.919,46.69L284.959,44.512L285.969,42.772L287.017,42.657L288.127,44.142L289.28,46.983L290.607,49.179L292.312,50.544L294.411,54.715L296.1,57.814L297.232,60.346L298.476,61.069L299.534,62.795L300.426,64.394L301.269,64.956L302.278,65.222L303.3,65.871L304.262,66.692L305.119,67.916L306.014,70.098L306.908,72.893L307.75,75.744L308.566,78.723L309.385,82.173L310.262,85.801L311.2,87.279L312.076,87.544L312.939,87.656L313.814,86.771L314.92,88.271L315.928,91.06L316.911,91.442L317.944,92.572L318.898,94.505L319.821,96.405L320.712,99.35L321.904,102.071L322.65,103.988L323.284,100.993L324.024,101.674L324.82,103.952L325.68,105.39L326.744,106.397L327.838,107.616L328.869,109.068L329.841,110.312L330.853,111.411L331.84,112.314L332.829,113.494L333.812,114.344L334.783,114.372L335.784,115.454L336.713,116.324L337.624,117.033L338.557,117.403L339.494,117.731L340.419,118.463L341.305,119.78L342.203,120.997L342.936,120.625L343.609,120.055L344.339,119.306L345.265,118.741L346.232,119.07L347.189,120.457L348.219,121.365L349.161,121.429L350.195,122.208L351.243,122.737L352.296,123.261L353.276,123.505L354.232,123.807L355.149,125.194L356.071,127.827L357.005,129.762L357.99,131.707L359.124,134.836L360.102,137.889L361.127,140.744L362.102,142.298L362.998,144.448L363.852,147.214L364.656,148.991L365.413,148.916L366.125,148.637L366.843,148.708L367.66,148.683L368.446,148.582L369.251,147.75L369.953,146.893L370.627,147.196L371.301,146.53L372.002,145.82L372.731,145.718L373.454,144.22L374.185,144.469L374.888,146.417L375.593,148.383L376.334,149.942L377.036,151.63L377.632,153.797L378.513,156.196L379.11,155.217L379.709,155.248L380.179,155.393L380.724,155.345L381.376,155.387L382.082,155.526L382.867,155.136L383.711,154.205L384.583,153.197L385.408,152.457L386.224,150.721L387.039,148.769L387.792,148.15L388.605,147.892L389.491,147.827L390.512,147.746L391.523,148.06L392.527,148.44L393.66,148.987L394.618,150.068L395.251,150.023L396.041,148.814L396.946,147.732L397.839,147.789L398.855,147.174L399.962,144.332L401.056,143.022L402.134,142.876L403.181,140.87L404.206,139.562L405.206,139.669L406.226,139.976L407.246,140.198L408.294,140.649L409.474,143.353L410.586,145.137L411.693,144.882L412.807,145.846L413.912,146.199L414.991,145.623L416.092,144.453L417.194,144.327L418.26,145.482L419.436,147.638L420.489,148.506L421.535,148.863L422.58,146.966L423.623,146.75L424.671,147.571L425.702,147.3L426.689,146.459L427.703,147.325L428.501,148.456L428.817,147.633L429.392,146.599L430.043,146.305L430.847,147.242L431.619,149.33L432.563,150.205L433.647,150.3L434.769,150.47L435.813,150.41L436.551,151.056L437.307,151.263L438.278,151.444L439.261,151.747L440.32,152.334L441.35,152.707L442.358,152.997L443.463,152.919L444.597,153.183L445.724,153.3L446.859,154.779L448.044,153.915L449.152,152.248L450.239,152.004L451.388,151.757L452.54,151.445L453.732,151.294L454.908,151.501L456.057,151.028L457.207,150.726L458.817,151.294L460.055,151.919L461.435,151.902L462.681,152.759L463.94,152.492L465.15,151.87L466.325,151.381L467.469,150.035L468.62,149.478L469.814,150.676L471.173,150.964L472.333,150.99L473.476,152.662L474.588,152.634L475.701,152.932L476.889,151.624L478.017,149.527L479.173,149.286L480.354,149.972L481.536,150.722L482.844,149.444L484.147,148.616L485.351,148.437L486.597,147.662L487.73,144.902L488.795,142.554L489.816,140.743L490.852,140.295L492.005,140.687L493.249,141.911L494.394,143.083L495.47,144.579L496.425,144.938L497.522,145.088L498.593,146.283L499.428,146.524L500.161,147.15L500.719,148.522L501.342,149.234L501.965,149.474L502.483,149.329L503.213,149.481L503.788,148.541L504.562,147.5L505.392,145.168L506.248,142.615L507.011,140.224L507.787,137.93L508.592,135.547L509.478,133.237L510.318,131.023L511.085,128.369L511.83,126.142L512.644,123.904L513.261,122.48L513.584,124.055L513.62,123.558L513.818,123.553L514.016,124.198L514.527,126.179L515.294,127.395L515.981,126.571L516.815,128.478L517.531,129.375L518.189,130.698L518.862,131.609L519.53,131.766L520.489,132.163L521.518,132.323L522.473,132.763L523.408,133.297L524.372,134.111L525.262,135.301L526.156,136.216L527.034,138.403L527.778,139.718L528.588,138.799L529.36,138.117L530.033,137.39L530.791,138.377L531.709,139.757L532.57,139.668L533.383,139.867L534.225,140.77L534.981,142.546L535.984,144.478L536.745,146.269L537.418,148.117L538.212,149.341L539.02,149.316L539.741,150.03L540.135,150.42L540.931,148.95L542.135,148.043L542.96,148.657L543.61,147.027L544.378,145.076L545.241,142.981L546.131,140.196L547.014,139.767L547.713,139.488L548.526,139.567L549.573,138.693L550.438,138.789L551.073,139.592L551.453,139.507L551.865,139.497L552.53,139.356L553.384,136.894L554.311,136.14L555.245,135.045L556.221,133.299L557.284,132.928L558.086,132.466L559.149,132.11L560.106,131.514L560.994,130.915L561.904,130.549L562.781,129.648L563.478,128.817L564.154,126.991L564.827,126.829L565.304,126.722L565.693,126.068L566.287,124.648L566.699,124.508L567.715,126.047L568.592,125.763L569.873,127.518L570.736,129.139L571.654,130.994L572.55,130.962L574.12,131.969L575.066,132.923L576.525,134.222L578.044,136.052L579.033,137.282L580.15,140.182L581.66,139.196L582.442,139.069L583.215,139.237L584.14,141.159L585.222,140.626L586.076,141.088L586.913,141.409L587.589,142.897L588.249,143.997L589.074,145.673L589.811,147.792L590.637,148.89L591.814,149.398L592.649,150.525L593.077,150.689L594.13,149.431L594.742,149.934L595.42,149.665L596.237,147.714L597.183,145.295L597.984,143.502L598.596,142.497L599.318,141.121L600.173,140.443L601.001,139.855L601.854,139.835L602.868,138.264L603.71,139.054L604.512,139.366L605.32,139.891L606.102,138.57L606.955,136.543L607.677,135.795L608.447,134.437L609.343,132.341L610.315,131.433L611.241,131.048L612.122,131.084L612.96,130.945L613.78,130.338L614.602,130.674L615.511,128.549L616.55,126.953L617.636,125.151L618.538,124.229L619.327,123.567L619.691,124.447L620.399,124.537L621.204,125.792L622.17,127.868L623.109,130.31L623.848,132.118L624.631,134.625L625.363,137.167L626.173,139.039L627.025,141.501L627.738,143.401L628.252,144.731L628.638,145.408L629.856,145.97L630.108,145.922L630.376,146.158L630.733,146.861L631.098,147.954L632.941,145.097L634.541,146.415L635.343,146.15L635.936,145.64L636.613,144.98L637.202,144.54L637.835,144.015L638.474,143.001L639.168,142.061L640.122,140.94L641.174,139.792L642.267,138.364L643.373,137.798L645.02,139.66L646.258,142.862L648.474,145.35L649.97,146.175L651.17,147.34L652.428,148.772L653.669,148.003L654.902,147.388L656.139,148.538L657.32,151.232L658.419,151.412L659.487,151.113L660.675,150.257L661.863,148.544L663.012,149.448L664.369,148.269L665.534,147.927L666.711,149.276L668.015,150.631L669.33,150.745L670.492,151.958L671.616,151.244L672.675,150.813L673.629,151.059L674.57,150.716L675.501,150.253L676.493,149.747L677.61,149.748L678.761,149.841L679.894,149.943L681.234,149.589L682.389,150.029L683.574,150.849L684.889,151.66L686.219,154.149L687.595,152.698L688.873,152.205L690,151.932L691.207,152.11L692.269,152.236L693.247,152.128L694.354,151.847L695.282,151.251L696.295,151.183L697.332,149.821L698.311,149.596L699.264,149.735L700.25,149.355L701.222,149.675L702.16,148.365L703.047,147.131L703.969,146.848L704.906,147.117L705.886,146.448L706.926,146.324L708.007,146.827L709.149,145.879L710.289,145.488L711.371,147.695L712.6,147.767L713.679,146.602L714.742,145.501L715.809,144.268L716.84,144.844L717.821,145.427L718.957,145.554L719.965,145.651L720.823,144.852L721.811,144.493L722.796,144.373L723.699,142.955L724.507,141.034L725.248,139.506L725.957,139.007L726.674,138.54L727.41,138.22L728.233,138.023L729.06,137.998L729.847,138.888L730.697,141.232L731.523,142.737L732.321,142.572L733.289,143.681L734.172,147.142L735.171,148.638L736.015,148.904L736.838,149.666L737.697,149.631L738.507,149.563L739.221,149.339L739.93,148.347L740.702,147.542L741.613,146.988L742.46,147.506L743.199,147.868L743.882,148.118L744.543,148.19L745.24,148.002L745.953,148.8L746.702,150.099L747.49,151.914L748.032,152.615L748.633,153.233L749.104,153.766L749.632,154.537L750.212,155.205L750.694,155.837L751.002,155.811L751.298,155.665L751.681,155.618L752.111,155.838L752.661,155.539L752.94,155.375L754.066,154.546L754.37,155.039L755.358,155.172L755.977,154.757L756.552,155.37L757.222,155.138L757.945,154.443L758.662,154.34L759.434,154.882L760.307,156.784L761.178,159.117L762.079,161.908L762.992,164.391L763.855,165.865L764.787,165.198L765.638,165.39L766.497,165.99L767.577,165.593L769.279,164.969L771.302,164.207L773.258,164.511L774.657,165.242L775.537,166.088L776.379,167.313L777.194,167.357L778.042,167.414L778.888,167.151L779.73,166.316L780.581,165.646L781.447,165.246L782.32,164.661L783.275,164.355L785.782,164.162L786.741,166.587L787.562,167.129L788.456,166.846L789.251,166.53L790.035,166.477L790.912,166.386L791.734,166.179L792.565,165.112L793.651,162.794L795.189,160.644L796.984,155.961L799.262,152.19L800.183,151.257L800.944,150.746L801.6,149.843L802.296,148.938L803.012,147.623L803.99,146.085L804.807,145.816L805.669,145.747L806.565,146.13L807.472,146.234L808.37,145.987L809.349,146.046L810.306,146.086L811.376,146.115L812.37,145.032L813.288,145.21L814.181,146.237L815.08,147.293L816.022,146.992L817,147.037L817.929,148L818.581,149.049L819.212,148.227L819.771,148.198L820.254,148.056L820.77,147.782L821.551,147.298L822.519,147.003L823.557,147.453L824.586,147.026L825.759,146.18L827.004,145.45L828.293,145.02L829.345,145.37L830.421,146.491L831.502,146.643L832.713,146.333L833.984,147.852L835.037,148.848L836.053,147.945L836.916,147.444L837.691,147.022L838.409,146.597L839.116,146.462L839.779,146.009L840.36,145.744L840.94,146.573L841.556,148.06L842.285,150.778L843.217,152.182L844.029,152.368L844.922,152.673L845.603,153.31L846.195,154.129L846.803,154.341L847.258,153.973L847.71,153.017L848.415,151.843L849.148,150.93L849.787,149.759L850.444,149.233L850.982,149.478L851.513,150.098L852.17,149.659L852.856,149.331L853.55,149.459L854.202,149.531L854.869,150.78L855.532,152.363L856.255,154.255L856.807,155.873L857.489,157.164L858.125,157.586L858.778,157.904L859.51,156.71L860.502,154.854L861.391,155.198L862.044,154.879L862.749,153.165L863.536,151.762L864.34,151.845L865.126,152.609L865.829,151.933L866.237,151.794L866.709,151.058L867.222,150.737L867.647,150.498L868.284,150.372L869.036,148.988L869.058,149.306L869.318,151.835L869.627,150.461L869.835,149.516L869.854,149.225L869.904,149.277L869.959,149.075L869.992,148.795L870,148.96" fill="none" stroke="#111" stroke-width="1.2"/>
  <line x1="50" y1="180" x2="870" y2="180" stroke="#111" stroke-width="0.5"/>
  <line x1="50.0" y1="180" x2="50.0" y2="184" stroke="#111" stroke-width="0.5"/><text x="50.0" y="196" text-anchor="middle" font-family="Helvetica, Arial, sans-serif" font-size="10" fill="#111">0</text>
  <line x1="229.6" y1="180" x2="229.6" y2="184" stroke="#111" stroke-width="0.5"/><text x="229.6" y="196" text-anchor="middle" font-family="Helvetica, Arial, sans-serif" font-size="10" fill="#111">20</text>
  <line x1="409.2" y1="180" x2="409.2" y2="184" stroke="#111" stroke-width="0.5"/><text x="409.2" y="196" text-anchor="middle" font-family="Helvetica, Arial, sans-serif" font-size="10" fill="#111">40</text>
  <line x1="588.8" y1="180" x2="588.8" y2="184" stroke="#111" stroke-width="0.5"/><text x="588.8" y="196" text-anchor="middle" font-family="Helvetica, Arial, sans-serif" font-size="10" fill="#111">60</text>
  <line x1="768.4" y1="180" x2="768.4" y2="184" stroke="#111" stroke-width="0.5"/><text x="768.4" y="196" text-anchor="middle" font-family="Helvetica, Arial, sans-serif" font-size="10" fill="#111">80</text>
  
    <text x="42" y="46.5" text-anchor="end" font-family="Helvetica, Arial, sans-serif" font-size="10" fill="#111">353m</text>
    <text x="42" y="171.5" text-anchor="end" font-family="Helvetica, Arial, sans-serif" font-size="10" fill="#111">-2m</text>
  <circle cx="286.5" cy="42.5" r="3" fill="#c00" stroke="#111" stroke-width="0.5"/>
  <text x="291.5" y="37.5" font-family="Helvetica, Arial, sans-serif" font-size="10" font-weight="bold" fill="#c00">353m peak</text>
  <circle cx="778.3" cy="167.5" r="3" fill="#2a7a2a" stroke="#111" stroke-width="0.5"/>
  <text x="460" y="214" text-anchor="middle" font-family="Helvetica, Arial, sans-serif" font-size="10" fill="#555">kilometers</text>
</svg>