<?xml version="1.0" encoding="UTF-8"?>
<svg xmlns="http://www.w3.org/2000/svg" viewBox="0 0 382 700" preserveAspectRatio="xMidYMid meet">
  
  <style>
    :root {
      --fg: #e8e6e3;
      --muted: #9aa0a6;
      --frame: #8a8a8a;
      --fill: #2b2b2b;
      --peak: #ff6b6b;
      --trough: #6bd16b;
      --accent-1: #ffb870;
      --accent-2: #ff6b6b;
      --accent-3: #8aa8ff;
    }
    .mg-bg { fill: none; }
    .mg-fg { fill: var(--fg); }
    .mg-muted { fill: var(--muted); }
    .mg-frame { fill: none; stroke: var(--frame); stroke-width: 0.5; }
    .mg-track { fill: none; stroke: var(--fg); stroke-width: 1.4; stroke-linejoin: round; stroke-linecap: round; }
    .mg-dot { fill: var(--fg); }
    .mg-area { fill: var(--fill); stroke: none; }
    .mg-line { fill: none; stroke: var(--fg); stroke-width: 1.2; }
    .mg-axis { stroke: var(--frame); stroke-width: 0.5; fill: none; }
    .mg-label { fill: var(--fg); font-family: Helvetica, Arial, sans-serif; }
    .mg-muted-label { fill: var(--muted); font-family: Helvetica, Arial, sans-serif; }
    .mg-peak { fill: var(--peak); }
    .mg-trough { fill: var(--trough); }
    .mg-peak-label { fill: var(--peak); font-family: Helvetica, Arial, sans-serif; font-weight: bold; }
    .mg-acc-1 { stroke: var(--accent-1); fill: none; }
    .mg-acc-1-label { fill: var(--accent-1); font-family: Helvetica, Arial, sans-serif; font-weight: bold; }
    .mg-acc-2 { stroke: var(--accent-2); fill: none; }
    .mg-acc-2-label { fill: var(--accent-2); font-family: Helvetica, Arial, sans-serif; font-weight: bold; }
    .mg-acc-3 { stroke: var(--accent-3); fill: none; }
    .mg-acc-3-label { fill: var(--accent-3); font-family: Helvetica, Arial, sans-serif; font-weight: bold; }
    .mg-start { fill: var(--trough); stroke: var(--frame); stroke-width: 0.5; }
    .mg-end { fill: var(--peak); stroke: var(--frame); stroke-width: 0.5; }
  </style>
  
    <text class="mg-label" x="30" y="28" font-size="16" font-weight="bold">Hudson Valley Loop · Sept 2021</text>
    <text class="mg-muted-label" x="30" y="46" font-size="11">91.3 km · 56.7 mi · 1h54 moving</text>
  <rect class="mg-frame" x="30" y="60" width="322.0" height="590.0"/>
  <path class="mg-track" d="M47.106,60.372L47.639,60.9L46.977,61.608L46.872,62.003L58.086,70.425L58.798,71.025L58.91,71.353L59.514,71.723L59.867,71.587L60.539,72.302L62.175,73.461L62.715,73.985L60.902,77.78L59.199,80.123L55.538,85.637L62.966,89.415L75.582,96.319L76.59,97.095L77.294,98.083L77.638,99.181L77.68,100.224L77.373,101.132L76.757,101.942L72.45,106.395L68.616,109.974L67.255,111.617L62.31,121.234L59.82,125.174L55.841,133.977L54.387,136.735L52.573,139.709L51.848,141.32L50.195,146.387L49.329,151.59L47.916,156.916L47.006,159.339L45.165,163.301L44.526,165.259L44.319,167.27L44.368,173.619L44.005,176.031L43.586,177.124L42.819,178.528L38.467,184.349L36.981,186.928L35.52,190.422L33.235,197.34L32.638,200.292L30.132,220.572L30,221.868L30.065,223.323L30.735,225.611L35.104,234.547L38.662,243.778L40.48,246.289L48.542,255.863L49.279,256.978L51.047,260.207L52.048,262.456L53.562,267.39L54.456,269.558L62.964,288.416L65.17,292.202L65.984,293.348L67.236,294.053L70.328,296.472L78.146,302.11L88.508,311.124L89.304,311.33L90.597,310.317L92.596,308.563L95.073,306.643L99.171,302.589L99.928,301.989L107.895,298.085L110.487,296.488L112.758,295.523L113.671,294.925L121.82,288.15L124.514,285.538L125.606,284.283L127.506,281.755L130.33,277.245L131.371,275.902L133.318,274.288L135.796,272.803L138.563,270.328L140.144,269.708L141.82,269.527L149.363,269.812L154.701,270.219L156.234,270.136L157.23,269.914L159.965,268.671L162.585,267.203L163.481,266.444L166.235,263.344L168.12,261.717L169.014,261.306L171.38,261.291L172.534,261.549L173.537,262.168L175.102,263.788L175.998,264.425L177.43,264.854L178.894,264.795L181.992,263.824L186.06,261.492L189.163,260.095L191.323,259.428L192.835,259.359L195.948,259.57L198.864,259.107L201.018,259.071L202.85,259.259L206.465,260.046L207.565,260.103L208.847,259.881L210.127,259.323L212.611,257.59L213.143,257.13L213.497,256.488L214.214,256.153L215.887,254.572L217.013,253.764L218.263,253.213L219.583,252.888L222.401,252.952L227.598,253.535L234.725,255.286L239.43,256.869L240.471,257.387L242.96,259.348L244.15,259.913L245.575,260.301L247.71,260.445L248.809,260.672L250.844,261.399L252.039,262.254L253.594,263.831L256.091,264.903L256.904,265.399L258.782,267.244L259.771,267.932L260.915,268.225L261.698,268.164L262.466,267.919L266.589,266.262L269.175,265.043L270.423,264.184L273.124,261.832L274.888,260.118L276.364,258.383L282.704,249.608L284.96,247.407L288.263,244.784L289.767,243.866L294.837,241.304L301.745,237.384L311.414,233.461L312.723,232.752L313.525,232.117L315.043,230.532L320.747,224.013L322.364,222.734L324.564,221.449L326.904,220.438L328.974,219.897L331.567,219.571L334.778,219.693L336.156,219.62L337.459,219.288L338.649,218.717L344.473,214.838L347.293,212.626L348.542,211.361L349.959,209.586L351.607,207.123L352.037,206.191L351.35,205.534L351.794,205.606L351.974,206.296L349.707,209.768L347.299,212.441L344.962,214.339L339.094,218.294L337.579,219.059L335.924,219.471L331.345,219.543L328.382,219.878L326.245,220.506L324.55,221.271L322.519,222.514L321.081,223.659L316.617,228.462L314.039,231.429L312.561,232.641L310.338,233.704L302.191,236.902L287.854,245.02L284.725,247.334L282.772,249.248L281.606,250.7L276.534,257.946L274.956,259.827L273.225,261.5L270.288,264.062L269.283,264.776L262.471,267.841L261.733,268.072L260.958,268.148L259.84,267.869L258.896,267.194L256.797,265.195L253.993,263.888L251.529,261.71L249.733,260.724L243.619,259.279L242.34,258.664L240.45,257.307L239.6,256.855L233.866,254.848L228.008,253.481L224.096,252.824L223.034,252.867L219.649,252.622L218.53,252.858L217.032,253.457L215.639,254.383L212.99,256.922L211.412,258.219L209.851,259.28L208.498,259.879L207.601,259.994L206.654,259.933L203.354,259.25L200.549,259.015L198.681,259.022L195.873,259.327L193.081,259.194L191.304,259.3L188.992,259.984L185.758,261.393L181.963,263.583L179.863,264.325L178.573,264.642L177.268,264.693L176.071,264.33L175.044,263.59L173.223,261.798L172.236,261.307L170.629,261.124L169.046,261.36L168.102,261.748L166.865,262.675L163.395,266.326L162.354,267.198L158.545,269.194L156.881,269.848L156.002,270.032L154.648,270.107L148.458,269.595L141.585,269.303L139.868,269.546L138.265,270.26L135.253,272.842L132.186,274.992L131.146,275.892L130.255,276.951L127.469,281.399L125.071,284.675L123.375,286.542L121.074,288.62L112.896,295.169L110.179,296.451L107.084,298.289L99.569,302.008L94.93,306.482L90.506,310.082L89.915,310.696L89.272,311.958L96.146,317.501L97.621,318.32L99.093,318.559L100.671,318.375L101.794,317.933L104.602,316.19L105.653,315.704L107.927,315.29L110.251,315.155L111.675,315.478L116.778,317.427L119.421,318.569L121.062,319.656L122.534,321.463L123.338,323.198L124.203,326.312L124.818,329.78L125.544,332.519L125.997,333.736L127.165,335.514L129.626,337.999L130.885,339.609L131.341,340.552L132.613,343.992L133.295,345.409L140.278,357.783L140.592,358.7L140.739,359.658L140.679,360.624L140.399,361.564L139.64,362.859L136.682,366.806L135.996,368.226L135.552,369.743L135.383,371.307L135.093,379.17L133.987,383.711L133.781,385.279L133.611,389.395L133.337,391.674L132.886,394.212L131.854,398.553L131.817,400.065L132.268,404.996L132.061,407.475L131.443,409.889L130.766,411.686L127.064,418.882L127.721,418.924L127.571,418.759L127.083,418.732L126.552,419.625L123.938,422.181L122.735,422.968L120.476,424.055L119.366,424.96L118.054,426.544L113.343,433.216L112.335,435.839L111.828,439.488L111.306,441.294L109.099,445.23L106.971,447.798L105.998,449.544L103.199,458.753L101.473,462.904L95.439,479.109L94.998,480.703L94.18,485.058L93.239,488.768L92.898,490.655L92.66,493.937L92.553,498.545L91.659,504.268L91.054,513.537L90.203,516.715L89.092,522.635L88.332,525.579L87.689,527.452L86.429,529.924L84.449,532.576L83.324,534.366L82.052,537.281L81.54,538.759L81.377,540.454L81.355,545.904L81.154,548.092L79.846,556.397L79.59,557.518L78.845,559.384L77.723,561.039L76.908,561.83L75.977,562.511L70.211,565.297L67.413,566.914L66.172,567.837L64.78,569.242L62.332,572.225L58.53,576.049L54.441,579.164L50.704,582.546L48.476,584.224L42.603,589.644L39.994,592.887L37.599,595.061L36.382,595.94L35.911,597.014L36.42,597.655L38.491,601.632L43.447,608.471L44.436,610.113L46.085,611.383L47.974,612.269L48.558,612.722L49.757,614.551L52.052,617.531L53.401,618.912L54.38,619.292L54.729,619.553L55.032,619.58L55.329,619.419L55.559,619.113L55.605,618.648L56.736,616.596L57.393,615.97L57.995,615.826L58.946,616.063L61.327,617.392L62.67,617.995L63.521,618.021L65.28,617.342L65.89,617.443L66.432,617.825L66.832,618.662L66.665,619.569L65.986,620.523L62.501,624.535L61.874,625.733L61.549,627.04L61.676,628.346L62.809,630.859L63.581,633.29L64.304,634.393L64.923,635.007L66.021,635.534L68.52,635.639L69.177,635.816L69.675,636.276L70.701,638.312L72.194,640.085L72.725,640.478L74.192,641.025L75.622,642.088L76.293,642.366L77.536,642.498L79.326,642.253L81.328,642.423L82.786,642.278L85.598,641.578L86.237,641.31L87.479,640.501L88.296,640.299L88.826,640.322L89.305,640.55L90.535,641.629L90.971,641.862L91.595,642.023L93.246,642.164L93.748,642.503L94.168,643.414L94.905,647.931L95.371,648.848L96.176,649.956L96,649.449L95.299,648.317L94.97,647.403L94.247,643.213L93.729,642.348L93.2,642.024L91.008,641.719L89.266,640.37L88.23,640.113L87.524,640.274L85.645,641.356L82.274,642.294L81.267,642.342L79.879,642.086L77.462,642.42L76.502,642.301L75.636,641.922L74.314,640.923L72.581,640.176L70.792,638.114L70.397,637.518L69.812,636.198L69.35,635.768L68.48,635.511L66.051,635.421L65.1,634.956L64.288,634.09L63.758,633.225L63.089,631.016L61.954,628.66L61.708,627.812L61.663,627.113L61.918,625.914L62.52,624.795L65.22,621.733L66.618,619.88L66.922,618.966L66.737,618.02L66.166,617.43L65.402,617.226L63.371,617.869L62.673,617.798L58.668,615.705L58.036,615.572L57.417,615.712L56.64,616.386L55.615,618.35L54.603,619.26L54.941,619.102L55.745,618.376L56.914,616.522L57.344,616.164L58.035,615.944L59.314,616.282L62.117,617.725L62.924,618.019L63.706,617.996L64.81,617.515L65.516,617.358L66.206,617.582L66.698,618.164L66.853,618.904L66.619,619.648L65.252,621.427L62.656,624.32L61.965,625.452L61.509,626.861L61.516,628.028L61.704,628.606L62.737,630.755L63.655,633.459L64.62,634.772L65.1,635.17L65.842,635.522L66.98,635.657L68.54,635.649L69.413,635.932L69.676,636.21L70.351,637.841L71.233,639.018L72.252,640.082L72.927,640.55L74.262,641.067L75.795,642.181L76.635,642.456L77.873,642.548L79.847,642.312L81.345,642.49L82.28,642.433L85.632,641.532L87.575,640.46L88.489,640.296L89.435,640.604L90.952,641.878L91.652,642.017L92.714,642.01L93.333,642.165L93.857,642.587L94.232,643.347L94.572,644.96L94.908,647.611L95.572,649.064L96.187,650L96.437,649.881L95.486,648.606L94.988,647.514L94.723,645.15L94.297,642.784L93.916,642.145L93.593,641.936L93.186,641.814L91.305,641.717L90.605,641.316L89.334,640.248L88.471,640.021L87.366,640.312L85.626,641.304L82.521,642.116L81.341,642.247L79.457,642.082L77.726,642.366L76.769,642.3L75.837,641.974L74.357,640.919L72.464,640.016L70.862,638.27L70.451,637.618L69.829,636.16L69.337,635.704L68.559,635.512L66.224,635.486L65.591,635.29L65.008,634.913L64.257,634.083L63.667,633.162L62.993,630.951L61.762,628.274L61.651,627.076L61.948,625.901L62.851,624.236L65.797,620.987L66.734,619.717L66.991,619.011L66.989,618.639L66.707,617.895L66.105,617.34L65.726,617.206L64.878,617.3L63.609,617.768L62.737,617.722L58.842,615.828L58.074,615.63L57.353,615.823L57.029,616.099L55.587,618.43L55.226,618.793L54.729,619.063L54.591,619.286L55.551,619.15L55.025,618.902L54.124,619L53.255,618.57L50.12,614.688L48.721,612.54L48.184,612.105L46.155,611.207L44.597,609.827L43.824,608.57L38.868,601.796L36.985,598.376L36.272,596.481L36.458,596.145L37.736,595.216L39.155,593.899L43.408,589.137L48.261,584.663L50.576,582.925L54.204,579.54L58.215,576.76L59.784,575.414L63.043,572.009L65.044,569.299L66.342,567.919L67.828,566.759L70.856,564.813L73.263,563.652L74.673,563.247L76.166,562.473L77.938,561.011L78.64,560.097L79.184,559.107L79.845,556.892L81.269,548.123L81.478,545.175L81.496,540.16L81.701,538.623L83.456,534.393L84.378,532.931L86.781,529.714L87.723,527.752L88.402,525.666L89.6,520.835L90.316,516.984L91.24,513.773L91.385,512.203L91.497,506.337L91.803,503.666L92.595,498.715L92.913,490.701L93.152,489.284L94.116,485.721L95.485,479.352L100.905,464.641L103.145,459.325L105.392,451.726L106.17,449.453L107.144,447.797L109.307,445.144L110.881,442.319L111.602,440.733L111.983,439.467L112.408,436.151L113.221,433.826L114.226,432.19L119.372,425.119L120.806,423.987L123.106,422.794L124.157,422.091L126.382,419.992L126.943,419.323L128.749,416.158L131.268,410.77L132.028,408.184L132.383,405.526L132.317,403.889L131.876,400.293L131.872,398.551L133.26,392.844L133.832,388.353L134.05,383.998L135.224,379.018L135.418,376.556L135.527,371.861L135.797,369.469L136.182,368.153L136.98,366.599L138.124,364.928L139.535,363.297L140.315,362.122L140.737,360.856L140.782,359.51L140.528,358.175L139.961,356.913L139.062,355.178L135.597,349.244L132.971,344.34L132.191,342.708L130.931,339.484L130.069,338.339L127.253,335.222L126.173,333.579L125.571,332.054L123.928,324.724L123.412,322.933L122.68,321.376L121.327,319.734L120.128,318.793L118.906,318.133L111.932,315.309L110.244,314.937L108.806,314.971L106.058,315.319L105.405,315.242L104.913,315.842L101.685,317.814L100.403,318.305L99.355,318.416L98.454,318.361L96.988,317.854L95.647,316.997L90.255,312.496L83.179,306.139L78.187,301.83L68.197,294.698L66.526,293.33L65.68,292.479L64.543,290.818L62.657,287.395L56.674,274.431L53.786,267.823L52.548,263.219L50.82,259.18L49.202,256.419L48.495,255.443L38.679,243.868L37.474,240.031L35.618,235.085L30.565,224.517L30.253,223.188L30.183,222.077L30.529,217.895L31.123,212.884L33.182,198.664L35.259,191.692L36.397,188.744L38.469,185.024L43.059,178.507L44.051,176.442L44.342,175.372L44.524,173.903L44.487,167.183L44.736,165.072L45.282,163.45L47.077,159.797L48.054,157.2L49.779,150.671L50.048,148.066L50.322,146.69L52.163,140.924L52.808,139.602L55.221,135.493L60.314,124.858L63.441,119.542L67.194,111.872L68.401,110.293L70.435,108.587L72.932,106.26L76.845,102.16L77.688,101.038L77.937,100.274L77.863,99.182L77.535,98.08L76.864,97.087L76.086,96.446L66.478,91.023L62.115,88.692L55.726,85.523L53.163,84.824L51.826,83.506L50.762,82.79L49.236,82.241L42.93,81.187L41.97,81.236L40.74,81.693L39.657,81.939L38.431,81.895L37.594,81.591L36.763,81.071L34.386,79.12L33.509,78.229L32.98,77.39L32.597,76.366L32.488,74.624L33.26,70.144L33.567,69.271L34.059,68.441L39.481,62.316L40.092,61.479L40.759,60.217L41.905,60L44.062,60.206L44.789,60.528L46.608,61.772L47.265,61.608L47.405,61.438L47.074,60.47L47.284,60.519L47.02,60.94L46.864,60.794L46.905,60.585L47.187,60.691L47.266,60.615L47.341,60.734L47.374,60.46L47.122,60.413L46.927,60.655"/>
  <polygon class="mg-start" points="47.1,55.4 42.6,63.4 51.6,63.4"/>
  <circle class="mg-dot" cx="57.6" cy="69.9" r="2"/><text class="mg-label" x="62.6" y="65.9" font-size="10">Beacon</text>
  <circle class="mg-dot" cx="37.9" cy="156.2" r="2"/><text class="mg-label" x="42.9" y="152.2" font-size="10">Dutchess Junction</text>
  <circle class="mg-dot" cx="89.4" cy="311.3" r="2"/><text class="mg-label" x="94.4" y="307.3" font-size="10">Cold Spring</text>
  <circle class="mg-dot" cx="273.9" cy="293.1" r="2"/><text class="mg-label" x="278.9" y="289.1" font-size="10">Dennytown</text>
  <circle class="mg-dot" cx="64.4" cy="456.1" r="2"/><text class="mg-label" x="69.4" y="452.1" font-size="10">Highland Falls</text>
  <circle class="mg-dot" cx="69.7" cy="558.9" r="2"/><text class="mg-label" x="74.7" y="554.9" font-size="10">Manitou</text>
  <circle class="mg-dot" cx="142.8" cy="459.3" r="2"/><text class="mg-label" x="147.8" y="455.3" font-size="10">Forsonville</text>
  <circle class="mg-dot" cx="108.4" cy="414.2" r="2"/><text class="mg-label" x="113.4" y="410.2" font-size="10">Garrison</text>
  <circle class="mg-dot" cx="179.6" cy="421.3" r="2"/><text class="mg-label" x="184.6" y="417.3" font-size="10">South Highland</text>
  <circle class="mg-dot" cx="179.0" cy="332.7" r="2"/><text class="mg-label" x="184.0" y="328.7" font-size="10">Nelson Corners</text>
  <circle class="mg-acc-1" cx="311.3" cy="233.3" r="3.5" stroke-width="1.5"/><text class="mg-acc-1-label" x="303.3" y="225.3" text-anchor="end" font-size="10">peak 353m</text>
  <circle class="mg-acc-2" cx="299.1" cy="238.6" r="3.5" stroke-width="1.5"/><text class="mg-acc-2-label" x="291.1" y="252.6" text-anchor="end" font-size="10">top speed 90 mph</text>
  <circle class="mg-acc-3" cx="55.8" cy="85.7" r="3.5" stroke-width="1.5"/><text class="mg-acc-3-label" x="63.8" y="77.7" text-anchor="start" font-size="10">0.92G @ 32.2mph</text>
  
    <line class="mg-axis" x1="30.0" y1="675" x2="81.2" y2="675" stroke-width="1.5"/>
    <line class="mg-axis" x1="30.0" y1="671" x2="30.0" y2="679" stroke-width="1.5"/>
    <line class="mg-axis" x1="81.2" y1="671" x2="81.2" y2="679" stroke-width="1.5"/>
    <text class="mg-label" x="55.6" y="668" text-anchor="middle" font-size="10">2 km</text>
  <text class="mg-muted-label" x="352.03661388875776" y="682" text-anchor="end" font-size="9">moto-gpx · lambert conformal conic · parallels 41.3°/41.5°</text>
</svg>